SairaStencil.ufo
<glyph name="quotedbl" format="1">
  <advance width="525"/>
  <unicode hex="0022"/>
  <note>
    quotedbl
  </note>
  <outline>
    <contour>
      <point x="310" y="424" type="line"/>
      <point x="440" y="424" type="line"/>
      <point x="460" y="639" type="line"/>
      <point x="460" y="688" type="line"/>
      <point x="290" y="688" type="line"/>
      <point x="290" y="639" type="line"/>
    </contour>
    <contour>
      <point x="85" y="424" type="line"/>
      <point x="215" y="424" type="line"/>
      <point x="235" y="639" type="line"/>
      <point x="235" y="688" type="line"/>
      <point x="65" y="688" type="line"/>
      <point x="65" y="639" type="line"/>
    </contour>
  </outline>
</glyph>
<glyph name="dollar" format="1">
  <advance width="539"/>
  <unicode hex="0024"/>
  <note>
    dollar
  </note>
  <outline>
    <contour>
      <point x="292" y="-8" type="line"/>
      <point x="339" y="-8" type="line"/>
      <point x="339" y="71" type="line"/>
      <point x="384" y="75"/>
      <point x="422" y="87"/>
      <point x="450" y="113" type="curve" smooth="yes"/>
      <point x="477" y="139"/>
      <point x="493" y="181"/>
      <point x="493" y="246" type="curve" smooth="yes"/>
      <point x="493" y="314"/>
      <point x="482" y="352"/>
      <point x="463" y="375" type="curve" smooth="yes"/>
      <point x="443" y="398"/>
      <point x="415" y="405"/>
      <point x="382" y="409" type="curve" smooth="yes"/>
      <point x="257" y="426" type="line" smooth="yes"/>
      <point x="226" y="430"/>
      <point x="227" y="434"/>
      <point x="227" y="454" type="curve" smooth="yes"/>
      <point x="227" y="469"/>
      <point x="231" y="473"/>
      <point x="250" y="476" type="curve"/>
      <point x="250" y="696" type="line"/>
      <point x="203" y="696" type="line"/>
      <point x="203" y="616" type="line"/>
      <point x="156" y="611"/>
      <point x="118" y="599"/>
      <point x="90" y="575" type="curve" smooth="yes"/>
      <point x="62" y="551"/>
      <point x="46" y="513"/>
      <point x="46" y="456" type="curve" smooth="yes"/>
      <point x="46" y="407"/>
      <point x="50" y="368"/>
      <point x="67" y="338" type="curve" smooth="yes"/>
      <point x="84" y="308"/>
      <point x="116" y="289"/>
      <point x="172" y="281" type="curve" smooth="yes"/>
      <point x="285" y="266" type="line" smooth="yes"/>
      <point x="306" y="263"/>
      <point x="312" y="262"/>
      <point x="312" y="239" type="curve" smooth="yes"/>
      <point x="312" y="224"/>
      <point x="311" y="217"/>
      <point x="292" y="214" type="curve"/>
    </contour>
    <contour>
      <point x="203" y="-8" type="line"/>
      <point x="250" y="-8" type="line"/>
      <point x="250" y="212" type="line"/>
      <point x="232" y="212" type="line" smooth="yes"/>
      <point x="214" y="212"/>
      <point x="195" y="213"/>
      <point x="175" y="214" type="curve" smooth="yes"/>
      <point x="135" y="216"/>
      <point x="100" y="219"/>
      <point x="63" y="223" type="curve"/>
      <point x="63" y="89" type="line"/>
      <point x="74" y="87"/>
      <point x="87" y="85"/>
      <point x="102" y="82" type="curve"/>
      <point x="127" y="78"/>
      <point x="162" y="74"/>
      <point x="203" y="71" type="curve"/>
    </contour>
    <contour>
      <point x="464" y="465" type="curve"/>
      <point x="464" y="599" type="line"/>
      <point x="454" y="601"/>
      <point x="443" y="603"/>
      <point x="431" y="606" type="curve"/>
      <point x="408" y="610"/>
      <point x="378" y="614"/>
      <point x="339" y="617" type="curve"/>
      <point x="339" y="696" type="line"/>
      <point x="292" y="696" type="line"/>
      <point x="292" y="477" type="line"/>
      <point x="305" y="477" type="line" smooth="yes"/>
      <point x="322" y="477"/>
      <point x="340" y="476"/>
      <point x="359" y="475" type="curve" smooth="yes"/>
      <point x="397" y="472"/>
      <point x="428" y="469"/>
    </contour>
  </outline>
</glyph>
<glyph name="percent" format="1">
  <advance width="898"/>
  <unicode hex="0025"/>
  <note>
    percent
  </note>
  <outline>
    <contour>
      <point x="166" y="0" type="line"/>
      <point x="283" y="0" type="line"/>
      <point x="732" y="688" type="line"/>
      <point x="615" y="688" type="line"/>
    </contour>
    <contour>
      <point x="201" y="311" type="curve" smooth="yes"/>
      <point x="208" y="311" type="line"/>
      <point x="208" y="394" type="line"/>
      <point x="201" y="394" type="line" smooth="yes"/>
      <point x="180" y="394"/>
      <point x="168" y="395"/>
      <point x="163" y="409" type="curve"/>
      <point x="160" y="416"/>
      <point x="159" y="426"/>
      <point x="159" y="441" type="curve"/>
      <point x="158" y="456"/>
      <point x="158" y="476"/>
      <point x="158" y="503" type="curve" smooth="yes"/>
      <point x="158" y="694" type="line"/>
      <point x="103" y="690"/>
      <point x="76" y="675"/>
      <point x="62" y="644" type="curve" smooth="yes"/>
      <point x="48" y="613"/>
      <point x="47" y="568"/>
      <point x="47" y="503" type="curve" smooth="yes"/>
      <point x="47" y="430"/>
      <point x="47" y="383"/>
      <point x="67" y="353" type="curve" smooth="yes"/>
      <point x="87" y="323"/>
      <point x="125" y="311"/>
    </contour>
    <contour>
      <point x="245" y="313" type="line"/>
      <point x="300" y="317"/>
      <point x="328" y="333"/>
      <point x="342" y="363" type="curve" smooth="yes"/>
      <point x="356" y="393"/>
      <point x="356" y="438"/>
      <point x="356" y="503" type="curve" smooth="yes"/>
      <point x="356" y="576"/>
      <point x="356" y="625"/>
      <point x="336" y="655" type="curve" smooth="yes"/>
      <point x="316" y="685"/>
      <point x="277" y="696"/>
      <point x="201" y="696" type="curve" smooth="yes"/>
      <point x="195" y="696" type="line"/>
      <point x="195" y="613" type="line"/>
      <point x="201" y="613" type="line" smooth="yes"/>
      <point x="222" y="613"/>
      <point x="234" y="613"/>
      <point x="240" y="599" type="curve" smooth="yes"/>
      <point x="243" y="592"/>
      <point x="244" y="581"/>
      <point x="245" y="566" type="curve"/>
      <point x="245" y="503" type="line"/>
    </contour>
    <contour>
      <point x="696" y="-8" type="curve" smooth="yes"/>
      <point x="703" y="-8" type="line"/>
      <point x="703" y="75" type="line"/>
      <point x="696" y="75" type="line" smooth="yes"/>
      <point x="675" y="75"/>
      <point x="663" y="76"/>
      <point x="658" y="90" type="curve"/>
      <point x="655" y="97"/>
      <point x="654" y="107"/>
      <point x="654" y="122" type="curve"/>
      <point x="653" y="137"/>
      <point x="653" y="157"/>
      <point x="653" y="184" type="curve" smooth="yes"/>
      <point x="653" y="375" type="line"/>
      <point x="598" y="371"/>
      <point x="571" y="356"/>
      <point x="557" y="325" type="curve" smooth="yes"/>
      <point x="543" y="294"/>
      <point x="542" y="249"/>
      <point x="542" y="184" type="curve" smooth="yes"/>
      <point x="542" y="111"/>
      <point x="542" y="64"/>
      <point x="562" y="34" type="curve" smooth="yes"/>
      <point x="582" y="4"/>
      <point x="620" y="-8"/>
    </contour>
    <contour>
      <point x="740" y="-6" type="line"/>
      <point x="795" y="-2"/>
      <point x="823" y="14"/>
      <point x="837" y="44" type="curve" smooth="yes"/>
      <point x="851" y="74"/>
      <point x="851" y="119"/>
      <point x="851" y="184" type="curve" smooth="yes"/>
      <point x="851" y="257"/>
      <point x="851" y="306"/>
      <point x="831" y="336" type="curve" smooth="yes"/>
      <point x="811" y="366"/>
      <point x="772" y="377"/>
      <point x="696" y="377" type="curve" smooth="yes"/>
      <point x="690" y="377" type="line"/>
      <point x="690" y="294" type="line"/>
      <point x="696" y="294" type="line" smooth="yes"/>
      <point x="717" y="294"/>
      <point x="729" y="294"/>
      <point x="735" y="280" type="curve" smooth="yes"/>
      <point x="738" y="273"/>
      <point x="739" y="262"/>
      <point x="740" y="247" type="curve"/>
      <point x="740" y="184" type="line"/>
    </contour>
  </outline>
</glyph>
<glyph name="comma" format="1">
  <advance width="330"/>
  <unicode hex="002C"/>
  <note>
    comma
  </note>
  <outline>
    <contour>
      <point x="64" y="-157" type="line"/>
      <point x="155" y="-157"/>
      <point x="205" y="-145"/>
      <point x="233" y="-115" type="curve" smooth="yes"/>
      <point x="261" y="-85"/>
      <point x="266" y="-36"/>
      <point x="266" y="40" type="curve" smooth="yes"/>
      <point x="266" y="163" type="line"/>
      <point x="64" y="163" type="line"/>
      <point x="64" y="0" type="line"/>
      <point x="136" y="0" type="line"/>
      <point x="136" y="-15" type="line" smooth="yes"/>
      <point x="136" y="-42"/>
      <point x="134" y="-58"/>
      <point x="124" y="-69" type="curve" smooth="yes"/>
      <point x="114" y="-80"/>
      <point x="96" y="-84"/>
      <point x="64" y="-84" type="curve"/>
    </contour>
  </outline>
</glyph>
<glyph name="zero" format="1">
  <advance width="660"/>
  <unicode hex="0030"/>
  <note>
    zero
  </note>
  <outline>
    <contour>
      <point x="409" y="-5" type="line"/>
      <point x="509" y="3"/>
      <point x="560" y="31"/>
      <point x="586" y="86" type="curve" smooth="yes"/>
      <point x="612" y="141"/>
      <point x="613" y="224"/>
      <point x="613" y="344" type="curve" smooth="yes"/>
      <point x="613" y="477"/>
      <point x="612" y="567"/>
      <point x="576" y="621" type="curve" smooth="yes"/>
      <point x="540" y="675"/>
      <point x="469" y="696"/>
      <point x="330" y="696" type="curve" smooth="yes"/>
      <point x="311" y="696" type="line" smooth="yes"/>
      <point x="305" y="696"/>
      <point x="299" y="696"/>
      <point x="293" y="695" type="curve"/>
      <point x="293" y="541" type="line"/>
      <point x="304" y="542"/>
      <point x="315" y="543"/>
      <point x="330" y="543" type="curve" smooth="yes"/>
      <point x="370" y="543"/>
      <point x="390" y="542"/>
      <point x="400" y="517" type="curve" smooth="yes"/>
      <point x="405" y="504"/>
      <point x="407" y="485"/>
      <point x="408" y="458" type="curve" smooth="yes"/>
      <point x="409" y="431"/>
      <point x="409" y="393"/>
      <point x="409" y="344" type="curve" smooth="yes"/>
    </contour>
    <contour>
      <point x="330" y="-8" type="curve" smooth="yes"/>
      <point x="349" y="-8" type="line" smooth="yes"/>
      <point x="355" y="-8"/>
      <point x="361" y="-8"/>
      <point x="367" y="-7" type="curve"/>
      <point x="367" y="147" type="line"/>
      <point x="362" y="146"/>
      <point x="356" y="145"/>
      <point x="350" y="145" type="curve" smooth="yes"/>
      <point x="330" y="145" type="line" smooth="yes"/>
      <point x="290" y="145"/>
      <point x="271" y="146"/>
      <point x="261" y="171" type="curve" smooth="yes"/>
      <point x="256" y="184"/>
      <point x="253" y="204"/>
      <point x="252" y="231" type="curve" smooth="yes"/>
      <point x="251" y="258"/>
      <point x="251" y="295"/>
      <point x="251" y="344" type="curve" smooth="yes"/>
      <point x="251" y="693" type="line"/>
      <point x="151" y="685"/>
      <point x="100" y="657"/>
      <point x="74" y="602" type="curve" smooth="yes"/>
      <point x="48" y="547"/>
      <point x="47" y="464"/>
      <point x="47" y="344" type="curve" smooth="yes"/>
      <point x="47" y="209"/>
      <point x="48" y="122"/>
      <point x="84" y="68" type="curve" smooth="yes"/>
      <point x="120" y="14"/>
      <point x="191" y="-8"/>
    </contour>
  </outline>
</glyph>
<glyph name="one" format="1">
  <advance width="402"/>
  <unicode hex="0031"/>
  <note>
    one
  </note>
  <outline>
    <contour>
      <point x="137" y="0" type="line"/>
      <point x="337" y="0" type="line"/>
      <point x="337" y="688" type="line"/>
      <point x="204" y="688" type="line"/>
      <point x="10" y="595" type="line"/>
      <point x="10" y="439" type="line"/>
      <point x="137" y="487" type="line"/>
    </contour>
  </outline>
</glyph>
<glyph name="three" format="1">
  <advance width="610"/>
  <unicode hex="0033"/>
  <note>
    three
  </note>
  <outline>
    <contour>
      <point x="359" y="-4" type="line"/>
      <point x="440" y="4"/>
      <point x="493" y="25"/>
      <point x="523" y="57" type="curve" smooth="yes"/>
      <point x="553" y="89"/>
      <point x="563" y="132"/>
      <point x="563" y="184" type="curve" smooth="yes"/>
      <point x="563" y="240"/>
      <point x="552" y="277"/>
      <point x="531" y="302" type="curve" smooth="yes"/>
      <point x="510" y="326"/>
      <point x="478" y="340"/>
      <point x="438" y="349" type="curve"/>
      <point x="438" y="353" type="line"/>
      <point x="518" y="372"/>
      <point x="557" y="415"/>
      <point x="557" y="515" type="curve" smooth="yes"/>
      <point x="557" y="618"/>
      <point x="501" y="677"/>
      <point x="353" y="692" type="curve"/>
      <point x="353" y="483" type="line" smooth="yes"/>
      <point x="353" y="456"/>
      <point x="351" y="442"/>
      <point x="340" y="434" type="curve" smooth="yes"/>
      <point x="329" y="426"/>
      <point x="309" y="424"/>
      <point x="276" y="424" type="curve" smooth="yes"/>
      <point x="166" y="424" type="line"/>
      <point x="166" y="271" type="line"/>
      <point x="276" y="271" type="line" smooth="yes"/>
      <point x="309" y="271"/>
      <point x="331" y="269"/>
      <point x="343" y="261" type="curve"/>
      <point x="355" y="252"/>
      <point x="359" y="236"/>
      <point x="359" y="207" type="curve" smooth="yes"/>
    </contour>
    <contour>
      <point x="283" y="-8" type="curve" smooth="yes"/>
      <point x="295" y="-8"/>
      <point x="307" y="-8"/>
      <point x="317" y="-7" type="curve"/>
      <point x="317" y="147" type="line"/>
      <point x="301" y="146"/>
      <point x="282" y="145"/>
      <point x="263" y="145" type="curve" smooth="yes"/>
      <point x="189" y="145"/>
      <point x="99" y="153"/>
      <point x="47" y="159" type="curve"/>
      <point x="47" y="16" type="line"/>
      <point x="98" y="4"/>
      <point x="207" y="-8"/>
    </contour>
    <contour>
      <point x="51" y="529" type="line"/>
      <point x="88" y="533"/>
      <point x="129" y="537"/>
      <point x="175" y="541" type="curve"/>
      <point x="198" y="542"/>
      <point x="221" y="543"/>
      <point x="246" y="543" type="curve" smooth="yes"/>
      <point x="273" y="543"/>
      <point x="295" y="542"/>
      <point x="311" y="540" type="curve"/>
      <point x="311" y="695" type="line"/>
      <point x="300" y="696"/>
      <point x="289" y="696"/>
      <point x="277" y="696" type="curve" smooth="yes"/>
      <point x="197" y="696"/>
      <point x="110" y="684"/>
      <point x="51" y="672" type="curve"/>
    </contour>
  </outline>
</glyph>
<glyph name="six" format="1">
  <advance width="662"/>
  <unicode hex="0036"/>
  <note>
    six
  </note>
  <outline>
    <contour>
      <point x="342" y="-8" type="curve" smooth="yes"/>
      <point x="361" y="-8" type="line" smooth="yes"/>
      <point x="367" y="-8"/>
      <point x="373" y="-8"/>
      <point x="379" y="-7" type="curve"/>
      <point x="379" y="147" type="line"/>
      <point x="373" y="146"/>
      <point x="366" y="145"/>
      <point x="359" y="145" type="curve" smooth="yes"/>
      <point x="334" y="145" type="line" smooth="yes"/>
      <point x="303" y="145"/>
      <point x="283" y="145"/>
      <point x="270" y="155" type="curve" smooth="yes"/>
      <point x="257" y="165"/>
      <point x="251" y="183"/>
      <point x="251" y="222" type="curve" smooth="yes"/>
      <point x="251" y="691" type="line"/>
      <point x="168" y="682"/>
      <point x="117" y="658"/>
      <point x="87" y="604" type="curve" smooth="yes"/>
      <point x="57" y="550"/>
      <point x="47" y="468"/>
      <point x="47" y="344" type="curve" smooth="yes"/>
      <point x="47" y="236"/>
      <point x="54" y="161"/>
      <point x="71" y="109" type="curve" smooth="yes"/>
      <point x="87" y="57"/>
      <point x="116" y="27"/>
      <point x="160" y="11" type="curve" smooth="yes"/>
      <point x="203" y="-5"/>
      <point x="262" y="-8"/>
    </contour>
    <contour>
      <point x="421" y="-5" type="line"/>
      <point x="498" y="2"/>
      <point x="548" y="22"/>
      <point x="577" y="60" type="curve" smooth="yes"/>
      <point x="605" y="98"/>
      <point x="615" y="154"/>
      <point x="615" y="234" type="curve" smooth="yes"/>
      <point x="615" y="326"/>
      <point x="595" y="378"/>
      <point x="559" y="407" type="curve" smooth="yes"/>
      <point x="522" y="435"/>
      <point x="468" y="440"/>
      <point x="399" y="440" type="curve" smooth="yes"/>
      <point x="348" y="440"/>
      <point x="316" y="430"/>
      <point x="293" y="419" type="curve"/>
      <point x="293" y="284" type="line"/>
      <point x="304" y="286"/>
      <point x="317" y="287"/>
      <point x="334" y="287" type="curve" smooth="yes"/>
      <point x="370" y="287"/>
      <point x="391" y="286"/>
      <point x="404" y="276" type="curve" smooth="yes"/>
      <point x="417" y="266"/>
      <point x="421" y="247"/>
      <point x="421" y="215" type="curve" smooth="yes"/>
    </contour>
    <contour>
      <point x="577" y="529" type="curve"/>
      <point x="577" y="672" type="line"/>
      <point x="517" y="685"/>
      <point x="424" y="696"/>
      <point x="339" y="696" type="curve" smooth="yes"/>
      <point x="323" y="696"/>
      <point x="308" y="696"/>
      <point x="293" y="695" type="curve"/>
      <point x="293" y="530" type="line"/>
      <point x="313" y="541"/>
      <point x="343" y="543"/>
      <point x="387" y="543" type="curve" smooth="yes"/>
      <point x="436" y="543"/>
      <point x="533" y="532"/>
    </contour>
  </outline>
</glyph>
<glyph name="colon" format="1">
  <advance width="330"/>
  <unicode hex="003A"/>
  <note>
    colon
  </note>
  <outline>
    <contour>
      <point x="64" y="347" type="line"/>
      <point x="266" y="347" type="line"/>
      <point x="266" y="510" type="line"/>
      <point x="64" y="510" type="line"/>
    </contour>
    <contour>
      <point x="64" y="0" type="line"/>
      <point x="266" y="0" type="line"/>
      <point x="266" y="163" type="line"/>
      <point x="64" y="163" type="line"/>
    </contour>
  </outline>
</glyph>
<glyph name="less" format="1">
  <advance width="541"/>
  <unicode hex="003C"/>
  <note>
    less
  </note>
  <outline>
    <contour>
      <point x="471" y="45" type="curve"/>
      <point x="471" y="179" type="line"/>
      <point x="236" y="253" type="line"/>
      <point x="471" y="327" type="line"/>
      <point x="471" y="461" type="line"/>
      <point x="71" y="319" type="line"/>
      <point x="71" y="187" type="line"/>
      <point x="88" y="181" type="line" smooth="yes"/>
      <point x="111" y="173"/>
      <point x="149" y="159"/>
      <point x="197" y="142" type="curve" smooth="yes"/>
      <point x="221" y="133"/>
      <point x="246" y="125"/>
      <point x="271" y="116" type="curve" smooth="yes"/>
      <point x="330" y="95"/>
      <point x="396" y="71"/>
    </contour>
  </outline>
</glyph>
<glyph name="equal" format="1">
  <advance width="540"/>
  <unicode hex="003D"/>
  <note>
    equal
  </note>
  <outline>
    <contour>
      <point x="70" y="286" type="line"/>
      <point x="470" y="286" type="line"/>
      <point x="470" y="420" type="line"/>
      <point x="70" y="420" type="line"/>
    </contour>
    <contour>
      <point x="70" y="86" type="line"/>
      <point x="470" y="86" type="line"/>
      <point x="470" y="220" type="line"/>
      <point x="70" y="220" type="line"/>
    </contour>
  </outline>
</glyph>
<glyph name="greater" format="1">
  <advance width="541"/>
  <unicode hex="003E"/>
  <note>
    greater
  </note>
  <outline>
    <contour>
      <point x="70" y="45" type="line"/>
      <point x="145" y="71"/>
      <point x="211" y="95"/>
      <point x="270" y="116" type="curve" smooth="yes"/>
      <point x="295" y="125"/>
      <point x="320" y="133"/>
      <point x="343" y="142" type="curve" smooth="yes"/>
      <point x="366" y="151"/>
      <point x="388" y="158"/>
      <point x="407" y="165" type="curve"/>
      <point x="429" y="172"/>
      <point x="450" y="180"/>
      <point x="470" y="187" type="curve"/>
      <point x="470" y="319" type="line"/>
      <point x="70" y="461" type="line"/>
      <point x="70" y="327" type="line"/>
      <point x="305" y="253" type="line"/>
      <point x="70" y="179" type="line"/>
    </contour>
  </outline>
</glyph>
<glyph name="at" format="1">
  <advance width="944"/>
  <unicode hex="0040"/>
  <note>
    at
  </note>
  <outline>
    <contour>
      <point x="70" y="314" type="curve"/>
      <point x="147" y="314" type="line"/>
      <point x="147" y="417"/>
      <point x="148" y="485"/>
      <point x="161" y="532" type="curve" smooth="yes"/>
      <point x="174" y="579"/>
      <point x="200" y="602"/>
      <point x="248" y="614" type="curve" smooth="yes"/>
      <point x="296" y="626"/>
      <point x="367" y="627"/>
      <point x="472" y="627" type="curve" smooth="yes"/>
      <point x="577" y="627"/>
      <point x="648" y="626"/>
      <point x="696" y="614" type="curve" smooth="yes"/>
      <point x="744" y="602"/>
      <point x="769" y="579"/>
      <point x="782" y="532" type="curve" smooth="yes"/>
      <point x="795" y="485"/>
      <point x="797" y="417"/>
      <point x="797" y="314" type="curve"/>
      <point x="874" y="314" type="line"/>
      <point x="874" y="427"/>
      <point x="872" y="507"/>
      <point x="854" y="564" type="curve" smooth="yes"/>
      <point x="836" y="620"/>
      <point x="804" y="653"/>
      <point x="744" y="672" type="curve" smooth="yes"/>
      <point x="684" y="691"/>
      <point x="597" y="696"/>
      <point x="472" y="696" type="curve" smooth="yes"/>
      <point x="345" y="696"/>
      <point x="259" y="691"/>
      <point x="200" y="672" type="curve" smooth="yes"/>
      <point x="140" y="653"/>
      <point x="107" y="620"/>
      <point x="90" y="564" type="curve" smooth="yes"/>
      <point x="73" y="507"/>
      <point x="70" y="427"/>
    </contour>
    <contour>
      <point x="472" y="-108" type="curve" smooth="yes"/>
      <point x="591" y="-108" type="line" smooth="yes"/>
      <point x="625" y="-108"/>
      <point x="655" y="-107"/>
      <point x="682" y="-106" type="curve"/>
      <point x="682" y="-36" type="line"/>
      <point x="671" y="-37"/>
      <point x="656" y="-37"/>
      <point x="639" y="-37" type="curve" smooth="yes"/>
      <point x="603" y="-38"/>
      <point x="563" y="-39"/>
      <point x="524" y="-39" type="curve" smooth="yes"/>
      <point x="472" y="-39" type="line" smooth="yes"/>
      <point x="367" y="-39"/>
      <point x="296" y="-38"/>
      <point x="248" y="-26" type="curve" smooth="yes"/>
      <point x="200" y="-14"/>
      <point x="174" y="9"/>
      <point x="161" y="56" type="curve" smooth="yes"/>
      <point x="148" y="103"/>
      <point x="147" y="171"/>
      <point x="147" y="274" type="curve"/>
      <point x="70" y="274" type="line"/>
      <point x="70" y="161"/>
      <point x="73" y="81"/>
      <point x="90" y="25" type="curve" smooth="yes"/>
      <point x="107" y="-32"/>
      <point x="140" y="-65"/>
      <point x="200" y="-84" type="curve" smooth="yes"/>
      <point x="259" y="-103"/>
      <point x="345" y="-108"/>
    </contour>
    <contour>
      <point x="387" y="70" type="curve" smooth="yes"/>
      <point x="422" y="70"/>
      <point x="452" y="72"/>
      <point x="480" y="95" type="curve"/>
      <point x="480" y="180" type="line"/>
      <point x="472" y="180" type="line" smooth="yes"/>
      <point x="460" y="180"/>
      <point x="451" y="181"/>
      <point x="445" y="182" type="curve" smooth="yes"/>
      <point x="438" y="183"/>
      <point x="434" y="186"/>
      <point x="431" y="189" type="curve" smooth="yes"/>
      <point x="425" y="195"/>
      <point x="425" y="204"/>
      <point x="425" y="220" type="curve" smooth="yes"/>
      <point x="425" y="229"/>
      <point x="425" y="237"/>
      <point x="426" y="242" type="curve"/>
      <point x="426" y="252"/>
      <point x="432" y="257"/>
      <point x="445" y="258" type="curve"/>
      <point x="472" y="258" type="line"/>
      <point x="480" y="258" type="line"/>
      <point x="480" y="335" type="line"/>
      <point x="457" y="336"/>
      <point x="429" y="337"/>
      <point x="406" y="337" type="curve" smooth="yes"/>
      <point x="350" y="337"/>
      <point x="315" y="329"/>
      <point x="295" y="309" type="curve" smooth="yes"/>
      <point x="274" y="288"/>
      <point x="267" y="254"/>
      <point x="267" y="203" type="curve" smooth="yes"/>
      <point x="267" y="111"/>
      <point x="304" y="70"/>
    </contour>
    <contour>
      <point x="517" y="75" type="line"/>
      <point x="735" y="75" type="line" smooth="yes"/>
      <point x="760" y="75"/>
      <point x="781" y="76"/>
      <point x="798" y="78" type="curve" smooth="yes"/>
      <point x="833" y="82"/>
      <point x="854" y="106"/>
      <point x="865" y="160" type="curve" smooth="yes"/>
      <point x="870" y="187"/>
      <point x="873" y="225"/>
      <point x="874" y="274" type="curve"/>
      <point x="797" y="274" type="line"/>
      <point x="797" y="242"/>
      <point x="796" y="217"/>
      <point x="795" y="200" type="curve"/>
      <point x="793" y="182"/>
      <point x="790" y="169"/>
      <point x="786" y="161" type="curve" smooth="yes"/>
      <point x="778" y="145"/>
      <point x="765" y="144"/>
      <point x="744" y="144" type="curve" smooth="yes"/>
      <point x="682" y="144" type="line"/>
      <point x="682" y="335" type="line" smooth="yes"/>
      <point x="682" y="399"/>
      <point x="679" y="445"/>
      <point x="651" y="475" type="curve" smooth="yes"/>
      <point x="623" y="505"/>
      <point x="571" y="518"/>
      <point x="472" y="518" type="curve" smooth="yes"/>
      <point x="396" y="518"/>
      <point x="333" y="510"/>
      <point x="292" y="503" type="curve"/>
      <point x="292" y="392" type="line"/>
      <point x="309" y="393"/>
      <point x="325" y="393"/>
      <point x="340" y="394" type="curve" smooth="yes"/>
      <point x="367" y="395"/>
      <point x="397" y="397"/>
      <point x="418" y="397" type="curve" smooth="yes"/>
      <point x="443" y="397"/>
      <point x="462" y="397"/>
      <point x="475" y="396" type="curve" smooth="yes"/>
      <point x="488" y="395"/>
      <point x="498" y="393"/>
      <point x="505" y="390" type="curve"/>
      <point x="517" y="383"/>
      <point x="517" y="370"/>
      <point x="517" y="345" type="curve" smooth="yes"/>
    </contour>
  </outline>
</glyph>
<glyph name="B" format="1">
  <advance width="670"/>
  <unicode hex="0042"/>
  <note>
    B
  </note>
  <outline>
    <contour>
      <point x="307" y="0" type="line"/>
      <point x="422" y="0" type="line" smooth="yes"/>
      <point x="569" y="0"/>
      <point x="628" y="64"/>
      <point x="628" y="184" type="curve" smooth="yes"/>
      <point x="628" y="240"/>
      <point x="617" y="277"/>
      <point x="596" y="302" type="curve" smooth="yes"/>
      <point x="575" y="326"/>
      <point x="543" y="340"/>
      <point x="503" y="349" type="curve"/>
      <point x="503" y="353" type="line"/>
      <point x="583" y="372"/>
      <point x="622" y="415"/>
      <point x="622" y="515" type="curve" smooth="yes"/>
      <point x="622" y="635"/>
      <point x="550" y="688"/>
      <point x="421" y="688" type="curve" smooth="yes"/>
      <point x="307" y="688" type="line"/>
      <point x="307" y="535" type="line"/>
      <point x="342" y="535" type="line" smooth="yes"/>
      <point x="375" y="535"/>
      <point x="396" y="534"/>
      <point x="406" y="526" type="curve" smooth="yes"/>
      <point x="416" y="518"/>
      <point x="418" y="504"/>
      <point x="418" y="479" type="curve" smooth="yes"/>
      <point x="418" y="455"/>
      <point x="416" y="441"/>
      <point x="406" y="433" type="curve" smooth="yes"/>
      <point x="396" y="425"/>
      <point x="375" y="424"/>
      <point x="342" y="424" type="curve" smooth="yes"/>
      <point x="307" y="424" type="line"/>
      <point x="307" y="271" type="line"/>
      <point x="348" y="271" type="line" smooth="yes"/>
      <point x="381" y="271"/>
      <point x="402" y="269"/>
      <point x="412" y="261" type="curve" smooth="yes"/>
      <point x="422" y="253"/>
      <point x="424" y="238"/>
      <point x="424" y="211" type="curve" smooth="yes"/>
      <point x="424" y="184"/>
      <point x="422" y="170"/>
      <point x="412" y="162" type="curve" smooth="yes"/>
      <point x="402" y="154"/>
      <point x="381" y="153"/>
      <point x="348" y="153" type="curve" smooth="yes"/>
      <point x="307" y="153" type="line"/>
    </contour>
    <contour>
      <point x="65" y="0" type="line"/>
      <point x="265" y="0" type="line"/>
      <point x="265" y="688" type="line"/>
      <point x="65" y="688" type="line"/>
    </contour>
  </outline>
</glyph>
<glyph name="C" format="1">
  <advance width="568"/>
  <unicode hex="0043"/>
  <note>
    C
  </note>
  <outline>
    <contour>
      <point x="344" y="-8" type="curve" smooth="yes"/>
      <point x="371" y="-8"/>
      <point x="396" y="-7"/>
      <point x="419" y="-5" type="curve" smooth="yes"/>
      <point x="463" y="-2"/>
      <point x="498" y="3"/>
      <point x="530" y="10" type="curve"/>
      <point x="530" y="155" type="line"/>
      <point x="518" y="153"/>
      <point x="505" y="151"/>
      <point x="491" y="150" type="curve"/>
      <point x="467" y="147"/>
      <point x="433" y="145"/>
      <point x="394" y="145" type="curve" smooth="yes"/>
      <point x="358" y="145"/>
      <point x="330" y="147"/>
      <point x="311" y="151" type="curve" smooth="yes"/>
      <point x="272" y="158"/>
      <point x="256" y="183"/>
      <point x="253" y="236" type="curve" smooth="yes"/>
      <point x="252" y="262"/>
      <point x="251" y="298"/>
      <point x="251" y="344" type="curve" smooth="yes"/>
      <point x="251" y="691" type="line"/>
      <point x="162" y="680"/>
      <point x="110" y="652"/>
      <point x="82" y="597" type="curve" smooth="yes"/>
      <point x="53" y="541"/>
      <point x="47" y="460"/>
      <point x="47" y="344" type="curve" smooth="yes"/>
      <point x="47" y="211"/>
      <point x="56" y="123"/>
      <point x="97" y="68" type="curve" smooth="yes"/>
      <point x="137" y="13"/>
      <point x="212" y="-8"/>
    </contour>
    <contour>
      <point x="293" y="532" type="line"/>
      <point x="314" y="541"/>
      <point x="346" y="543"/>
      <point x="394" y="543" type="curve" smooth="yes"/>
      <point x="415" y="543"/>
      <point x="448" y="541"/>
      <point x="476" y="538" type="curve" smooth="yes"/>
      <point x="493" y="536"/>
      <point x="509" y="534"/>
      <point x="526" y="533" type="curve"/>
      <point x="526" y="676" type="line"/>
      <point x="511" y="680"/>
      <point x="494" y="683"/>
      <point x="475" y="686" type="curve" smooth="yes"/>
      <point x="443" y="691"/>
      <point x="399" y="696"/>
      <point x="344" y="696" type="curve" smooth="yes"/>
      <point x="318" y="696" type="line" smooth="yes"/>
      <point x="309" y="696"/>
      <point x="301" y="696"/>
      <point x="293" y="695" type="curve"/>
    </contour>
    <contour>
      <point x="301" y="0" type="move" name="bottom"/>
    </contour>
    <contour>
      <point x="311" y="688" type="move" name="top"/>
    </contour>
  </outline>
</glyph>
<glyph name="D" format="1">
  <advance width="680"/>
  <unicode hex="0044"/>
  <note>
    D
  </note>
  <outline>
    <contour>
      <point x="307" y="0" type="line"/>
      <point x="315" y="0" type="line" smooth="yes"/>
      <point x="419" y="0"/>
      <point x="489" y="8"/>
      <point x="537" y="29" type="curve" smooth="yes"/>
      <point x="584" y="50"/>
      <point x="608" y="84"/>
      <point x="620" y="135" type="curve" smooth="yes"/>
      <point x="632" y="186"/>
      <point x="633" y="253"/>
      <point x="633" y="344" type="curve" smooth="yes"/>
      <point x="633" y="433"/>
      <point x="632" y="502"/>
      <point x="620" y="553" type="curve" smooth="yes"/>
      <point x="608" y="604"/>
      <point x="584" y="638"/>
      <point x="537" y="659" type="curve" smooth="yes"/>
      <point x="489" y="680"/>
      <point x="419" y="688"/>
      <point x="315" y="688" type="curve" smooth="yes"/>
      <point x="307" y="688" type="line"/>
      <point x="307" y="535" type="line"/>
      <point x="315" y="535" type="line" smooth="yes"/>
      <point x="344" y="535"/>
      <point x="366" y="534"/>
      <point x="381" y="532" type="curve" smooth="yes"/>
      <point x="412" y="527"/>
      <point x="424" y="504"/>
      <point x="427" y="453" type="curve" smooth="yes"/>
      <point x="428" y="427"/>
      <point x="429" y="391"/>
      <point x="429" y="344" type="curve" smooth="yes"/>
      <point x="429" y="297"/>
      <point x="428" y="261"/>
      <point x="427" y="236" type="curve" smooth="yes"/>
      <point x="426" y="210"/>
      <point x="422" y="191"/>
      <point x="415" y="179" type="curve" smooth="yes"/>
      <point x="401" y="154"/>
      <point x="372" y="153"/>
      <point x="315" y="153" type="curve" smooth="yes"/>
      <point x="307" y="153" type="line"/>
    </contour>
    <contour>
      <point x="65" y="0" type="line"/>
      <point x="265" y="0" type="line"/>
      <point x="265" y="688" type="line"/>
      <point x="65" y="688" type="line"/>
    </contour>
    <contour>
      <point x="186" y="348" type="move" name="center"/>
    </contour>
    <contour>
      <point x="323" y="688" type="move" name="top"/>
    </contour>
  </outline>
</glyph>
<glyph name="E" format="1">
  <advance width="616"/>
  <unicode hex="0045"/>
  <note>
    E
  </note>
  <outline>
    <contour>
      <point x="65" y="0" type="line"/>
      <point x="265" y="0" type="line"/>
      <point x="265" y="688" type="line"/>
      <point x="65" y="688" type="line"/>
    </contour>
    <contour>
      <point x="307" y="0" type="line"/>
      <point x="561" y="0" type="line"/>
      <point x="561" y="153" type="line"/>
      <point x="307" y="153" type="line"/>
    </contour>
    <contour>
      <point x="307" y="271" type="line"/>
      <point x="514" y="271" type="line"/>
      <point x="514" y="424" type="line"/>
      <point x="307" y="424" type="line"/>
    </contour>
    <contour>
      <point x="307" y="535" type="line"/>
      <point x="561" y="535" type="line"/>
      <point x="561" y="688" type="line"/>
      <point x="307" y="688" type="line"/>
    </contour>
    <contour>
      <point x="322" y="0" type="move" name="bottom"/>
    </contour>
    <contour>
      <point x="473" y="-4" type="move" name="ogonek"/>
    </contour>
    <contour>
      <point x="321" y="688" type="move" name="top"/>
    </contour>
  </outline>
</glyph>
<glyph name="F" format="1">
  <advance width="576"/>
  <unicode hex="0046"/>
  <note>
    F
  </note>
  <outline>
    <contour>
      <point x="65" y="0" type="line"/>
      <point x="265" y="0" type="line"/>
      <point x="265" y="688" type="line"/>
      <point x="65" y="688" type="line"/>
    </contour>
    <contour>
      <point x="307" y="251" type="line"/>
      <point x="504" y="251" type="line"/>
      <point x="504" y="404" type="line"/>
      <point x="307" y="404" type="line"/>
    </contour>
    <contour>
      <point x="307" y="535" type="line"/>
      <point x="541" y="535" type="line"/>
      <point x="541" y="688" type="line"/>
      <point x="307" y="688" type="line"/>
    </contour>
  </outline>
</glyph>
<glyph name="G" format="1">
  <advance width="660"/>
  <unicode hex="0047"/>
  <note>
    G
  </note>
  <outline>
    <contour>
      <point x="359" y="-8" type="curve" smooth="yes"/>
      <point x="369" y="-8" type="line"/>
      <point x="369" y="141" type="line"/>
      <point x="316" y="141"/>
      <point x="286" y="149"/>
      <point x="270" y="178" type="curve" smooth="yes"/>
      <point x="254" y="206"/>
      <point x="251" y="257"/>
      <point x="251" y="344" type="curve" smooth="yes"/>
      <point x="251" y="690" type="line"/>
      <point x="168" y="679"/>
      <point x="118" y="654"/>
      <point x="87" y="600" type="curve" smooth="yes"/>
      <point x="56" y="546"/>
      <point x="47" y="464"/>
      <point x="47" y="344" type="curve" smooth="yes"/>
      <point x="47" y="200"/>
      <point x="61" y="112"/>
      <point x="107" y="60" type="curve" smooth="yes"/>
      <point x="153" y="8"/>
      <point x="231" y="-8"/>
    </contour>
    <contour>
      <point x="411" y="-6" type="line"/>
      <point x="436" y="-5"/>
      <point x="460" y="-3"/>
      <point x="483" y="0" type="curve"/>
      <point x="528" y="4"/>
      <point x="565" y="9"/>
      <point x="600" y="17" type="curve"/>
      <point x="600" y="409" type="line"/>
      <point x="340" y="409" type="line"/>
      <point x="340" y="264" type="line"/>
      <point x="411" y="264" type="line"/>
    </contour>
    <contour>
      <point x="293" y="528" type="line"/>
      <point x="320" y="543"/>
      <point x="361" y="543"/>
      <point x="429" y="543" type="curve" smooth="yes"/>
      <point x="443" y="543"/>
      <point x="460" y="542"/>
      <point x="479" y="541" type="curve"/>
      <point x="498" y="539"/>
      <point x="517" y="537"/>
      <point x="534" y="536" type="curve"/>
      <point x="555" y="533"/>
      <point x="576" y="531"/>
      <point x="597" y="529" type="curve"/>
      <point x="597" y="672" type="line"/>
      <point x="574" y="677"/>
      <point x="550" y="681"/>
      <point x="524" y="684" type="curve"/>
      <point x="480" y="691"/>
      <point x="420" y="696"/>
      <point x="359" y="696" type="curve" smooth="yes"/>
      <point x="335" y="696"/>
      <point x="313" y="695"/>
      <point x="293" y="694" type="curve"/>
    </contour>
    <contour>
      <point x="347" y="0" type="move" name="bottom"/>
    </contour>
    <contour>
      <point x="355" y="688" type="move" name="top"/>
    </contour>
  </outline>
</glyph>
<glyph name="H" format="1">
  <advance width="716"/>
  <unicode hex="0048"/>
  <note>
    H
  </note>
  <outline>
    <contour>
      <point x="451" y="0" type="line"/>
      <point x="651" y="0" type="line"/>
      <point x="651" y="688" type="line"/>
      <point x="451" y="688" type="line"/>
      <point x="451" y="425" type="line"/>
      <point x="307" y="425" type="line"/>
      <point x="307" y="265" type="line"/>
      <point x="451" y="265" type="line"/>
    </contour>
    <contour>
      <point x="65" y="0" type="line"/>
      <point x="265" y="0" type="line"/>
      <point x="265" y="688" type="line"/>
      <point x="65" y="688" type="line"/>
    </contour>
    <contour>
      <point x="357" y="0" type="move" name="bottom"/>
    </contour>
    <contour>
      <point x="360" y="552" type="move" name="center"/>
    </contour>
    <contour>
      <point x="356" y="688" type="move" name="top"/>
    </contour>
  </outline>
</glyph>
<glyph name="J" format="1">
  <advance width="425"/>
  <unicode hex="004A"/>
  <note>
    J
  </note>
  <outline>
    <contour>
      <point x="20" y="0" type="line"/>
      <point x="129" y="0"/>
      <point x="204" y="1"/>
      <point x="255" y="14" type="curve" smooth="yes"/>
      <point x="306" y="27"/>
      <point x="332" y="53"/>
      <point x="347" y="102" type="curve" smooth="yes"/>
      <point x="362" y="151"/>
      <point x="363" y="225"/>
      <point x="363" y="334" type="curve" smooth="yes"/>
      <point x="363" y="688" type="line"/>
      <point x="163" y="688" type="line"/>
      <point x="163" y="266" type="line" smooth="yes"/>
      <point x="163" y="238"/>
      <point x="162" y="216"/>
      <point x="161" y="200" type="curve" smooth="yes"/>
      <point x="158" y="168"/>
      <point x="142" y="152"/>
      <point x="103" y="148" type="curve" smooth="yes"/>
      <point x="84" y="146"/>
      <point x="56" y="145"/>
      <point x="20" y="145" type="curve"/>
    </contour>
    <contour>
      <point x="261" y="688" type="move" name="top"/>
    </contour>
  </outline>
</glyph>
<glyph name="K" format="1">
  <advance width="683"/>
  <unicode hex="004B"/>
  <note>
    K
  </note>
  <outline>
    <contour>
      <point x="462" y="0" type="line"/>
      <point x="686" y="0" type="line"/>
      <point x="446" y="364" type="line"/>
      <point x="683" y="688" type="line"/>
      <point x="465" y="688" type="line"/>
      <point x="307" y="456" type="line"/>
      <point x="307" y="241" type="line"/>
    </contour>
    <contour>
      <point x="65" y="0" type="line"/>
      <point x="265" y="0" type="line"/>
      <point x="265" y="688" type="line"/>
      <point x="65" y="688" type="line"/>
    </contour>
    <contour>
      <point x="344" y="0" type="move" name="bottom"/>
    </contour>
  </outline>
</glyph>
<glyph name="L" format="1">
  <advance width="541"/>
  <unicode hex="004C"/>
  <note>
    L
  </note>
  <outline>
    <contour>
      <point x="65" y="0" type="line"/>
      <point x="265" y="0" type="line"/>
      <point x="265" y="688" type="line"/>
      <point x="65" y="688" type="line"/>
    </contour>
    <contour>
      <point x="307" y="0" type="line"/>
      <point x="521" y="0" type="line"/>
      <point x="521" y="161" type="line"/>
      <point x="307" y="161" type="line"/>
    </contour>
    <contour>
      <point x="285" y="0" type="move" name="bottom"/>
    </contour>
    <contour>
      <point x="176" y="382" type="move" name="center"/>
    </contour>
    <contour>
      <point x="163" y="688" type="move" name="top"/>
    </contour>
    <contour>
      <point x="178" y="604" type="move" name="topright"/>
    </contour>
  </outline>
</glyph>
<glyph name="N" format="1">
  <advance width="716"/>
  <unicode hex="004E"/>
  <note>
    N
  </note>
  <outline>
    <contour>
      <point x="452" y="0" type="line"/>
      <point x="651" y="0" type="line"/>
      <point x="651" y="29" type="line"/>
      <point x="265" y="688" type="line"/>
      <point x="65" y="688" type="line"/>
      <point x="65" y="660" type="line"/>
    </contour>
    <contour>
      <point x="65" y="0" type="line"/>
      <point x="255" y="0" type="line"/>
      <point x="255" y="252" type="line"/>
      <point x="65" y="577" type="line"/>
    </contour>
    <contour>
      <point x="651" y="112" type="line"/>
      <point x="651" y="688" type="line"/>
      <point x="461" y="688" type="line"/>
      <point x="461" y="437" type="line"/>
    </contour>
    <contour>
      <point x="356" y="0" type="move" name="bottom"/>
    </contour>
    <contour>
      <point x="359" y="688" type="move" name="top"/>
    </contour>
  </outline>
</glyph>
<glyph name="O" format="1">
  <advance width="698"/>
  <unicode hex="004F"/>
  <note>
    O
  </note>
  <outline>
    <contour>
      <point x="447" y="-4" type="line"/>
      <point x="547" y="5"/>
      <point x="598" y="34"/>
      <point x="624" y="89" type="curve" smooth="yes"/>
      <point x="650" y="144"/>
      <point x="651" y="227"/>
      <point x="651" y="344" type="curve" smooth="yes"/>
      <point x="651" y="477"/>
      <point x="650" y="567"/>
      <point x="612" y="621" type="curve" smooth="yes"/>
      <point x="574" y="675"/>
      <point x="497" y="696"/>
      <point x="349" y="696" type="curve" smooth="yes"/>
      <point x="320" y="696" type="line" smooth="yes"/>
      <point x="311" y="696"/>
      <point x="302" y="696"/>
      <point x="293" y="695" type="curve"/>
      <point x="293" y="539" type="line"/>
      <point x="306" y="543"/>
      <point x="325" y="543"/>
      <point x="349" y="543" type="curve" smooth="yes"/>
      <point x="374" y="543"/>
      <point x="393" y="542"/>
      <point x="406" y="540" type="curve" smooth="yes"/>
      <point x="433" y="535"/>
      <point x="444" y="512"/>
      <point x="446" y="458" type="curve" smooth="yes"/>
      <point x="447" y="431"/>
      <point x="447" y="393"/>
      <point x="447" y="344" type="curve" smooth="yes"/>
    </contour>
    <contour>
      <point x="349" y="-8" type="curve" smooth="yes"/>
      <point x="378" y="-8" type="line" smooth="yes"/>
      <point x="387" y="-8"/>
      <point x="396" y="-8"/>
      <point x="405" y="-7" type="curve"/>
      <point x="405" y="148" type="line"/>
      <point x="390" y="145"/>
      <point x="373" y="145"/>
      <point x="349" y="145" type="curve" smooth="yes"/>
      <point x="324" y="145"/>
      <point x="305" y="146"/>
      <point x="292" y="149" type="curve"/>
      <point x="265" y="153"/>
      <point x="255" y="177"/>
      <point x="253" y="231" type="curve" smooth="yes"/>
      <point x="252" y="258"/>
      <point x="251" y="295"/>
      <point x="251" y="344" type="curve" smooth="yes"/>
      <point x="251" y="692" type="line"/>
      <point x="151" y="681"/>
      <point x="100" y="654"/>
      <point x="74" y="599" type="curve" smooth="yes"/>
      <point x="48" y="543"/>
      <point x="47" y="461"/>
      <point x="47" y="344" type="curve" smooth="yes"/>
      <point x="47" y="255"/>
      <point x="47" y="186"/>
      <point x="59" y="134" type="curve" smooth="yes"/>
      <point x="71" y="82"/>
      <point x="94" y="46"/>
      <point x="139" y="24" type="curve" smooth="yes"/>
      <point x="183" y="2"/>
      <point x="250" y="-8"/>
    </contour>
    <contour>
      <point x="353" y="0" type="move" name="bottom"/>
    </contour>
    <contour>
      <point x="345" y="335" type="move" name="center"/>
    </contour>
    <contour>
      <point x="317" y="-11" type="move" name="ogonek"/>
    </contour>
    <contour>
      <point x="346" y="688" type="move" name="top"/>
    </contour>
    <contour>
      <point x="422" y="688" type="move" name="topright"/>
    </contour>
  </outline>
</glyph>
<glyph name="S" format="1">
  <advance width="612"/>
  <unicode hex="0053"/>
  <note>
    S
  </note>
  <outline>
    <contour>
      <point x="374" y="-7" type="line"/>
      <point x="431" y="-3"/>
      <point x="482" y="7"/>
      <point x="518" y="40" type="curve" smooth="yes"/>
      <point x="553" y="72"/>
      <point x="574" y="126"/>
      <point x="574" y="218" type="curve" smooth="yes"/>
      <point x="574" y="306"/>
      <point x="557" y="356"/>
      <point x="529" y="385" type="curve" smooth="yes"/>
      <point x="501" y="413"/>
      <point x="461" y="421"/>
      <point x="413" y="428" type="curve" smooth="yes"/>
      <point x="275" y="445" type="line"/>
      <point x="256" y="446"/>
      <point x="248" y="449"/>
      <point x="244" y="457" type="curve"/>
      <point x="239" y="464"/>
      <point x="239" y="474"/>
      <point x="239" y="493" type="curve" smooth="yes"/>
      <point x="239" y="694" type="line"/>
      <point x="180" y="690"/>
      <point x="130" y="678"/>
      <point x="95" y="647" type="curve" smooth="yes"/>
      <point x="59" y="616"/>
      <point x="38" y="567"/>
      <point x="38" y="487" type="curve" smooth="yes"/>
      <point x="38" y="424"/>
      <point x="43" y="374"/>
      <point x="67" y="338" type="curve" smooth="yes"/>
      <point x="91" y="301"/>
      <point x="135" y="276"/>
      <point x="214" y="267" type="curve" smooth="yes"/>
      <point x="337" y="252" type="line" smooth="yes"/>
      <point x="368" y="248"/>
      <point x="374" y="244"/>
      <point x="374" y="203" type="curve" smooth="yes"/>
    </contour>
    <contour>
      <point x="321" y="-8" type="curve" smooth="yes"/>
      <point x="332" y="-8" type="line"/>
      <point x="332" y="148" type="line"/>
      <point x="315" y="145"/>
      <point x="293" y="145"/>
      <point x="261" y="145" type="curve" smooth="yes"/>
      <point x="240" y="145"/>
      <point x="217" y="146"/>
      <point x="193" y="147" type="curve" smooth="yes"/>
      <point x="145" y="150"/>
      <point x="103" y="153"/>
      <point x="58" y="157" type="curve"/>
      <point x="58" y="11" type="line"/>
      <point x="81" y="7"/>
      <point x="107" y="4"/>
      <point x="135" y="1" type="curve" smooth="yes"/>
      <point x="183" y="-4"/>
      <point x="248" y="-8"/>
    </contour>
    <contour>
      <point x="539" y="530" type="curve"/>
      <point x="539" y="674" type="line"/>
      <point x="520" y="678"/>
      <point x="499" y="682"/>
      <point x="476" y="685" type="curve" smooth="yes"/>
      <point x="436" y="690"/>
      <point x="378" y="696"/>
      <point x="306" y="696" type="curve" smooth="yes"/>
      <point x="281" y="696" type="line"/>
      <point x="281" y="541" type="line"/>
      <point x="297" y="542"/>
      <point x="318" y="543"/>
      <point x="349" y="543" type="curve" smooth="yes"/>
      <point x="375" y="543"/>
      <point x="400" y="542"/>
      <point x="423" y="541" type="curve"/>
      <point x="469" y="537"/>
      <point x="504" y="534"/>
    </contour>
    <contour>
      <point x="291" y="0" type="move" name="bottom"/>
    </contour>
    <contour>
      <point x="310" y="688" type="move" name="top"/>
    </contour>
  </outline>
</glyph>
<glyph name="T" format="1">
  <advance width="581"/>
  <unicode hex="0054"/>
  <note>
    T
  </note>
  <outline>
    <contour>
      <point x="190" y="0" type="line"/>
      <point x="390" y="0" type="line"/>
      <point x="390" y="488" type="line"/>
      <point x="190" y="488" type="line"/>
    </contour>
    <contour>
      <point x="9" y="528" type="line"/>
      <point x="572" y="528" type="line"/>
      <point x="572" y="688" type="line"/>
      <point x="9" y="688" type="line"/>
    </contour>
    <contour>
      <point x="290" y="0" type="move" name="bottom"/>
    </contour>
    <contour>
      <point x="296" y="293" type="move" name="center"/>
    </contour>
    <contour>
      <point x="290" y="688" type="move" name="top"/>
    </contour>
  </outline>
</glyph>
<glyph name="U" format="1">
  <advance width="690"/>
  <unicode hex="0055"/>
  <note>
    U
  </note>
  <outline>
    <contour>
      <point x="345" y="-8" type="curve" smooth="yes"/>
      <point x="366" y="-8" type="line" smooth="yes"/>
      <point x="373" y="-8"/>
      <point x="379" y="-8"/>
      <point x="386" y="-7" type="curve"/>
      <point x="386" y="147" type="line"/>
      <point x="381" y="146"/>
      <point x="375" y="145"/>
      <point x="368" y="145" type="curve" smooth="yes"/>
      <point x="345" y="145" type="line" smooth="yes"/>
      <point x="324" y="145"/>
      <point x="308" y="146"/>
      <point x="297" y="149" type="curve"/>
      <point x="274" y="153"/>
      <point x="266" y="168"/>
      <point x="264" y="203" type="curve" smooth="yes"/>
      <point x="263" y="220"/>
      <point x="262" y="244"/>
      <point x="262" y="274" type="curve" smooth="yes"/>
      <point x="262" y="688" type="line"/>
      <point x="62" y="688" type="line"/>
      <point x="62" y="314" type="line" smooth="yes"/>
      <point x="62" y="195"/>
      <point x="63" y="115"/>
      <point x="99" y="64" type="curve" smooth="yes"/>
      <point x="135" y="13"/>
      <point x="205" y="-8"/>
    </contour>
    <contour>
      <point x="428" y="-5" type="line"/>
      <point x="525" y="3"/>
      <point x="576" y="30"/>
      <point x="602" y="82" type="curve" smooth="yes"/>
      <point x="628" y="133"/>
      <point x="628" y="209"/>
      <point x="628" y="314" type="curve" smooth="yes"/>
      <point x="628" y="688" type="line"/>
      <point x="428" y="688" type="line"/>
    </contour>
    <contour>
      <point x="353" y="0" type="move" name="bottom"/>
    </contour>
    <contour>
      <point x="298" y="-11" type="move" name="ogonek"/>
    </contour>
    <contour>
      <point x="345" y="688" type="move" name="top"/>
    </contour>
    <contour>
      <point x="509" y="688" type="move" name="topright"/>
    </contour>
  </outline>
</glyph>
<glyph name="V" format="1">
  <advance width="663"/>
  <unicode hex="0056"/>
  <note>
    V
  </note>
  <outline>
    <contour>
      <point x="209" y="0" type="line"/>
      <point x="396" y="0" type="line"/>
      <point x="209" y="688" type="line"/>
      <point x="5" y="688" type="line"/>
      <point x="107" y="343" type="line" smooth="yes"/>
      <point x="120" y="300"/>
      <point x="132" y="258"/>
      <point x="145" y="217" type="curve" smooth="yes"/>
      <point x="177" y="107" type="line" smooth="yes"/>
      <point x="186" y="74"/>
      <point x="194" y="48"/>
      <point x="200" y="29" type="curve" smooth="yes"/>
    </contour>
    <contour>
      <point x="440" y="0" type="line"/>
      <point x="454" y="0" type="line"/>
      <point x="463" y="29" type="line" smooth="yes"/>
      <point x="469" y="48"/>
      <point x="477" y="74"/>
      <point x="486" y="107" type="curve" smooth="yes"/>
      <point x="495" y="139"/>
      <point x="506" y="176"/>
      <point x="519" y="217" type="curve" smooth="yes"/>
      <point x="531" y="258"/>
      <point x="543" y="300"/>
      <point x="556" y="343" type="curve" smooth="yes"/>
      <point x="658" y="688" type="line"/>
      <point x="458" y="688" type="line"/>
      <point x="357" y="305" type="line"/>
    </contour>
  </outline>
</glyph>
<glyph name="bracketleft" format="1">
  <advance width="399"/>
  <unicode hex="005B"/>
  <note>
    bracketleft
  </note>
  <outline>
    <contour>
      <point x="65" y="315" type="line"/>
      <point x="235" y="315" type="line"/>
      <point x="235" y="626" type="line"/>
      <point x="354" y="630" type="line"/>
      <point x="354" y="743" type="line"/>
      <point x="65" y="743" type="line"/>
    </contour>
    <contour>
      <point x="65" y="-150" type="line"/>
      <point x="354" y="-150" type="line"/>
      <point x="354" y="-37" type="line"/>
      <point x="235" y="-33" type="line"/>
      <point x="235" y="275" type="line"/>
      <point x="65" y="275" type="line"/>
    </contour>
  </outline>
</glyph>
<glyph name="backslash" format="1">
  <advance width="429"/>
  <unicode hex="005C"/>
  <note>
    backslash
  </note>
  <outline>
    <contour>
      <point x="280" y="-55" type="line"/>
      <point x="440" y="-55" type="line"/>
      <point x="150" y="743" type="line"/>
      <point x="-11" y="743" type="line"/>
    </contour>
  </outline>
</glyph>
<glyph name="bracketright" format="1">
  <advance width="399"/>
  <unicode hex="005D"/>
  <note>
    bracketright
  </note>
  <outline>
    <contour>
      <point x="164" y="315" type="line"/>
      <point x="334" y="315" type="line"/>
      <point x="334" y="743" type="line"/>
      <point x="45" y="743" type="line"/>
      <point x="45" y="630" type="line"/>
      <point x="164" y="626" type="line"/>
    </contour>
    <contour>
      <point x="45" y="-150" type="line"/>
      <point x="334" y="-150" type="line"/>
      <point x="334" y="275" type="line"/>
      <point x="164" y="275" type="line"/>
      <point x="164" y="-33" type="line"/>
      <point x="45" y="-37" type="line"/>
    </contour>
  </outline>
</glyph>
<glyph name="underscore" format="1">
  <advance width="400"/>
  <unicode hex="005F"/>
  <note>
    underscore
  </note>
  <outline>
    <contour>
      <point x="0" y="-190" type="line"/>
      <point x="400" y="-190" type="line"/>
      <point x="400" y="-57" type="line"/>
      <point x="0" y="-57" type="line"/>
    </contour>
  </outline>
</glyph>
<glyph name="a" format="1">
  <advance width="558"/>
  <unicode hex="0061"/>
  <note>
    a
  </note>
  <outline>
    <contour>
      <point x="318" y="0" type="line"/>
      <point x="503" y="0" type="line"/>
      <point x="503" y="304" type="line" smooth="yes"/>
      <point x="503" y="380"/>
      <point x="500" y="433"/>
      <point x="469" y="468" type="curve" smooth="yes"/>
      <point x="437" y="503"/>
      <point x="378" y="518"/>
      <point x="266" y="518" type="curve" smooth="yes"/>
      <point x="181" y="518"/>
      <point x="110" y="509"/>
      <point x="63" y="500" type="curve"/>
      <point x="63" y="370" type="line"/>
      <point x="116" y="373" type="line"/>
      <point x="147" y="376"/>
      <point x="181" y="377"/>
      <point x="205" y="377" type="curve" smooth="yes"/>
      <point x="233" y="377"/>
      <point x="255" y="377"/>
      <point x="270" y="376" type="curve" smooth="yes"/>
      <point x="285" y="375"/>
      <point x="297" y="373"/>
      <point x="304" y="369" type="curve" smooth="yes"/>
      <point x="318" y="361"/>
      <point x="318" y="345"/>
      <point x="318" y="316" type="curve" smooth="yes"/>
    </contour>
    <contour>
      <point x="170" y="-7" type="curve" smooth="yes"/>
      <point x="209" y="-7"/>
      <point x="244" y="-4"/>
      <point x="276" y="21" type="curve"/>
      <point x="276" y="123" type="line"/>
      <point x="266" y="123" type="line" smooth="yes"/>
      <point x="253" y="123"/>
      <point x="243" y="124"/>
      <point x="236" y="125" type="curve" smooth="yes"/>
      <point x="229" y="126"/>
      <point x="224" y="129"/>
      <point x="221" y="133" type="curve"/>
      <point x="215" y="140"/>
      <point x="214" y="150"/>
      <point x="214" y="169" type="curve" smooth="yes"/>
      <point x="214" y="180"/>
      <point x="214" y="188"/>
      <point x="215" y="194" type="curve"/>
      <point x="216" y="206"/>
      <point x="222" y="212"/>
      <point x="236" y="213" type="curve"/>
      <point x="243" y="214"/>
      <point x="253" y="214"/>
      <point x="266" y="214" type="curve" smooth="yes"/>
      <point x="276" y="214" type="line"/>
      <point x="276" y="303" type="line"/>
      <point x="245" y="304"/>
      <point x="209" y="305"/>
      <point x="192" y="305" type="curve" smooth="yes"/>
      <point x="128" y="305"/>
      <point x="89" y="296"/>
      <point x="66" y="272" type="curve" smooth="yes"/>
      <point x="42" y="248"/>
      <point x="35" y="209"/>
      <point x="35" y="148" type="curve" smooth="yes"/>
      <point x="35" y="45"/>
      <point x="78" y="-7"/>
    </contour>
    <contour>
      <point x="268" y="0" type="move" name="bottom"/>
    </contour>
    <contour>
      <point x="415" y="-4" type="move" name="ogonek"/>
    </contour>
    <contour>
      <point x="284" y="510" type="move" name="top"/>
    </contour>
  </outline>
</glyph>
<glyph name="b" format="1">
  <advance width="578"/>
  <unicode hex="0062"/>
  <note>
    b
  </note>
  <outline>
    <contour>
      <point x="57" y="0" type="line"/>
      <point x="242" y="0" type="line"/>
      <point x="242" y="743" type="line"/>
      <point x="57" y="743" type="line"/>
    </contour>
    <contour>
      <point x="386" y="-7" type="curve" smooth="yes"/>
      <point x="438" y="-7"/>
      <point x="476" y="8"/>
      <point x="501" y="48" type="curve" smooth="yes"/>
      <point x="525" y="88"/>
      <point x="536" y="153"/>
      <point x="536" y="253" type="curve" smooth="yes"/>
      <point x="536" y="352"/>
      <point x="525" y="418"/>
      <point x="501" y="459" type="curve" smooth="yes"/>
      <point x="476" y="500"/>
      <point x="438" y="517"/>
      <point x="386" y="517" type="curve" smooth="yes"/>
      <point x="343" y="517"/>
      <point x="312" y="513"/>
      <point x="284" y="490" type="curve"/>
      <point x="284" y="363" type="line"/>
      <point x="295" y="363" type="line" smooth="yes"/>
      <point x="308" y="363"/>
      <point x="319" y="362"/>
      <point x="326" y="361" type="curve"/>
      <point x="340" y="358"/>
      <point x="346" y="346"/>
      <point x="347" y="317" type="curve" smooth="yes"/>
      <point x="348" y="302"/>
      <point x="348" y="282"/>
      <point x="348" y="255" type="curve" smooth="yes"/>
      <point x="348" y="228"/>
      <point x="348" y="208"/>
      <point x="347" y="193" type="curve" smooth="yes"/>
      <point x="346" y="178"/>
      <point x="344" y="168"/>
      <point x="341" y="161" type="curve"/>
      <point x="334" y="148"/>
      <point x="322" y="147"/>
      <point x="295" y="147" type="curve" smooth="yes"/>
      <point x="284" y="147" type="line"/>
      <point x="284" y="20" type="line"/>
      <point x="312" y="-1"/>
      <point x="345" y="-7"/>
    </contour>
  </outline>
</glyph>
<glyph name="g" format="1">
  <advance width="578"/>
  <unicode hex="0067"/>
  <note>
    g
  </note>
  <outline>
    <contour>
      <point x="259" y="-206" type="curve" smooth="yes"/>
      <point x="383" y="-206"/>
      <point x="450" y="-185"/>
      <point x="484" y="-141" type="curve" smooth="yes"/>
      <point x="518" y="-98"/>
      <point x="521" y="-33"/>
      <point x="521" y="56" type="curve" smooth="yes"/>
      <point x="521" y="510" type="line"/>
      <point x="336" y="510" type="line"/>
      <point x="336" y="23" type="line" smooth="yes"/>
      <point x="336" y="1"/>
      <point x="335" y="-16"/>
      <point x="334" y="-28" type="curve"/>
      <point x="330" y="-52"/>
      <point x="316" y="-61"/>
      <point x="283" y="-63" type="curve" smooth="yes"/>
      <point x="266" y="-64"/>
      <point x="243" y="-65"/>
      <point x="213" y="-65" type="curve" smooth="yes"/>
      <point x="79" y="-65" type="line"/>
      <point x="79" y="-194" type="line"/>
      <point x="139" y="-200" type="line" smooth="yes"/>
      <point x="174" y="-203"/>
      <point x="218" y="-206"/>
    </contour>
    <contour>
      <point x="192" y="3" type="curve" smooth="yes"/>
      <point x="235" y="3"/>
      <point x="266" y="7"/>
      <point x="294" y="30" type="curve"/>
      <point x="294" y="157" type="line"/>
      <point x="283" y="157" type="line" smooth="yes"/>
      <point x="270" y="157"/>
      <point x="260" y="158"/>
      <point x="253" y="159" type="curve"/>
      <point x="239" y="162"/>
      <point x="232" y="173"/>
      <point x="231" y="201" type="curve"/>
      <point x="230" y="215"/>
      <point x="230" y="235"/>
      <point x="230" y="260" type="curve" smooth="yes"/>
      <point x="230" y="285"/>
      <point x="230" y="305"/>
      <point x="231" y="319" type="curve" smooth="yes"/>
      <point x="232" y="333"/>
      <point x="234" y="343"/>
      <point x="237" y="350" type="curve"/>
      <point x="244" y="362"/>
      <point x="256" y="363"/>
      <point x="283" y="363" type="curve" smooth="yes"/>
      <point x="294" y="363" type="line"/>
      <point x="294" y="489" type="line"/>
      <point x="266" y="512"/>
      <point x="233" y="517"/>
      <point x="192" y="517" type="curve" smooth="yes"/>
      <point x="140" y="517"/>
      <point x="102" y="502"/>
      <point x="78" y="463" type="curve" smooth="yes"/>
      <point x="53" y="424"/>
      <point x="42" y="359"/>
      <point x="42" y="262" type="curve" smooth="yes"/>
      <point x="42" y="165"/>
      <point x="53" y="100"/>
      <point x="78" y="60" type="curve" smooth="yes"/>
      <point x="102" y="19"/>
      <point x="140" y="3"/>
    </contour>
    <contour>
      <point x="295" y="-160" type="move" name="bottom"/>
    </contour>
    <contour>
      <point x="291" y="510" type="move" name="top"/>
    </contour>
  </outline>
</glyph>
<glyph name="h" format="1">
  <advance width="588"/>
  <unicode hex="0068"/>
  <note>
    h
  </note>
  <outline>
    <contour>
      <point x="57" y="0" type="line"/>
      <point x="242" y="0" type="line"/>
      <point x="242" y="743" type="line"/>
      <point x="57" y="743" type="line"/>
    </contour>
    <contour>
      <point x="346" y="0" type="line"/>
      <point x="531" y="0" type="line"/>
      <point x="531" y="319" type="line" smooth="yes"/>
      <point x="531" y="378"/>
      <point x="527" y="427"/>
      <point x="507" y="462" type="curve" smooth="yes"/>
      <point x="487" y="497"/>
      <point x="450" y="517"/>
      <point x="386" y="517" type="curve" smooth="yes"/>
      <point x="350" y="517"/>
      <point x="315" y="510"/>
      <point x="284" y="485" type="curve"/>
      <point x="284" y="363" type="line"/>
      <point x="294" y="363" type="line" smooth="yes"/>
      <point x="319" y="363"/>
      <point x="334" y="363"/>
      <point x="340" y="348" type="curve" smooth="yes"/>
      <point x="343" y="340"/>
      <point x="344" y="328"/>
      <point x="345" y="311" type="curve" smooth="yes"/>
      <point x="346" y="294"/>
      <point x="346" y="271"/>
      <point x="346" y="241" type="curve" smooth="yes"/>
    </contour>
    <contour>
      <point x="293" y="0" type="move" name="bottom"/>
    </contour>
    <contour>
      <point x="183" y="618" type="move" name="center"/>
    </contour>
    <contour>
      <point x="143" y="750" type="move" name="top"/>
    </contour>
  </outline>
</glyph>
<glyph name="i" format="1">
  <advance width="299"/>
  <unicode hex="0069"/>
  <note>
    i
  </note>
  <outline>
    <contour>
      <point x="57" y="0" type="line"/>
      <point x="242" y="0" type="line"/>
      <point x="242" y="510" type="line"/>
      <point x="57" y="510" type="line"/>
    </contour>
    <contour>
      <point x="57" y="599" type="line"/>
      <point x="242" y="599" type="line"/>
      <point x="242" y="743" type="line"/>
      <point x="57" y="743" type="line"/>
    </contour>
    <contour>
      <point x="150" y="0" type="move" name="bottom"/>
    </contour>
    <contour>
      <point x="154" y="-4" type="move" name="ogonek"/>
    </contour>
  </outline>
</glyph>
<glyph name="s" format="1">
  <advance width="498"/>
  <unicode hex="0073"/>
  <note>
    s
  </note>
  <outline>
    <contour>
      <point x="290" y="-7" type="line"/>
      <point x="339" y="-6"/>
      <point x="382" y="3"/>
      <point x="414" y="27" type="curve" smooth="yes"/>
      <point x="445" y="51"/>
      <point x="463" y="93"/>
      <point x="463" y="161" type="curve" smooth="yes"/>
      <point x="463" y="225"/>
      <point x="453" y="263"/>
      <point x="434" y="284" type="curve" smooth="yes"/>
      <point x="415" y="305"/>
      <point x="389" y="313"/>
      <point x="357" y="317" type="curve" smooth="yes"/>
      <point x="237" y="333" type="line" smooth="yes"/>
      <point x="208" y="337"/>
      <point x="208" y="341"/>
      <point x="208" y="360" type="curve" smooth="yes"/>
      <point x="208" y="517" type="line"/>
      <point x="157" y="514"/>
      <point x="115" y="505"/>
      <point x="84" y="482" type="curve" smooth="yes"/>
      <point x="53" y="458"/>
      <point x="35" y="421"/>
      <point x="35" y="362" type="curve" smooth="yes"/>
      <point x="35" y="315"/>
      <point x="38" y="277"/>
      <point x="55" y="249" type="curve" smooth="yes"/>
      <point x="71" y="221"/>
      <point x="101" y="203"/>
      <point x="156" y="195" type="curve" smooth="yes"/>
      <point x="264" y="180" type="line" smooth="yes"/>
      <point x="284" y="177"/>
      <point x="290" y="176"/>
      <point x="290" y="155" type="curve" smooth="yes"/>
    </contour>
    <contour>
      <point x="248" y="-8" type="curve"/>
      <point x="248" y="129" type="line"/>
      <point x="213" y="129" type="line" smooth="yes"/>
      <point x="196" y="129"/>
      <point x="178" y="130"/>
      <point x="159" y="131" type="curve" smooth="yes"/>
      <point x="121" y="133"/>
      <point x="87" y="135"/>
      <point x="51" y="139" type="curve"/>
      <point x="51" y="11" type="line"/>
      <point x="68" y="8"/>
      <point x="87" y="5"/>
      <point x="108" y="2" type="curve" smooth="yes"/>
      <point x="143" y="-3"/>
      <point x="192" y="-7"/>
    </contour>
    <contour>
      <point x="435" y="371" type="curve"/>
      <point x="435" y="499" type="line"/>
      <point x="420" y="502"/>
      <point x="404" y="505"/>
      <point x="385" y="508" type="curve" smooth="yes"/>
      <point x="353" y="513"/>
      <point x="306" y="518"/>
      <point x="250" y="518" type="curve"/>
      <point x="250" y="382" type="line"/>
      <point x="283" y="382" type="line" smooth="yes"/>
      <point x="315" y="382"/>
      <point x="352" y="379"/>
      <point x="383" y="376" type="curve" smooth="yes"/>
      <point x="400" y="374"/>
      <point x="418" y="372"/>
    </contour>
    <contour>
      <point x="242" y="0" type="move" name="bottom"/>
    </contour>
    <contour>
      <point x="245" y="510" type="move" name="top"/>
    </contour>
  </outline>
</glyph>
<glyph name="u" format="1">
  <advance width="586"/>
  <unicode hex="0075"/>
  <note>
    u
  </note>
  <outline>
    <contour>
      <point x="200" y="-7" type="curve" smooth="yes"/>
      <point x="235" y="-7"/>
      <point x="271" y="-1"/>
      <point x="302" y="22" type="curve"/>
      <point x="302" y="147" type="line"/>
      <point x="292" y="147" type="line" smooth="yes"/>
      <point x="265" y="147"/>
      <point x="253" y="147"/>
      <point x="247" y="163" type="curve"/>
      <point x="244" y="170"/>
      <point x="242" y="182"/>
      <point x="241" y="199" type="curve" smooth="yes"/>
      <point x="240" y="216"/>
      <point x="240" y="239"/>
      <point x="240" y="269" type="curve" smooth="yes"/>
      <point x="240" y="510" type="line"/>
      <point x="55" y="510" type="line"/>
      <point x="55" y="191" type="line" smooth="yes"/>
      <point x="55" y="132"/>
      <point x="59" y="83"/>
      <point x="79" y="48" type="curve" smooth="yes"/>
      <point x="99" y="13"/>
      <point x="136" y="-7"/>
    </contour>
    <contour>
      <point x="344" y="0" type="line"/>
      <point x="529" y="0" type="line"/>
      <point x="529" y="510" type="line"/>
      <point x="344" y="510" type="line"/>
    </contour>
    <contour>
      <point x="297" y="0" type="move" name="bottom"/>
    </contour>
    <contour>
      <point x="441" y="-4" type="move" name="ogonek"/>
    </contour>
    <contour>
      <point x="294" y="510" type="move" name="top"/>
    </contour>
    <contour>
      <point x="422" y="510" type="move" name="topright"/>
    </contour>
  </outline>
</glyph>
<glyph name="v" format="1">
  <advance width="551"/>
  <unicode hex="0076"/>
  <note>
    v
  </note>
  <outline>
    <contour>
      <point x="159" y="0" type="line"/>
      <point x="336" y="0" type="line"/>
      <point x="199" y="510" type="line"/>
      <point x="10" y="510" type="line"/>
    </contour>
    <contour>
      <point x="380" y="0" type="line"/>
      <point x="392" y="0" type="line"/>
      <point x="541" y="510" type="line"/>
      <point x="359" y="510" type="line"/>
      <point x="307" y="270" type="line"/>
    </contour>
  </outline>
</glyph>
<glyph name="w" format="1">
  <advance width="846"/>
  <unicode hex="0077"/>
  <note>
    w
  </note>
  <outline>
    <contour>
      <point x="359" y="0" type="line"/>
      <point x="370" y="0" type="line"/>
      <point x="418" y="227" type="line"/>
      <point x="428" y="227" type="line"/>
      <point x="487" y="0" type="line"/>
      <point x="650" y="0" type="line"/>
      <point x="502" y="510" type="line"/>
      <point x="353" y="510" type="line"/>
      <point x="291" y="285" type="line"/>
    </contour>
    <contour>
      <point x="151" y="0" type="line"/>
      <point x="316" y="0" type="line"/>
      <point x="195" y="510" type="line"/>
      <point x="14" y="510" type="line"/>
    </contour>
    <contour>
      <point x="694" y="0" type="line"/>
      <point x="705" y="0" type="line"/>
      <point x="832" y="510" type="line"/>
      <point x="653" y="510" type="line"/>
      <point x="612" y="283" type="line"/>
    </contour>
    <contour>
      <point x="421" y="510" type="move" name="top"/>
    </contour>
  </outline>
</glyph>
<glyph name="z" format="1">
  <advance width="534"/>
  <unicode hex="007A"/>
  <note>
    z
  </note>
  <outline>
    <contour>
      <point x="45" y="0" type="line"/>
      <point x="149" y="0" type="line"/>
      <point x="487" y="377" type="line"/>
      <point x="487" y="510" type="line"/>
      <point x="57" y="510" type="line"/>
      <point x="57" y="369" type="line"/>
      <point x="257" y="369" type="line"/>
      <point x="45" y="133" type="line"/>
    </contour>
    <contour>
      <point x="205" y="0" type="line"/>
      <point x="489" y="0" type="line"/>
      <point x="489" y="141" type="line"/>
      <point x="331" y="141" type="line"/>
    </contour>
    <contour>
      <point x="265" y="510" type="move" name="top"/>
    </contour>
  </outline>
</glyph>
<glyph name="braceleft" format="1">
  <advance width="381"/>
  <unicode hex="007B"/>
  <note>
    braceleft
  </note>
  <outline>
    <contour>
      <point x="22" y="315" type="line"/>
      <point x="197" y="315" type="line"/>
      <point x="249" y="340"/>
      <point x="272" y="385"/>
      <point x="272" y="445" type="curve" smooth="yes"/>
      <point x="272" y="568" type="line" smooth="yes"/>
      <point x="272" y="591"/>
      <point x="277" y="614"/>
      <point x="286" y="635" type="curve" smooth="yes"/>
      <point x="304" y="678"/>
      <point x="326" y="711"/>
      <point x="361" y="743" type="curve"/>
      <point x="238" y="743" type="line"/>
      <point x="213" y="730"/>
      <point x="190" y="714"/>
      <point x="170" y="695" type="curve" smooth="yes"/>
      <point x="135" y="663"/>
      <point x="102" y="615"/>
      <point x="102" y="548" type="curve" smooth="yes"/>
      <point x="102" y="439" type="line" smooth="yes"/>
      <point x="102" y="414"/>
      <point x="99" y="390"/>
      <point x="88" y="371" type="curve"/>
      <point x="76" y="352"/>
      <point x="55" y="339"/>
      <point x="22" y="335" type="curve"/>
    </contour>
    <contour>
      <point x="238" y="-150" type="curve"/>
      <point x="361" y="-150" type="line"/>
      <point x="344" y="-134"/>
      <point x="329" y="-117"/>
      <point x="316" y="-98" type="curve" smooth="yes"/>
      <point x="293" y="-66"/>
      <point x="272" y="-23"/>
      <point x="272" y="25" type="curve" smooth="yes"/>
      <point x="272" y="148" type="line" smooth="yes"/>
      <point x="272" y="207"/>
      <point x="250" y="250"/>
      <point x="198" y="275" type="curve"/>
      <point x="22" y="275" type="line"/>
      <point x="22" y="256" type="line"/>
      <point x="55" y="252"/>
      <point x="76" y="238"/>
      <point x="88" y="219" type="curve"/>
      <point x="99" y="199"/>
      <point x="102" y="175"/>
      <point x="102" y="150" type="curve" smooth="yes"/>
      <point x="102" y="45" type="line" smooth="yes"/>
      <point x="102" y="11"/>
      <point x="109" y="-18"/>
      <point x="123" y="-42" type="curve" smooth="yes"/>
      <point x="151" y="-90"/>
      <point x="187" y="-123"/>
    </contour>
  </outline>
</glyph>
<glyph name="braceright" format="1">
  <advance width="381"/>
  <unicode hex="007D"/>
  <note>
    braceright
  </note>
  <outline>
    <contour>
      <point x="184" y="315" type="curve"/>
      <point x="359" y="315" type="line"/>
      <point x="359" y="335" type="line"/>
      <point x="324" y="339"/>
      <point x="305" y="352"/>
      <point x="294" y="371" type="curve"/>
      <point x="282" y="390"/>
      <point x="279" y="414"/>
      <point x="279" y="439" type="curve" smooth="yes"/>
      <point x="279" y="548" type="line" smooth="yes"/>
      <point x="279" y="581"/>
      <point x="272" y="610"/>
      <point x="258" y="635" type="curve" smooth="yes"/>
      <point x="230" y="683"/>
      <point x="194" y="716"/>
      <point x="143" y="743" type="curve"/>
      <point x="20" y="743" type="line"/>
      <point x="37" y="727"/>
      <point x="51" y="710"/>
      <point x="64" y="691" type="curve" smooth="yes"/>
      <point x="87" y="659"/>
      <point x="109" y="615"/>
      <point x="109" y="568" type="curve" smooth="yes"/>
      <point x="109" y="445" type="line" smooth="yes"/>
      <point x="109" y="385"/>
      <point x="132" y="340"/>
    </contour>
    <contour>
      <point x="20" y="-150" type="curve"/>
      <point x="143" y="-150" type="line"/>
      <point x="168" y="-137"/>
      <point x="191" y="-121"/>
      <point x="211" y="-102" type="curve" smooth="yes"/>
      <point x="246" y="-70"/>
      <point x="279" y="-23"/>
      <point x="279" y="45" type="curve" smooth="yes"/>
      <point x="279" y="150" type="line" smooth="yes"/>
      <point x="279" y="175"/>
      <point x="282" y="199"/>
      <point x="294" y="219" type="curve" smooth="yes"/>
      <point x="305" y="238"/>
      <point x="324" y="252"/>
      <point x="359" y="256" type="curve"/>
      <point x="359" y="275" type="line"/>
      <point x="183" y="275" type="line"/>
      <point x="131" y="250"/>
      <point x="109" y="207"/>
      <point x="109" y="148" type="curve" smooth="yes"/>
      <point x="109" y="25" type="line" smooth="yes"/>
      <point x="109" y="1"/>
      <point x="104" y="-21"/>
      <point x="95" y="-42" type="curve" smooth="yes"/>
      <point x="76" y="-84"/>
      <point x="53" y="-118"/>
    </contour>
  </outline>
</glyph>
<glyph name="exclamdown" format="1">
  <advance width="343"/>
  <unicode hex="00A1"/>
  <note>
    exclamdown
  </note>
  <outline>
    <contour>
      <point x="60" y="-178" type="line"/>
      <point x="283" y="-178" type="line"/>
      <point x="283" y="-163" type="line" smooth="yes"/>
      <point x="283" y="-159"/>
      <point x="283" y="-150"/>
      <point x="282" y="-135" type="curve" smooth="yes"/>
      <point x="281" y="-121"/>
      <point x="279" y="-103"/>
      <point x="277" y="-82" type="curve" smooth="yes"/>
      <point x="271" y="-13" type="line" smooth="yes"/>
      <point x="268" y="12"/>
      <point x="266" y="37"/>
      <point x="263" y="63" type="curve" smooth="yes"/>
      <point x="243" y="264" type="line"/>
      <point x="100" y="264" type="line"/>
      <point x="80" y="63" type="line" smooth="yes"/>
      <point x="77" y="37"/>
      <point x="75" y="12"/>
      <point x="73" y="-13" type="curve"/>
      <point x="70" y="-38"/>
      <point x="68" y="-61"/>
      <point x="66" y="-82" type="curve" smooth="yes"/>
      <point x="64" y="-103"/>
      <point x="63" y="-121"/>
      <point x="62" y="-135" type="curve" smooth="yes"/>
      <point x="60" y="-163" type="line"/>
    </contour>
    <contour>
      <point x="70" y="347" type="line"/>
      <point x="272" y="347" type="line"/>
      <point x="272" y="510" type="line"/>
      <point x="70" y="510" type="line"/>
    </contour>
  </outline>
</glyph>
<glyph name="sterling" format="1">
  <advance width="609"/>
  <unicode hex="00A3"/>
  <note>
    sterling
  </note>
  <outline>
    <contour>
      <point x="40" y="280" type="line"/>
      <point x="484" y="280" type="line"/>
      <point x="484" y="429" type="line"/>
      <point x="315" y="429" type="line"/>
      <point x="315" y="692" type="line"/>
      <point x="235" y="684"/>
      <point x="186" y="661"/>
      <point x="156" y="619" type="curve" smooth="yes"/>
      <point x="126" y="577"/>
      <point x="115" y="514"/>
      <point x="115" y="429" type="curve"/>
      <point x="40" y="429" type="line"/>
    </contour>
    <contour>
      <point x="40" y="0" type="line"/>
      <point x="571" y="0" type="line"/>
      <point x="571" y="153" type="line"/>
      <point x="315" y="153" type="line"/>
      <point x="315" y="240" type="line"/>
      <point x="114" y="240" type="line"/>
      <point x="114" y="153" type="line"/>
      <point x="40" y="153" type="line"/>
    </contour>
    <contour>
      <point x="560" y="533" type="curve"/>
      <point x="560" y="676" type="line"/>
      <point x="547" y="680"/>
      <point x="531" y="683"/>
      <point x="514" y="686" type="curve" smooth="yes"/>
      <point x="485" y="691"/>
      <point x="442" y="696"/>
      <point x="393" y="696" type="curve" smooth="yes"/>
      <point x="374" y="696" type="line" smooth="yes"/>
      <point x="368" y="696"/>
      <point x="362" y="696"/>
      <point x="357" y="695" type="curve"/>
      <point x="357" y="534" type="line"/>
      <point x="376" y="541"/>
      <point x="404" y="543"/>
      <point x="443" y="543" type="curve" smooth="yes"/>
      <point x="462" y="543"/>
      <point x="491" y="541"/>
      <point x="516" y="538" type="curve" smooth="yes"/>
      <point x="530" y="536"/>
      <point x="545" y="534"/>
    </contour>
  </outline>
</glyph>
<glyph name="brokenbar" format="1">
  <advance width="305"/>
  <unicode hex="00A6"/>
  <note>
    brokenbar
  </note>
  <outline>
    <contour>
      <point x="70" y="390" type="line"/>
      <point x="235" y="390" type="line"/>
      <point x="235" y="743" type="line"/>
      <point x="70" y="743" type="line"/>
    </contour>
    <contour>
      <point x="70" y="-161" type="line"/>
      <point x="235" y="-161" type="line"/>
      <point x="235" y="192" type="line"/>
      <point x="70" y="192" type="line"/>
    </contour>
  </outline>
</glyph>
<glyph name="section" format="1">
  <advance width="689"/>
  <unicode hex="00A7"/>
  <note>
    section
  </note>
  <outline>
    <contour>
      <point x="375" y="-170" type="line"/>
      <point x="430" y="-167"/>
      <point x="477" y="-159"/>
      <point x="511" y="-134" type="curve" smooth="yes"/>
      <point x="545" y="-109"/>
      <point x="565" y="-68"/>
      <point x="565" y="0" type="curve" smooth="yes"/>
      <point x="565" y="30"/>
      <point x="563" y="56"/>
      <point x="559" y="78" type="curve"/>
      <point x="607" y="93"/>
      <point x="632" y="113"/>
      <point x="644" y="156" type="curve"/>
      <point x="473" y="206" type="line"/>
      <point x="471" y="186"/>
      <point x="467" y="176"/>
      <point x="460" y="176" type="curve" smooth="yes"/>
      <point x="458" y="176" type="line" smooth="yes"/>
      <point x="457" y="176"/>
      <point x="457" y="176"/>
      <point x="456" y="177" type="curve"/>
      <point x="253" y="236" type="line" smooth="yes"/>
      <point x="228" y="243"/>
      <point x="218" y="251"/>
      <point x="215" y="280" type="curve"/>
      <point x="36" y="332" type="line"/>
      <point x="35" y="323"/>
      <point x="34" y="314"/>
      <point x="34" y="304" type="curve" smooth="yes"/>
      <point x="34" y="271" type="line" smooth="yes"/>
      <point x="34" y="204"/>
      <point x="45" y="165"/>
      <point x="65" y="141" type="curve" smooth="yes"/>
      <point x="85" y="116"/>
      <point x="113" y="106"/>
      <point x="148" y="95" type="curve" smooth="yes"/>
      <point x="342" y="35" type="line"/>
      <point x="373" y="24"/>
      <point x="375" y="25"/>
      <point x="375" y="6" type="curve" smooth="yes"/>
    </contour>
    <contour>
      <point x="333" y="-171" type="curve"/>
      <point x="333" y="-18" type="line"/>
      <point x="293" y="-18" type="line" smooth="yes"/>
      <point x="270" y="-18"/>
      <point x="248" y="-18"/>
      <point x="228" y="-17" type="curve"/>
      <point x="188" y="-17"/>
      <point x="157" y="-16"/>
      <point x="126" y="-13" type="curve"/>
      <point x="126" y="-154" type="line"/>
      <point x="141" y="-157"/>
      <point x="160" y="-160"/>
      <point x="181" y="-163" type="curve" smooth="yes"/>
      <point x="217" y="-167"/>
      <point x="269" y="-171"/>
    </contour>
    <contour>
      <point x="651" y="195" type="line"/>
      <point x="653" y="212"/>
      <point x="654" y="231"/>
      <point x="654" y="254" type="curve" smooth="yes"/>
      <point x="654" y="321"/>
      <point x="643" y="360"/>
      <point x="623" y="385" type="curve" smooth="yes"/>
      <point x="603" y="409"/>
      <point x="575" y="419"/>
      <point x="540" y="430" type="curve" smooth="yes"/>
      <point x="346" y="490" type="line" smooth="yes"/>
      <point x="315" y="499"/>
      <point x="314" y="499"/>
      <point x="314" y="519" type="curve" smooth="yes"/>
      <point x="314" y="695" type="line"/>
      <point x="259" y="692"/>
      <point x="213" y="683"/>
      <point x="179" y="659" type="curve" smooth="yes"/>
      <point x="145" y="634"/>
      <point x="124" y="593"/>
      <point x="124" y="525" type="curve" smooth="yes"/>
      <point x="124" y="494"/>
      <point x="125" y="468"/>
      <point x="129" y="447" type="curve"/>
      <point x="82" y="432"/>
      <point x="57" y="412"/>
      <point x="44" y="371" type="curve"/>
      <point x="216" y="322" type="line"/>
      <point x="217" y="340"/>
      <point x="221" y="349"/>
      <point x="229" y="349" type="curve"/>
      <point x="230" y="348"/>
      <point x="230" y="348"/>
      <point x="231" y="348" type="curve" smooth="yes"/>
      <point x="233" y="348" type="line"/>
      <point x="436" y="289" type="line" smooth="yes"/>
      <point x="460" y="282"/>
      <point x="470" y="275"/>
      <point x="473" y="247" type="curve"/>
    </contour>
    <contour>
      <point x="563" y="538" type="curve"/>
      <point x="563" y="679" type="line"/>
      <point x="547" y="682"/>
      <point x="528" y="684"/>
      <point x="507" y="687" type="curve" smooth="yes"/>
      <point x="471" y="691"/>
      <point x="420" y="696"/>
      <point x="356" y="696" type="curve"/>
      <point x="356" y="543" type="line"/>
      <point x="396" y="543" type="line" smooth="yes"/>
      <point x="419" y="543"/>
      <point x="440" y="543"/>
      <point x="461" y="542" type="curve" smooth="yes"/>
      <point x="501" y="541"/>
      <point x="532" y="539"/>
    </contour>
  </outline>
</glyph>
<glyph name="dieresis" format="1">
  <advance width="401"/>
  <unicode hex="00A8"/>
  <note>
    dieresis
  </note>
  <outline>
    <contour>
      <point x="228" y="611" type="line"/>
      <point x="381" y="611" type="line"/>
      <point x="381" y="730" type="line"/>
      <point x="228" y="730" type="line"/>
    </contour>
    <contour>
      <point x="20" y="611" type="line"/>
      <point x="173" y="611" type="line"/>
      <point x="173" y="730" type="line"/>
      <point x="20" y="730" type="line"/>
    </contour>
    <contour>
      <point x="201" y="510" type="move" name="_top"/>
    </contour>
  </outline>
</glyph>
<glyph name="copyright" format="1">
  <advance width="754"/>
  <unicode hex="00A9"/>
  <note>
    copyright
  </note>
  <outline>
    <contour>
      <point x="75" y="364" type="curve"/>
      <point x="148" y="364" type="line"/>
      <point x="148" y="449"/>
      <point x="149" y="508"/>
      <point x="159" y="547" type="curve" smooth="yes"/>
      <point x="169" y="586"/>
      <point x="186" y="605"/>
      <point x="220" y="616" type="curve" smooth="yes"/>
      <point x="254" y="627"/>
      <point x="304" y="627"/>
      <point x="377" y="627" type="curve" smooth="yes"/>
      <point x="450" y="627"/>
      <point x="501" y="627"/>
      <point x="534" y="616" type="curve" smooth="yes"/>
      <point x="567" y="605"/>
      <point x="586" y="586"/>
      <point x="595" y="547" type="curve" smooth="yes"/>
      <point x="604" y="508"/>
      <point x="606" y="449"/>
      <point x="606" y="364" type="curve"/>
      <point x="679" y="364" type="line"/>
      <point x="679" y="461"/>
      <point x="677" y="532"/>
      <point x="663" y="581" type="curve" smooth="yes"/>
      <point x="649" y="630"/>
      <point x="624" y="659"/>
      <point x="580" y="676" type="curve" smooth="yes"/>
      <point x="535" y="692"/>
      <point x="470" y="696"/>
      <point x="377" y="696" type="curve" smooth="yes"/>
      <point x="237" y="696"/>
      <point x="161" y="687"/>
      <point x="121" y="641" type="curve" smooth="yes"/>
      <point x="81" y="595"/>
      <point x="75" y="511"/>
    </contour>
    <contour>
      <point x="377" y="-8" type="curve" smooth="yes"/>
      <point x="517" y="-8"/>
      <point x="592" y="2"/>
      <point x="633" y="48" type="curve" smooth="yes"/>
      <point x="673" y="94"/>
      <point x="679" y="176"/>
      <point x="679" y="324" type="curve"/>
      <point x="606" y="324" type="line"/>
      <point x="606" y="237"/>
      <point x="604" y="180"/>
      <point x="595" y="141" type="curve" smooth="yes"/>
      <point x="586" y="102"/>
      <point x="567" y="83"/>
      <point x="534" y="72" type="curve" smooth="yes"/>
      <point x="501" y="61"/>
      <point x="450" y="61"/>
      <point x="377" y="61" type="curve" smooth="yes"/>
      <point x="304" y="61"/>
      <point x="254" y="61"/>
      <point x="220" y="72" type="curve" smooth="yes"/>
      <point x="186" y="83"/>
      <point x="169" y="102"/>
      <point x="159" y="141" type="curve" smooth="yes"/>
      <point x="149" y="180"/>
      <point x="148" y="239"/>
      <point x="148" y="324" type="curve"/>
      <point x="75" y="324" type="line"/>
      <point x="75" y="176"/>
      <point x="81" y="94"/>
      <point x="121" y="48" type="curve" smooth="yes"/>
      <point x="161" y="2"/>
      <point x="237" y="-8"/>
    </contour>
    <contour>
      <point x="398" y="156" type="curve" smooth="yes"/>
      <point x="425" y="156"/>
      <point x="448" y="158"/>
      <point x="467" y="161" type="curve"/>
      <point x="477" y="162"/>
      <point x="486" y="164"/>
      <point x="495" y="166" type="curve"/>
      <point x="495" y="243" type="line"/>
      <point x="475" y="240" type="line"/>
      <point x="462" y="239"/>
      <point x="444" y="238"/>
      <point x="425" y="238" type="curve" smooth="yes"/>
      <point x="406" y="238"/>
      <point x="392" y="239"/>
      <point x="382" y="241" type="curve" smooth="yes"/>
      <point x="362" y="245"/>
      <point x="353" y="258"/>
      <point x="352" y="286" type="curve"/>
      <point x="351" y="300"/>
      <point x="351" y="319"/>
      <point x="351" y="344" type="curve" smooth="yes"/>
      <point x="351" y="529" type="line"/>
      <point x="303" y="522"/>
      <point x="276" y="507"/>
      <point x="261" y="477" type="curve" smooth="yes"/>
      <point x="245" y="447"/>
      <point x="242" y="404"/>
      <point x="242" y="344" type="curve" smooth="yes"/>
      <point x="242" y="276"/>
      <point x="247" y="229"/>
      <point x="269" y="199" type="curve" smooth="yes"/>
      <point x="291" y="169"/>
      <point x="329" y="156"/>
    </contour>
    <contour>
      <point x="493" y="445" type="curve"/>
      <point x="493" y="521" type="line"/>
      <point x="485" y="522"/>
      <point x="476" y="524"/>
      <point x="466" y="526" type="curve" smooth="yes"/>
      <point x="449" y="529"/>
      <point x="426" y="532"/>
      <point x="398" y="532" type="curve" smooth="yes"/>
      <point x="388" y="532" type="line"/>
      <point x="388" y="448" type="line"/>
      <point x="393" y="449"/>
      <point x="398" y="450"/>
      <point x="404" y="450" type="curve" smooth="yes"/>
      <point x="425" y="450" type="line" smooth="yes"/>
      <point x="430" y="450"/>
      <point x="437" y="450"/>
      <point x="445" y="449" type="curve"/>
      <point x="460" y="448"/>
      <point x="474" y="446"/>
    </contour>
  </outline>
</glyph>
<glyph name="ordfeminine" format="1">
  <advance width="422"/>
  <unicode hex="00AA"/>
  <note>
    ordfeminine
  </note>
  <outline>
    <contour>
      <point x="242" y="317" type="line"/>
      <point x="377" y="317" type="line"/>
      <point x="377" y="539" type="line" smooth="yes"/>
      <point x="377" y="592"/>
      <point x="375" y="633"/>
      <point x="352" y="658" type="curve" smooth="yes"/>
      <point x="328" y="683"/>
      <point x="285" y="696"/>
      <point x="204" y="696" type="curve" smooth="yes"/>
      <point x="141" y="696"/>
      <point x="90" y="690"/>
      <point x="55" y="683" type="curve"/>
      <point x="55" y="588" type="line"/>
      <point x="68" y="589"/>
      <point x="81" y="589"/>
      <point x="94" y="590" type="curve" smooth="yes"/>
      <point x="117" y="591"/>
      <point x="142" y="593"/>
      <point x="159" y="593" type="curve" smooth="yes"/>
      <point x="180" y="593"/>
      <point x="196" y="593"/>
      <point x="207" y="592" type="curve" smooth="yes"/>
      <point x="218" y="591"/>
      <point x="227" y="590"/>
      <point x="232" y="587" type="curve" smooth="yes"/>
      <point x="242" y="581"/>
      <point x="242" y="569"/>
      <point x="242" y="548" type="curve" smooth="yes"/>
    </contour>
    <contour>
      <point x="134" y="312" type="curve" smooth="yes"/>
      <point x="161" y="312"/>
      <point x="182" y="314"/>
      <point x="205" y="329" type="curve"/>
      <point x="205" y="407" type="line"/>
      <point x="166" y="407"/>
      <point x="166" y="414"/>
      <point x="166" y="441" type="curve" smooth="yes"/>
      <point x="166" y="449"/>
      <point x="166" y="455"/>
      <point x="167" y="460" type="curve"/>
      <point x="167" y="468"/>
      <point x="173" y="472"/>
      <point x="183" y="473" type="curve"/>
      <point x="188" y="474"/>
      <point x="195" y="474"/>
      <point x="205" y="474" type="curve"/>
      <point x="205" y="538" type="line"/>
      <point x="186" y="539"/>
      <point x="166" y="540"/>
      <point x="150" y="540" type="curve" smooth="yes"/>
      <point x="103" y="540"/>
      <point x="74" y="534"/>
      <point x="58" y="518" type="curve" smooth="yes"/>
      <point x="41" y="501"/>
      <point x="35" y="472"/>
      <point x="35" y="425" type="curve" smooth="yes"/>
      <point x="35" y="348"/>
      <point x="66" y="312"/>
    </contour>
  </outline>
</glyph>
<glyph name="guillemetleft" format="1">
  <advance width="515"/>
  <unicode hex="00AB"/>
  <note>
    guillemotleft
  </note>
  <outline>
    <contour>
      <point x="349" y="99" type="line"/>
      <point x="470" y="99" type="line"/>
      <point x="369" y="304" type="line"/>
      <point x="470" y="510" type="line"/>
      <point x="349" y="510" type="line"/>
      <point x="217" y="304" type="line"/>
    </contour>
    <contour>
      <point x="146" y="99" type="line"/>
      <point x="267" y="99" type="line"/>
      <point x="166" y="304" type="line"/>
      <point x="267" y="510" type="line"/>
      <point x="146" y="510" type="line"/>
      <point x="14" y="304" type="line"/>
    </contour>
  </outline>
</glyph>
<glyph name="logicalnot" format="1">
  <advance width="540"/>
  <unicode hex="00AC"/>
  <note>
    logicalnot
  </note>
  <outline>
    <contour>
      <point x="335" y="53" type="line"/>
      <point x="469" y="53" type="line"/>
      <point x="469" y="320" type="line"/>
      <point x="70" y="320" type="line"/>
      <point x="70" y="186" type="line"/>
      <point x="335" y="186" type="line"/>
    </contour>
  </outline>
</glyph>
<glyph name="registered" format="1">
  <advance width="754"/>
  <unicode hex="00AE"/>
  <note>
    registered
  </note>
  <outline>
    <contour>
      <point x="75" y="364" type="curve"/>
      <point x="148" y="364" type="line"/>
      <point x="148" y="449"/>
      <point x="149" y="508"/>
      <point x="159" y="547" type="curve" smooth="yes"/>
      <point x="169" y="586"/>
      <point x="186" y="605"/>
      <point x="220" y="616" type="curve" smooth="yes"/>
      <point x="254" y="627"/>
      <point x="304" y="627"/>
      <point x="377" y="627" type="curve" smooth="yes"/>
      <point x="450" y="627"/>
      <point x="501" y="627"/>
      <point x="534" y="616" type="curve" smooth="yes"/>
      <point x="567" y="605"/>
      <point x="586" y="586"/>
      <point x="595" y="547" type="curve" smooth="yes"/>
      <point x="604" y="508"/>
      <point x="606" y="449"/>
      <point x="606" y="364" type="curve"/>
      <point x="679" y="364" type="line"/>
      <point x="679" y="461"/>
      <point x="677" y="532"/>
      <point x="663" y="581" type="curve" smooth="yes"/>
      <point x="649" y="630"/>
      <point x="624" y="659"/>
      <point x="580" y="676" type="curve" smooth="yes"/>
      <point x="535" y="692"/>
      <point x="470" y="696"/>
      <point x="377" y="696" type="curve" smooth="yes"/>
      <point x="237" y="696"/>
      <point x="161" y="687"/>
      <point x="121" y="641" type="curve" smooth="yes"/>
      <point x="81" y="595"/>
      <point x="75" y="511"/>
    </contour>
    <contour>
      <point x="377" y="-8" type="curve" smooth="yes"/>
      <point x="517" y="-8"/>
      <point x="592" y="2"/>
      <point x="633" y="48" type="curve" smooth="yes"/>
      <point x="673" y="94"/>
      <point x="679" y="176"/>
      <point x="679" y="324" type="curve"/>
      <point x="606" y="324" type="line"/>
      <point x="606" y="237"/>
      <point x="604" y="180"/>
      <point x="595" y="141" type="curve" smooth="yes"/>
      <point x="586" y="102"/>
      <point x="567" y="83"/>
      <point x="534" y="72" type="curve" smooth="yes"/>
      <point x="501" y="61"/>
      <point x="450" y="61"/>
      <point x="377" y="61" type="curve" smooth="yes"/>
      <point x="304" y="61"/>
      <point x="254" y="61"/>
      <point x="220" y="72" type="curve" smooth="yes"/>
      <point x="186" y="83"/>
      <point x="169" y="102"/>
      <point x="159" y="141" type="curve" smooth="yes"/>
      <point x="149" y="180"/>
      <point x="148" y="239"/>
      <point x="148" y="324" type="curve"/>
      <point x="75" y="324" type="line"/>
      <point x="75" y="176"/>
      <point x="81" y="94"/>
      <point x="121" y="48" type="curve" smooth="yes"/>
      <point x="161" y="2"/>
      <point x="237" y="-8"/>
    </contour>
    <contour>
      <point x="229" y="160" type="line"/>
      <point x="336" y="160" type="line"/>
      <point x="336" y="527" type="line"/>
      <point x="229" y="527" type="line"/>
    </contour>
    <contour>
      <point x="426" y="160" type="line"/>
      <point x="538" y="160" type="line"/>
      <point x="483" y="297" type="line"/>
      <point x="524" y="316"/>
      <point x="530" y="355"/>
      <point x="530" y="406" type="curve" smooth="yes"/>
      <point x="530" y="446"/>
      <point x="526" y="476"/>
      <point x="510" y="497" type="curve" smooth="yes"/>
      <point x="494" y="517"/>
      <point x="465" y="527"/>
      <point x="414" y="527" type="curve" smooth="yes"/>
      <point x="373" y="527" type="line"/>
      <point x="373" y="445" type="line"/>
      <point x="394" y="445"/>
      <point x="407" y="444"/>
      <point x="414" y="439" type="curve" smooth="yes"/>
      <point x="421" y="434"/>
      <point x="422" y="423"/>
      <point x="422" y="406" type="curve" smooth="yes"/>
      <point x="422" y="370"/>
      <point x="417" y="366"/>
      <point x="373" y="366" type="curve"/>
      <point x="373" y="285" type="line"/>
      <point x="379" y="285" type="line"/>
    </contour>
  </outline>
</glyph>
<glyph name="macron" format="1">
  <advance width="337"/>
  <unicode hex="00AF"/>
  <note>
    macron
  </note>
  <outline>
    <contour>
      <point x="26" y="593" type="line"/>
      <point x="311" y="593" type="line"/>
      <point x="311" y="742" type="line"/>
      <point x="26" y="742" type="line"/>
    </contour>
    <contour>
      <point x="168" y="510" type="move" name="_top"/>
    </contour>
  </outline>
</glyph>
<glyph name="degree" format="1">
  <advance width="399"/>
  <unicode hex="00B0"/>
  <note>
    degree
  </note>
  <outline>
    <contour>
      <point x="242" y="398" type="line"/>
      <point x="295" y="402"/>
      <point x="324" y="415"/>
      <point x="338" y="439" type="curve" smooth="yes"/>
      <point x="352" y="463"/>
      <point x="352" y="498"/>
      <point x="352" y="546" type="curve" smooth="yes"/>
      <point x="352" y="599"/>
      <point x="351" y="637"/>
      <point x="332" y="661" type="curve" smooth="yes"/>
      <point x="312" y="685"/>
      <point x="274" y="696"/>
      <point x="199" y="696" type="curve"/>
      <point x="199" y="619" type="line"/>
      <point x="220" y="619"/>
      <point x="232" y="617"/>
      <point x="237" y="606" type="curve" smooth="yes"/>
      <point x="242" y="595"/>
      <point x="242" y="577"/>
      <point x="242" y="546" type="curve" smooth="yes"/>
    </contour>
    <contour>
      <point x="200" y="397" type="curve"/>
      <point x="200" y="474" type="line"/>
      <point x="179" y="474"/>
      <point x="167" y="477"/>
      <point x="162" y="487" type="curve" smooth="yes"/>
      <point x="157" y="497"/>
      <point x="157" y="515"/>
      <point x="157" y="546" type="curve" smooth="yes"/>
      <point x="157" y="694" type="line"/>
      <point x="102" y="690"/>
      <point x="76" y="677"/>
      <point x="62" y="653" type="curve" smooth="yes"/>
      <point x="48" y="629"/>
      <point x="47" y="594"/>
      <point x="47" y="546" type="curve" smooth="yes"/>
      <point x="47" y="493"/>
      <point x="48" y="455"/>
      <point x="68" y="431" type="curve" smooth="yes"/>
      <point x="87" y="407"/>
      <point x="125" y="397"/>
    </contour>
  </outline>
</glyph>
<glyph name="plusminus" format="1">
  <advance width="540"/>
  <unicode hex="00B1"/>
  <note>
    plusminus
  </note>
  <outline>
    <contour>
      <point x="203" y="184" type="line"/>
      <point x="337" y="184" type="line"/>
      <point x="337" y="317" type="line"/>
      <point x="470" y="317" type="line"/>
      <point x="470" y="451" type="line"/>
      <point x="337" y="451" type="line"/>
      <point x="337" y="584" type="line"/>
      <point x="203" y="584" type="line"/>
      <point x="203" y="451" type="line"/>
      <point x="70" y="451" type="line"/>
      <point x="70" y="317" type="line"/>
      <point x="203" y="317" type="line"/>
    </contour>
    <contour>
      <point x="70" y="0" type="line"/>
      <point x="470" y="0" type="line"/>
      <point x="470" y="134" type="line"/>
      <point x="70" y="134" type="line"/>
    </contour>
  </outline>
</glyph>
<glyph name="twosuperior" format="1">
  <advance width="367"/>
  <unicode hex="00B2"/>
  <note>
    uni00B2
  </note>
  <outline>
    <contour>
      <point x="38" y="414" type="line"/>
      <point x="157" y="414" type="line"/>
      <point x="157" y="515" type="line" smooth="yes"/>
      <point x="157" y="534"/>
      <point x="161" y="537"/>
      <point x="180" y="544" type="curve"/>
      <point x="255" y="567" type="line" smooth="yes"/>
      <point x="306" y="583"/>
      <point x="329" y="613"/>
      <point x="329" y="685" type="curve" smooth="yes"/>
      <point x="329" y="733"/>
      <point x="316" y="761"/>
      <point x="294" y="776" type="curve" smooth="yes"/>
      <point x="272" y="791"/>
      <point x="240" y="795"/>
      <point x="207" y="796" type="curve"/>
      <point x="207" y="680" type="line" smooth="yes"/>
      <point x="207" y="660"/>
      <point x="203" y="657"/>
      <point x="174" y="646" type="curve" smooth="yes"/>
      <point x="112" y="622" type="line" smooth="yes"/>
      <point x="77" y="609"/>
      <point x="60" y="593"/>
      <point x="50" y="570" type="curve" smooth="yes"/>
      <point x="40" y="547"/>
      <point x="38" y="516"/>
      <point x="38" y="475" type="curve" smooth="yes"/>
    </contour>
    <contour>
      <point x="194" y="414" type="line"/>
      <point x="329" y="414" type="line"/>
      <point x="329" y="515" type="line"/>
      <point x="194" y="515" type="line"/>
    </contour>
    <contour>
      <point x="45" y="689" type="line"/>
      <point x="57" y="690"/>
      <point x="69" y="692"/>
      <point x="81" y="694" type="curve" smooth="yes"/>
      <point x="102" y="697"/>
      <point x="128" y="699"/>
      <point x="151" y="699" type="curve" smooth="yes"/>
      <point x="170" y="699" type="line"/>
      <point x="170" y="796" type="line"/>
      <point x="122" y="793" type="line"/>
      <point x="92" y="790"/>
      <point x="68" y="787"/>
      <point x="45" y="783" type="curve"/>
    </contour>
  </outline>
</glyph>
<glyph name="acute" format="1">
  <advance width="311"/>
  <unicode hex="00B4"/>
  <note>
    acute
  </note>
  <outline>
    <contour>
      <point x="20" y="596" type="line"/>
      <point x="156" y="596" type="line"/>
      <point x="291" y="738" type="line"/>
      <point x="291" y="743" type="line"/>
      <point x="108" y="743" type="line"/>
      <point x="20" y="601" type="line"/>
    </contour>
    <contour>
      <point x="99" y="510" type="move" name="_top"/>
    </contour>
  </outline>
</glyph>
<glyph name="periodcentered" format="1">
  <advance width="330"/>
  <unicode hex="00B7"/>
  <note>
    periodcentered
  </note>
  <outline>
    <contour>
      <point x="64" y="218" type="line"/>
      <point x="266" y="218" type="line"/>
      <point x="266" y="381" type="line"/>
      <point x="64" y="381" type="line"/>
    </contour>
  </outline>
</glyph>
<glyph name="onesuperior" format="1">
  <advance width="264"/>
  <unicode hex="00B9"/>
  <note>
    uni00B9
  </note>
  <outline>
    <contour>
      <point x="97" y="414" type="line"/>
      <point x="219" y="414" type="line"/>
      <point x="219" y="788" type="line"/>
      <point x="140" y="788" type="line"/>
      <point x="30" y="736" type="line"/>
      <point x="30" y="637" type="line"/>
      <point x="97" y="662" type="line"/>
    </contour>
  </outline>
</glyph>
<glyph name="ordmasculine" format="1">
  <advance width="440"/>
  <unicode hex="00BA"/>
  <note>
    ordmasculine
  </note>
  <outline>
    <contour>
      <point x="261" y="314" type="line"/>
      <point x="326" y="318"/>
      <point x="361" y="333"/>
      <point x="379" y="363" type="curve" smooth="yes"/>
      <point x="397" y="393"/>
      <point x="398" y="439"/>
      <point x="398" y="504" type="curve" smooth="yes"/>
      <point x="398" y="576"/>
      <point x="396" y="623"/>
      <point x="373" y="654" type="curve" smooth="yes"/>
      <point x="349" y="685"/>
      <point x="305" y="697"/>
      <point x="220" y="697" type="curve" smooth="yes"/>
      <point x="216" y="697" type="line"/>
      <point x="216" y="594" type="line"/>
      <point x="220" y="594" type="line" smooth="yes"/>
      <point x="230" y="594"/>
      <point x="238" y="593"/>
      <point x="244" y="592" type="curve"/>
      <point x="255" y="588"/>
      <point x="260" y="577"/>
      <point x="261" y="553" type="curve"/>
      <point x="261" y="504" type="line"/>
    </contour>
    <contour>
      <point x="220" y="313" type="curve" smooth="yes"/>
      <point x="224" y="313" type="line"/>
      <point x="224" y="416" type="line"/>
      <point x="220" y="416" type="line" smooth="yes"/>
      <point x="210" y="416"/>
      <point x="202" y="417"/>
      <point x="197" y="418" type="curve"/>
      <point x="185" y="421"/>
      <point x="180" y="432"/>
      <point x="180" y="456" type="curve"/>
      <point x="179" y="467"/>
      <point x="179" y="483"/>
      <point x="179" y="504" type="curve" smooth="yes"/>
      <point x="179" y="695" type="line"/>
      <point x="114" y="691"/>
      <point x="80" y="676"/>
      <point x="62" y="645" type="curve" smooth="yes"/>
      <point x="44" y="614"/>
      <point x="42" y="569"/>
      <point x="42" y="504" type="curve" smooth="yes"/>
      <point x="42" y="432"/>
      <point x="44" y="385"/>
      <point x="68" y="355" type="curve" smooth="yes"/>
      <point x="91" y="325"/>
      <point x="135" y="313"/>
    </contour>
  </outline>
</glyph>
<glyph name="onequarter" format="1">
  <advance width="773"/>
  <unicode hex="00BC"/>
  <note>
    onequarter
  </note>
  <outline>
    <contour>
      <point x="75" y="0" type="line"/>
      <point x="192" y="0" type="line"/>
      <point x="641" y="688" type="line"/>
      <point x="524" y="688" type="line"/>
    </contour>
    <contour>
      <point x="97" y="314" type="line"/>
      <point x="219" y="314" type="line"/>
      <point x="219" y="688" type="line"/>
      <point x="140" y="688" type="line"/>
      <point x="30" y="636" type="line"/>
      <point x="30" y="537" type="line"/>
      <point x="97" y="562" type="line"/>
    </contour>
    <contour>
      <point x="563" y="0" type="line"/>
      <point x="683" y="0" type="line"/>
      <point x="683" y="67" type="line"/>
      <point x="728" y="67" type="line"/>
      <point x="728" y="164" type="line"/>
      <point x="683" y="164" type="line"/>
      <point x="683" y="237" type="line"/>
      <point x="625" y="237" type="line"/>
      <point x="577" y="164" type="line"/>
      <point x="561" y="164" type="line"/>
      <point x="502" y="67" type="line"/>
      <point x="563" y="67" type="line"/>
    </contour>
    <contour>
      <point x="393" y="67" type="line"/>
      <point x="461" y="67" type="line"/>
      <point x="650" y="378" type="line"/>
      <point x="516" y="378" type="line"/>
      <point x="393" y="149" type="line"/>
    </contour>
  </outline>
</glyph>
<glyph name="AE" format="1">
  <advance width="979"/>
  <unicode hex="00C6"/>
  <note>
    AE
  </note>
  <outline>
    <contour>
      <point x="-20" y="0" type="line"/>
      <point x="179" y="0" type="line"/>
      <point x="400" y="526" type="line"/>
      <point x="405" y="526" type="line"/>
      <point x="430" y="276" type="line"/>
      <point x="340" y="276" type="line"/>
      <point x="276" y="122" type="line"/>
      <point x="446" y="122" type="line"/>
      <point x="459" y="0" type="line"/>
      <point x="654" y="0" type="line"/>
      <point x="569" y="688" type="line"/>
      <point x="296" y="688" type="line"/>
    </contour>
    <contour>
      <point x="697" y="0" type="line"/>
      <point x="924" y="0" type="line"/>
      <point x="924" y="153" type="line"/>
      <point x="678" y="153" type="line"/>
    </contour>
    <contour>
      <point x="664" y="271" type="line"/>
      <point x="877" y="271" type="line"/>
      <point x="877" y="424" type="line"/>
      <point x="645" y="424" type="line"/>
    </contour>
    <contour>
      <point x="631" y="535" type="line"/>
      <point x="924" y="535" type="line"/>
      <point x="924" y="688" type="line"/>
      <point x="612" y="688" type="line"/>
    </contour>
    <contour>
      <point x="621" y="688" type="move" name="top"/>
    </contour>
  </outline>
</glyph>
<glyph name="Thorn" format="1">
  <advance width="645"/>
  <unicode hex="00DE"/>
  <note>
    Thorn
  </note>
  <outline>
    <contour>
      <point x="307" y="115" type="line"/>
      <point x="390" y="115" type="line" smooth="yes"/>
      <point x="494" y="115"/>
      <point x="551" y="139"/>
      <point x="583" y="180" type="curve" smooth="yes"/>
      <point x="615" y="221"/>
      <point x="620" y="280"/>
      <point x="620" y="352" type="curve" smooth="yes"/>
      <point x="620" y="431"/>
      <point x="613" y="490"/>
      <point x="581" y="530" type="curve" smooth="yes"/>
      <point x="549" y="569"/>
      <point x="491" y="589"/>
      <point x="390" y="589" type="curve" smooth="yes"/>
      <point x="307" y="589" type="line"/>
      <point x="307" y="436" type="line"/>
      <point x="331" y="436" type="line" smooth="yes"/>
      <point x="370" y="436"/>
      <point x="391" y="434"/>
      <point x="403" y="423" type="curve"/>
      <point x="415" y="411"/>
      <point x="417" y="391"/>
      <point x="417" y="352" type="curve" smooth="yes"/>
      <point x="417" y="313"/>
      <point x="415" y="293"/>
      <point x="403" y="282" type="curve"/>
      <point x="391" y="270"/>
      <point x="370" y="268"/>
      <point x="331" y="268" type="curve" smooth="yes"/>
      <point x="307" y="268" type="line"/>
    </contour>
    <contour>
      <point x="65" y="0" type="line"/>
      <point x="265" y="0" type="line"/>
      <point x="265" y="688" type="line"/>
      <point x="65" y="688" type="line"/>
    </contour>
  </outline>
</glyph>
<glyph name="eth" format="1">
  <advance width="580"/>
  <unicode hex="00F0"/>
  <note>
    eth
  </note>
  <outline>
    <contour>
      <point x="342" y="-6" type="line"/>
      <point x="431" y="-1"/>
      <point x="479" y="19"/>
      <point x="504" y="60" type="curve" smooth="yes"/>
      <point x="528" y="101"/>
      <point x="530" y="163"/>
      <point x="530" y="254" type="curve" smooth="yes"/>
      <point x="530" y="414"/>
      <point x="504" y="522"/>
      <point x="460" y="603" type="curve"/>
      <point x="521" y="612" type="line"/>
      <point x="521" y="716" type="line"/>
      <point x="392" y="698" type="line"/>
      <point x="377" y="714"/>
      <point x="364" y="728"/>
      <point x="345" y="743" type="curve"/>
      <point x="150" y="743" type="line"/>
      <point x="150" y="739" type="line"/>
      <point x="173" y="719"/>
      <point x="196" y="697"/>
      <point x="217" y="673" type="curve"/>
      <point x="151" y="664" type="line"/>
      <point x="151" y="560" type="line"/>
      <point x="283" y="578" type="line"/>
      <point x="294" y="558"/>
      <point x="304" y="535"/>
      <point x="313" y="511" type="curve"/>
      <point x="311" y="508" type="line"/>
      <point x="299" y="511"/>
      <point x="285" y="513"/>
      <point x="272" y="514" type="curve"/>
      <point x="272" y="377" type="line"/>
      <point x="286" y="377" type="line" smooth="yes"/>
      <point x="300" y="377"/>
      <point x="311" y="376"/>
      <point x="319" y="374" type="curve" smooth="yes"/>
      <point x="334" y="370"/>
      <point x="340" y="354"/>
      <point x="341" y="322" type="curve" smooth="yes"/>
      <point x="342" y="305"/>
      <point x="342" y="283"/>
      <point x="342" y="254" type="curve" smooth="yes"/>
    </contour>
    <contour>
      <point x="286" y="-8" type="curve" smooth="yes"/>
      <point x="300" y="-8" type="line"/>
      <point x="300" y="133" type="line"/>
      <point x="286" y="133" type="line" smooth="yes"/>
      <point x="272" y="133"/>
      <point x="261" y="134"/>
      <point x="254" y="136" type="curve" smooth="yes"/>
      <point x="238" y="140"/>
      <point x="232" y="155"/>
      <point x="231" y="187" type="curve" smooth="yes"/>
      <point x="230" y="203"/>
      <point x="230" y="225"/>
      <point x="230" y="254" type="curve" smooth="yes"/>
      <point x="230" y="518" type="line"/>
      <point x="216" y="518" type="line" smooth="yes"/>
      <point x="136" y="518"/>
      <point x="93" y="495"/>
      <point x="70" y="451" type="curve" smooth="yes"/>
      <point x="46" y="407"/>
      <point x="42" y="341"/>
      <point x="42" y="254" type="curve" smooth="yes"/>
      <point x="42" y="155"/>
      <point x="45" y="90"/>
      <point x="77" y="49" type="curve" smooth="yes"/>
      <point x="109" y="8"/>
      <point x="170" y="-8"/>
    </contour>
  </outline>
</glyph>
<glyph name="idotless" format="1">
  <advance width="299"/>
  <unicode hex="0131"/>
  <note>
    dotlessi
  </note>
  <outline>
    <contour>
      <point x="57" y="0" type="line"/>
      <point x="242" y="0" type="line"/>
      <point x="242" y="510" type="line"/>
      <point x="57" y="510" type="line"/>
    </contour>
    <contour>
      <point x="148" y="0" type="move" name="bottom"/>
    </contour>
    <contour>
      <point x="149" y="510" type="move" name="top"/>
    </contour>
  </outline>
</glyph>
<glyph name="kgreenlandic" format="1">
  <advance width="576"/>
  <unicode hex="0138"/>
  <outline>
    <contour>
      <point x="367" y="0" type="line"/>
      <point x="569" y="0" type="line"/>
      <point x="416" y="268" type="line"/>
      <point x="566" y="510" type="line"/>
      <point x="371" y="510" type="line"/>
      <point x="284" y="358" type="line"/>
      <point x="284" y="146" type="line"/>
    </contour>
    <contour>
      <point x="57" y="0" type="line"/>
      <point x="242" y="0" type="line"/>
      <point x="242" y="510" type="line"/>
      <point x="57" y="510" type="line"/>
    </contour>
    <contour>
      <point x="290" y="0" type="move" name="bottom"/>
    </contour>
  </outline>
</glyph>
<glyph name="Eng" format="1">
  <advance width="716"/>
  <unicode hex="014A"/>
  <outline>
    <contour>
      <point x="452" y="0" type="line"/>
      <point x="651" y="0" type="line"/>
      <point x="651" y="29" type="line"/>
      <point x="265" y="688" type="line"/>
      <point x="65" y="688" type="line"/>
      <point x="65" y="660" type="line"/>
    </contour>
    <contour>
      <point x="65" y="0" type="line"/>
      <point x="255" y="0" type="line"/>
      <point x="255" y="252" type="line"/>
      <point x="65" y="577" type="line"/>
    </contour>
    <contour>
      <point x="372" y="-199" type="line"/>
      <point x="484" y="-199"/>
      <point x="562" y="-194"/>
      <point x="602" y="-162" type="curve" smooth="yes"/>
      <point x="641" y="-130"/>
      <point x="651" y="-71"/>
      <point x="651" y="17" type="curve"/>
      <point x="452" y="287" type="line"/>
      <point x="452" y="-18" type="line" smooth="yes"/>
      <point x="452" y="-27"/>
      <point x="451" y="-35"/>
      <point x="450" y="-41" type="curve"/>
      <point x="447" y="-54"/>
      <point x="438" y="-62"/>
      <point x="416" y="-66" type="curve" smooth="yes"/>
      <point x="405" y="-68"/>
      <point x="391" y="-69"/>
      <point x="372" y="-69" type="curve"/>
    </contour>
    <contour>
      <point x="651" y="112" type="line"/>
      <point x="651" y="688" type="line"/>
      <point x="461" y="688" type="line"/>
      <point x="461" y="437" type="line"/>
    </contour>
  </outline>
</glyph>
<glyph name="eng" format="1">
  <advance width="588"/>
  <unicode hex="014B"/>
  <outline>
    <contour>
      <point x="264" y="-199" type="line"/>
      <point x="376" y="-199"/>
      <point x="442" y="-194"/>
      <point x="482" y="-162" type="curve" smooth="yes"/>
      <point x="516" y="-134"/>
      <point x="528" y="-85"/>
      <point x="531" y="0" type="curve" smooth="yes"/>
      <point x="531" y="319" type="line" smooth="yes"/>
      <point x="531" y="378"/>
      <point x="527" y="427"/>
      <point x="507" y="462" type="curve" smooth="yes"/>
      <point x="487" y="497"/>
      <point x="450" y="517"/>
      <point x="386" y="517" type="curve" smooth="yes"/>
      <point x="351" y="517"/>
      <point x="315" y="511"/>
      <point x="284" y="488" type="curve"/>
      <point x="284" y="363" type="line"/>
      <point x="294" y="363" type="line" smooth="yes"/>
      <point x="319" y="363"/>
      <point x="334" y="363"/>
      <point x="340" y="348" type="curve" smooth="yes"/>
      <point x="343" y="340"/>
      <point x="344" y="328"/>
      <point x="345" y="311" type="curve" smooth="yes"/>
      <point x="346" y="294"/>
      <point x="346" y="271"/>
      <point x="346" y="241" type="curve" smooth="yes"/>
      <point x="346" y="-18" type="line" smooth="yes"/>
      <point x="346" y="-27"/>
      <point x="345" y="-35"/>
      <point x="344" y="-41" type="curve"/>
      <point x="341" y="-54"/>
      <point x="332" y="-62"/>
      <point x="310" y="-66" type="curve" smooth="yes"/>
      <point x="299" y="-68"/>
      <point x="283" y="-69"/>
      <point x="264" y="-69" type="curve"/>
    </contour>
    <contour>
      <point x="57" y="0" type="line"/>
      <point x="242" y="0" type="line"/>
      <point x="242" y="510" type="line"/>
      <point x="57" y="510" type="line"/>
    </contour>
  </outline>
</glyph>
<glyph name="oe" format="1">
  <advance width="861"/>
  <unicode hex="0153"/>
  <note>
    oe
  </note>
  <outline>
    <contour>
      <point x="606" y="-8" type="curve" smooth="yes"/>
      <point x="636" y="-8"/>
      <point x="663" y="-7"/>
      <point x="686" y="-5" type="curve" smooth="yes"/>
      <point x="733" y="-2"/>
      <point x="768" y="3"/>
      <point x="796" y="11" type="curve"/>
      <point x="796" y="140" type="line"/>
      <point x="779" y="139"/>
      <point x="762" y="137"/>
      <point x="745" y="136" type="curve"/>
      <point x="716" y="133"/>
      <point x="680" y="133"/>
      <point x="652" y="133" type="curve" smooth="yes"/>
      <point x="623" y="133"/>
      <point x="600" y="134"/>
      <point x="584" y="135" type="curve" smooth="yes"/>
      <point x="567" y="136"/>
      <point x="555" y="139"/>
      <point x="547" y="144" type="curve" smooth="yes"/>
      <point x="531" y="154"/>
      <point x="530" y="174"/>
      <point x="530" y="214" type="curve" smooth="yes"/>
      <point x="530" y="514" type="line"/>
      <point x="493" y="509"/>
      <point x="465" y="500"/>
      <point x="441" y="488" type="curve"/>
      <point x="406" y="508"/>
      <point x="357" y="518"/>
      <point x="286" y="518" type="curve" smooth="yes"/>
      <point x="272" y="518" type="line"/>
      <point x="272" y="377" type="line"/>
      <point x="286" y="377" type="line" smooth="yes"/>
      <point x="300" y="377"/>
      <point x="311" y="376"/>
      <point x="319" y="374" type="curve" smooth="yes"/>
      <point x="334" y="370"/>
      <point x="340" y="354"/>
      <point x="341" y="322" type="curve" smooth="yes"/>
      <point x="342" y="305"/>
      <point x="342" y="283"/>
      <point x="342" y="254" type="curve" smooth="yes"/>
      <point x="342" y="-5" type="line"/>
      <point x="383" y="-1"/>
      <point x="418" y="8"/>
      <point x="445" y="23" type="curve"/>
      <point x="482" y="4"/>
      <point x="534" y="-8"/>
    </contour>
    <contour>
      <point x="286" y="-8" type="curve" smooth="yes"/>
      <point x="300" y="-8" type="line"/>
      <point x="300" y="133" type="line"/>
      <point x="286" y="133" type="line" smooth="yes"/>
      <point x="272" y="133"/>
      <point x="261" y="134"/>
      <point x="254" y="136" type="curve" smooth="yes"/>
      <point x="238" y="140"/>
      <point x="232" y="155"/>
      <point x="231" y="187" type="curve" smooth="yes"/>
      <point x="230" y="203"/>
      <point x="230" y="225"/>
      <point x="230" y="254" type="curve" smooth="yes"/>
      <point x="230" y="516" type="line"/>
      <point x="141" y="511"/>
      <point x="93" y="491"/>
      <point x="69" y="449" type="curve" smooth="yes"/>
      <point x="44" y="407"/>
      <point x="42" y="343"/>
      <point x="42" y="254" type="curve" smooth="yes"/>
      <point x="42" y="155"/>
      <point x="45" y="90"/>
      <point x="77" y="49" type="curve" smooth="yes"/>
      <point x="109" y="8"/>
      <point x="170" y="-8"/>
    </contour>
    <contour>
      <point x="572" y="214" type="line"/>
      <point x="816" y="214" type="line"/>
      <point x="816" y="254" type="line" smooth="yes"/>
      <point x="816" y="349"/>
      <point x="816" y="416"/>
      <point x="787" y="458" type="curve" smooth="yes"/>
      <point x="758" y="500"/>
      <point x="701" y="518"/>
      <point x="586" y="518" type="curve" smooth="yes"/>
      <point x="572" y="518" type="line"/>
      <point x="572" y="391" type="line"/>
      <point x="586" y="391" type="line" smooth="yes"/>
      <point x="610" y="391"/>
      <point x="623" y="389"/>
      <point x="631" y="377" type="curve" smooth="yes"/>
      <point x="639" y="365"/>
      <point x="642" y="344"/>
      <point x="642" y="305" type="curve"/>
      <point x="572" y="305" type="line"/>
    </contour>
  </outline>
</glyph>
<glyph name="Uogonek" format="1">
  <advance width="690"/>
  <unicode hex="0172"/>
  <outline>
    <contour>
      <point x="324" y="-8" type="curve" smooth="yes"/>
      <point x="345" y="-8" type="line" smooth="yes"/>
      <point x="485" y="-8"/>
      <point x="555" y="13"/>
      <point x="591" y="64" type="curve" smooth="yes"/>
      <point x="627" y="115"/>
      <point x="628" y="195"/>
      <point x="628" y="314" type="curve" smooth="yes"/>
      <point x="628" y="688" type="line"/>
      <point x="428" y="688" type="line"/>
      <point x="428" y="274" type="line" smooth="yes"/>
      <point x="428" y="244"/>
      <point x="427" y="220"/>
      <point x="426" y="203" type="curve" smooth="yes"/>
      <point x="424" y="168"/>
      <point x="416" y="153"/>
      <point x="393" y="149" type="curve"/>
      <point x="382" y="146"/>
      <point x="366" y="145"/>
      <point x="345" y="145" type="curve" smooth="yes"/>
      <point x="322" y="145" type="line" smooth="yes"/>
      <point x="315" y="145"/>
      <point x="309" y="146"/>
      <point x="304" y="147" type="curve"/>
      <point x="304" y="-7" type="line"/>
      <point x="311" y="-8"/>
      <point x="317" y="-8"/>
    </contour>
    <contour>
      <point x="433" y="-196" type="curve" smooth="yes"/>
      <point x="452" y="-196"/>
      <point x="469" y="-195"/>
      <point x="484" y="-194" type="curve"/>
      <point x="492" y="-193"/>
      <point x="500" y="-193"/>
      <point x="508" y="-192" type="curve"/>
      <point x="508" y="-103" type="line"/>
      <point x="506" y="-104"/>
      <point x="504" y="-104"/>
      <point x="502" y="-104" type="curve" smooth="yes"/>
      <point x="491" y="-104" type="line" smooth="yes"/>
      <point x="452" y="-104"/>
      <point x="444" y="-89"/>
      <point x="444" y="-70" type="curve" smooth="yes"/>
      <point x="444" y="-37"/>
      <point x="479" y="-1"/>
      <point x="528" y="16" type="curve"/>
      <point x="368" y="17" type="line"/>
      <point x="332" y="-16"/>
      <point x="300" y="-69"/>
      <point x="300" y="-108" type="curve" smooth="yes"/>
      <point x="300" y="-132"/>
      <point x="308" y="-154"/>
      <point x="328" y="-170" type="curve" smooth="yes"/>
      <point x="348" y="-186"/>
      <point x="381" y="-196"/>
    </contour>
    <contour>
      <point x="262" y="-5" type="curve"/>
      <point x="262" y="688" type="line"/>
      <point x="62" y="688" type="line"/>
      <point x="62" y="314" type="line" smooth="yes"/>
      <point x="62" y="209"/>
      <point x="62" y="133"/>
      <point x="88" y="82" type="curve" smooth="yes"/>
      <point x="114" y="30"/>
      <point x="165" y="3"/>
    </contour>
  </outline>
</glyph>
<glyph name="longs" format="1">
  <advance width="437"/>
  <unicode hex="017F"/>
  <outline>
    <contour>
      <point x="18" y="369" type="line"/>
      <point x="297" y="369" type="line"/>
      <point x="297" y="555" type="line" smooth="yes"/>
      <point x="297" y="570"/>
      <point x="298" y="581"/>
      <point x="300" y="589" type="curve"/>
      <point x="303" y="605"/>
      <point x="318" y="613"/>
      <point x="351" y="614" type="curve" smooth="yes"/>
      <point x="367" y="615"/>
      <point x="390" y="615"/>
      <point x="419" y="615" type="curve"/>
      <point x="419" y="743" type="line"/>
      <point x="288" y="743"/>
      <point x="212" y="742"/>
      <point x="168" y="714" type="curve" smooth="yes"/>
      <point x="124" y="686"/>
      <point x="112" y="630"/>
      <point x="112" y="521" type="curve" smooth="yes"/>
      <point x="112" y="510" type="line"/>
      <point x="18" y="510" type="line"/>
    </contour>
    <contour>
      <point x="112" y="0" type="line"/>
      <point x="297" y="0" type="line"/>
      <point x="297" y="329" type="line"/>
      <point x="112" y="329" type="line"/>
    </contour>
  </outline>
</glyph>
<glyph name="Schwa" format="1">
  <advance width="698"/>
  <unicode hex="018F"/>
  <outline>
    <contour>
      <point x="447" y="-4" type="line"/>
      <point x="547" y="5"/>
      <point x="598" y="34"/>
      <point x="624" y="89" type="curve" smooth="yes"/>
      <point x="650" y="144"/>
      <point x="651" y="227"/>
      <point x="651" y="344" type="curve" smooth="yes"/>
      <point x="651" y="477"/>
      <point x="650" y="567"/>
      <point x="612" y="621" type="curve" smooth="yes"/>
      <point x="574" y="675"/>
      <point x="497" y="696"/>
      <point x="349" y="696" type="curve" smooth="yes"/>
      <point x="307" y="696"/>
      <point x="160" y="699"/>
      <point x="75" y="677" type="curve"/>
      <point x="75" y="540" type="line"/>
      <point x="141" y="546"/>
      <point x="211" y="548"/>
      <point x="269" y="548" type="curve" smooth="yes"/>
      <point x="336" y="547"/>
      <point x="389" y="544"/>
      <point x="406" y="540" type="curve" smooth="yes"/>
      <point x="433" y="534"/>
      <point x="444" y="512"/>
      <point x="446" y="458" type="curve" smooth="yes"/>
      <point x="447" y="431"/>
      <point x="447" y="393"/>
      <point x="447" y="344" type="curve" smooth="yes"/>
    </contour>
    <contour>
      <point x="349" y="-8" type="curve" smooth="yes"/>
      <point x="378" y="-8" type="line" smooth="yes"/>
      <point x="387" y="-8"/>
      <point x="396" y="-8"/>
      <point x="405" y="-7" type="curve"/>
      <point x="405" y="148" type="line"/>
      <point x="390" y="145"/>
      <point x="373" y="145"/>
      <point x="349" y="145" type="curve" smooth="yes"/>
      <point x="324" y="145"/>
      <point x="305" y="146"/>
      <point x="292" y="149" type="curve"/>
      <point x="265" y="153"/>
      <point x="255" y="177"/>
      <point x="253" y="231" type="curve" smooth="yes"/>
      <point x="252" y="258"/>
      <point x="251" y="305"/>
      <point x="251" y="354" type="curve"/>
      <point x="47" y="354" type="line"/>
      <point x="47" y="265"/>
      <point x="47" y="186"/>
      <point x="59" y="134" type="curve" smooth="yes"/>
      <point x="71" y="82"/>
      <point x="94" y="46"/>
      <point x="139" y="24" type="curve" smooth="yes"/>
      <point x="183" y="2"/>
      <point x="250" y="-8"/>
    </contour>
    <contour>
      <point x="184" y="227" type="line"/>
      <point x="407" y="227" type="line"/>
      <point x="407" y="354" type="line"/>
      <point x="184" y="354" type="line"/>
    </contour>
  </outline>
</glyph>
<glyph name="nhookleft" format="1">
  <advance width="588"/>
  <unicode hex="0272"/>
  <outline>
    <contour>
      <point x="-25" y="-199" type="line"/>
      <point x="87" y="-199"/>
      <point x="153" y="-194"/>
      <point x="193" y="-162" type="curve" smooth="yes"/>
      <point x="232" y="-130"/>
      <point x="242" y="-71"/>
      <point x="242" y="37" type="curve" smooth="yes"/>
      <point x="242" y="510" type="line"/>
      <point x="57" y="510" type="line"/>
      <point x="57" y="-18" type="line" smooth="yes"/>
      <point x="57" y="-27"/>
      <point x="56" y="-35"/>
      <point x="55" y="-41" type="curve"/>
      <point x="52" y="-54"/>
      <point x="43" y="-62"/>
      <point x="21" y="-66" type="curve" smooth="yes"/>
      <point x="10" y="-68"/>
      <point x="-6" y="-69"/>
      <point x="-25" y="-69" type="curve"/>
    </contour>
    <contour>
      <point x="346" y="0" type="line"/>
      <point x="531" y="0" type="line"/>
      <point x="531" y="319" type="line" smooth="yes"/>
      <point x="531" y="378"/>
      <point x="527" y="427"/>
      <point x="507" y="462" type="curve" smooth="yes"/>
      <point x="487" y="497"/>
      <point x="450" y="517"/>
      <point x="386" y="517" type="curve" smooth="yes"/>
      <point x="351" y="517"/>
      <point x="315" y="511"/>
      <point x="284" y="488" type="curve"/>
      <point x="284" y="363" type="line"/>
      <point x="294" y="363" type="line" smooth="yes"/>
      <point x="319" y="363"/>
      <point x="334" y="363"/>
      <point x="340" y="348" type="curve" smooth="yes"/>
      <point x="343" y="340"/>
      <point x="344" y="328"/>
      <point x="345" y="311" type="curve" smooth="yes"/>
      <point x="346" y="294"/>
      <point x="346" y="271"/>
      <point x="346" y="241" type="curve" smooth="yes"/>
    </contour>
  </outline>
</glyph>
<glyph name="breve" format="1">
  <advance width="337"/>
  <unicode hex="02D8"/>
  <note>
    breve
  </note>
  <outline>
    <contour>
      <point x="168" y="592" type="curve" smooth="yes"/>
      <point x="236" y="592"/>
      <point x="275" y="607"/>
      <point x="299" y="635" type="curve" smooth="yes"/>
      <point x="322" y="662"/>
      <point x="327" y="699"/>
      <point x="327" y="743" type="curve"/>
      <point x="224" y="743" type="line"/>
      <point x="224" y="728"/>
      <point x="224" y="714"/>
      <point x="217" y="705" type="curve"/>
      <point x="209" y="696"/>
      <point x="196" y="690"/>
      <point x="168" y="690" type="curve" smooth="yes"/>
      <point x="140" y="690"/>
      <point x="127" y="696"/>
      <point x="120" y="705" type="curve" smooth="yes"/>
      <point x="113" y="714"/>
      <point x="113" y="728"/>
      <point x="113" y="743" type="curve"/>
      <point x="10" y="743" type="line"/>
      <point x="10" y="699"/>
      <point x="15" y="662"/>
      <point x="38" y="635" type="curve" smooth="yes"/>
      <point x="61" y="607"/>
      <point x="100" y="592"/>
    </contour>
    <contour>
      <point x="168" y="510" type="move" name="_top"/>
    </contour>
  </outline>
</glyph>
<glyph name="hungarumlaut" format="1">
  <advance width="450"/>
  <unicode hex="02DD"/>
  <note>
    hungarumlaut
  </note>
  <outline>
    <contour>
      <point x="210" y="611" type="line"/>
      <point x="321" y="611" type="line"/>
      <point x="430" y="726" type="line"/>
      <point x="430" y="730" type="line"/>
      <point x="282" y="730" type="line"/>
      <point x="210" y="615" type="line"/>
    </contour>
    <contour>
      <point x="20" y="611" type="line"/>
      <point x="130" y="611" type="line"/>
      <point x="240" y="726" type="line"/>
      <point x="240" y="730" type="line"/>
      <point x="91" y="730" type="line"/>
      <point x="20" y="615" type="line"/>
    </contour>
    <contour>
      <point x="169" y="510" type="move" name="_top"/>
    </contour>
  </outline>
</glyph>
<glyph name="slashlongcomb" format="1">
  <advance width="698"/>
  <unicode hex="0338"/>
  <outline>
    <contour>
      <point x="384" y="590" type="line"/>
      <point x="544" y="590" type="line"/>
      <point x="601" y="693" type="line"/>
      <point x="440" y="693" type="line"/>
    </contour>
    <contour>
      <point x="97" y="56" type="line"/>
      <point x="257" y="56" type="line"/>
      <point x="316" y="158" type="line"/>
      <point x="154" y="158" type="line"/>
    </contour>
    <contour>
      <point x="354" y="347" type="move" name="_center"/>
    </contour>
  </outline>
</glyph>
<glyph name="Omega" format="1">
  <advance width="698"/>
  <unicode hex="03A9"/>
  <note>
    uni2126
  </note>
  <outline>
    <contour>
      <point x="393" y="0" type="line"/>
      <point x="651" y="0" type="line"/>
      <point x="651" y="154" type="line"/>
      <point x="635" y="154" type="line"/>
      <point x="514" y="117" type="line"/>
      <point x="514" y="124" type="line"/>
      <point x="595" y="161"/>
      <point x="651" y="244"/>
      <point x="651" y="384" type="curve" smooth="yes"/>
      <point x="651" y="493"/>
      <point x="645" y="571"/>
      <point x="604" y="622" type="curve" smooth="yes"/>
      <point x="563" y="673"/>
      <point x="488" y="696"/>
      <point x="349" y="696" type="curve" smooth="yes"/>
      <point x="329" y="696"/>
      <point x="310" y="695"/>
      <point x="293" y="694" type="curve"/>
      <point x="293" y="537" type="line"/>
      <point x="306" y="542"/>
      <point x="325" y="543"/>
      <point x="349" y="543" type="curve" smooth="yes"/>
      <point x="398" y="543"/>
      <point x="423" y="537"/>
      <point x="435" y="513" type="curve" smooth="yes"/>
      <point x="447" y="488"/>
      <point x="447" y="443"/>
      <point x="447" y="364" type="curve" smooth="yes"/>
      <point x="447" y="273"/>
      <point x="443" y="223"/>
      <point x="435" y="193" type="curve" smooth="yes"/>
      <point x="427" y="163"/>
      <point x="413" y="153"/>
      <point x="393" y="148" type="curve"/>
    </contour>
    <contour>
      <point x="47" y="0" type="line"/>
      <point x="305" y="0" type="line"/>
      <point x="305" y="148" type="line"/>
      <point x="285" y="153"/>
      <point x="271" y="163"/>
      <point x="263" y="193" type="curve" smooth="yes"/>
      <point x="255" y="223"/>
      <point x="251" y="273"/>
      <point x="251" y="364" type="curve" smooth="yes"/>
      <point x="251" y="691" type="line"/>
      <point x="159" y="680"/>
      <point x="108" y="651"/>
      <point x="80" y="601" type="curve" smooth="yes"/>
      <point x="52" y="551"/>
      <point x="47" y="479"/>
      <point x="47" y="384" type="curve" smooth="yes"/>
      <point x="47" y="244"/>
      <point x="101" y="161"/>
      <point x="184" y="124" type="curve"/>
      <point x="184" y="117" type="line"/>
      <point x="63" y="154" type="line"/>
      <point x="47" y="154" type="line"/>
    </contour>
  </outline>
</glyph>
<glyph name="pi" format="1">
  <advance width="590"/>
  <unicode hex="03C0"/>
  <note>
    pi
  </note>
  <outline>
    <contour>
      <point x="57" y="369" type="line"/>
      <point x="533" y="369" type="line"/>
      <point x="533" y="510" type="line"/>
      <point x="57" y="510" type="line"/>
    </contour>
    <contour>
      <point x="57" y="0" type="line"/>
      <point x="242" y="0" type="line"/>
      <point x="242" y="329" type="line"/>
      <point x="57" y="329" type="line"/>
    </contour>
    <contour>
      <point x="348" y="0" type="line"/>
      <point x="533" y="0" type="line"/>
      <point x="533" y="329" type="line"/>
      <point x="348" y="329" type="line"/>
    </contour>
  </outline>
</glyph>
<glyph name="Germandbls" format="1">
  <advance width="770"/>
  <unicode hex="1E9E"/>
  <outline>
    <contour>
      <point x="59" y="0" type="line"/>
      <point x="264" y="0" type="line"/>
      <point x="264" y="328" type="line" smooth="yes"/>
      <point x="264" y="522"/>
      <point x="268" y="542"/>
      <point x="395" y="542" type="curve" smooth="yes"/>
      <point x="400" y="542"/>
      <point x="406" y="542"/>
      <point x="414" y="542" type="curve"/>
      <point x="540" y="684" type="line"/>
      <point x="482" y="691"/>
      <point x="420" y="696"/>
      <point x="359" y="696" type="curve" smooth="yes"/>
      <point x="95" y="696"/>
      <point x="59" y="621"/>
      <point x="59" y="328" type="curve" smooth="yes"/>
    </contour>
    <contour>
      <point x="465" y="-8" type="curve" smooth="yes"/>
      <point x="470" y="-8"/>
      <point x="474" y="-8"/>
      <point x="479" y="-8" type="curve"/>
      <point x="479" y="148" type="line"/>
      <point x="466" y="146"/>
      <point x="450" y="146"/>
      <point x="429" y="146" type="curve" smooth="yes"/>
      <point x="404" y="146"/>
      <point x="360" y="151"/>
      <point x="324" y="158" type="curve"/>
      <point x="324" y="14" type="line"/>
      <point x="362" y="2"/>
      <point x="422" y="-8"/>
    </contour>
    <contour>
      <point x="520" y="-6" type="line"/>
      <point x="681" y="6"/>
      <point x="726" y="73"/>
      <point x="726" y="184" type="curve" smooth="yes"/>
      <point x="726" y="320"/>
      <point x="671" y="365"/>
      <point x="555" y="377" type="curve"/>
      <point x="692" y="531" type="line"/>
      <point x="692" y="661" type="line"/>
      <point x="661" y="666"/>
      <point x="627" y="672"/>
      <point x="591" y="678" type="curve"/>
      <point x="348" y="403" type="line"/>
      <point x="348" y="272" type="line"/>
      <point x="440" y="272" type="line" smooth="yes"/>
      <point x="504" y="272"/>
      <point x="520" y="265"/>
      <point x="520" y="206" type="curve" smooth="yes"/>
    </contour>
  </outline>
</glyph>
<glyph name="emdash" format="1">
  <advance width="880"/>
  <unicode hex="2014"/>
  <note>
    emdash
  </note>
  <outline>
    <contour>
      <point x="40" y="238" type="line"/>
      <point x="840" y="238" type="line"/>
      <point x="840" y="371" type="line"/>
      <point x="40" y="371" type="line"/>
    </contour>
  </outline>
</glyph>
<glyph name="quotedblleft" format="1">
  <advance width="565"/>
  <unicode hex="201C"/>
  <note>
    quotedblleft
  </note>
  <outline>
    <contour>
      <point x="310" y="387" type="line"/>
      <point x="500" y="387" type="line"/>
      <point x="500" y="540" type="line"/>
      <point x="428" y="540" type="line"/>
      <point x="428" y="553" type="line" smooth="yes"/>
      <point x="428" y="577"/>
      <point x="430" y="595"/>
      <point x="440" y="605" type="curve" smooth="yes"/>
      <point x="450" y="615"/>
      <point x="468" y="619"/>
      <point x="500" y="619" type="curve"/>
      <point x="500" y="688" type="line"/>
      <point x="415" y="688"/>
      <point x="367" y="677"/>
      <point x="341" y="649" type="curve" smooth="yes"/>
      <point x="315" y="621"/>
      <point x="310" y="575"/>
      <point x="310" y="503" type="curve" smooth="yes"/>
    </contour>
    <contour>
      <point x="65" y="387" type="line"/>
      <point x="255" y="387" type="line"/>
      <point x="255" y="540" type="line"/>
      <point x="183" y="540" type="line"/>
      <point x="183" y="553" type="line" smooth="yes"/>
      <point x="183" y="577"/>
      <point x="185" y="595"/>
      <point x="195" y="605" type="curve" smooth="yes"/>
      <point x="205" y="615"/>
      <point x="223" y="619"/>
      <point x="255" y="619" type="curve"/>
      <point x="255" y="688" type="line"/>
      <point x="170" y="688"/>
      <point x="122" y="677"/>
      <point x="96" y="649" type="curve" smooth="yes"/>
      <point x="70" y="621"/>
      <point x="65" y="575"/>
      <point x="65" y="503" type="curve" smooth="yes"/>
    </contour>
  </outline>
</glyph>
<glyph name="bullet" format="1">
  <advance width="403"/>
  <unicode hex="2022"/>
  <note>
    bullet
  </note>
  <outline>
    <contour>
      <point x="200" y="217" type="curve" smooth="yes"/>
      <point x="261" y="217"/>
      <point x="294" y="222"/>
      <point x="311" y="239" type="curve" smooth="yes"/>
      <point x="327" y="256"/>
      <point x="328" y="287"/>
      <point x="328" y="342" type="curve" smooth="yes"/>
      <point x="328" y="398"/>
      <point x="327" y="430"/>
      <point x="311" y="448" type="curve" smooth="yes"/>
      <point x="294" y="466"/>
      <point x="261" y="470"/>
      <point x="200" y="470" type="curve" smooth="yes"/>
      <point x="140" y="470"/>
      <point x="109" y="466"/>
      <point x="93" y="448" type="curve" smooth="yes"/>
      <point x="76" y="430"/>
      <point x="75" y="398"/>
      <point x="75" y="342" type="curve" smooth="yes"/>
      <point x="75" y="287"/>
      <point x="76" y="256"/>
      <point x="93" y="239" type="curve" smooth="yes"/>
      <point x="109" y="222"/>
      <point x="140" y="217"/>
    </contour>
  </outline>
</glyph>
<glyph name="ellipsis" format="1">
  <advance width="990"/>
  <unicode hex="2026"/>
  <note>
    ellipsis
  </note>
  <outline>
    <contour>
      <point x="724" y="0" type="line"/>
      <point x="926" y="0" type="line"/>
      <point x="926" y="163" type="line"/>
      <point x="724" y="163" type="line"/>
    </contour>
    <contour>
      <point x="64" y="0" type="line"/>
      <point x="266" y="0" type="line"/>
      <point x="266" y="163" type="line"/>
      <point x="64" y="163" type="line"/>
    </contour>
    <contour>
      <point x="394" y="0" type="line"/>
      <point x="596" y="0" type="line"/>
      <point x="596" y="163" type="line"/>
      <point x="394" y="163" type="line"/>
    </contour>
  </outline>
</glyph>
<glyph name="perthousand" format="1">
  <advance width="1050"/>
  <unicode hex="2030"/>
  <note>
    perthousand
  </note>
  <outline>
    <contour>
      <point x="82" y="0" type="line"/>
      <point x="199" y="0" type="line"/>
      <point x="660" y="688" type="line"/>
      <point x="543" y="688" type="line"/>
    </contour>
    <contour>
      <point x="183" y="360" type="curve"/>
      <point x="183" y="432" type="line"/>
      <point x="163" y="432"/>
      <point x="154" y="432"/>
      <point x="149" y="444" type="curve"/>
      <point x="146" y="450"/>
      <point x="145" y="460"/>
      <point x="145" y="473" type="curve"/>
      <point x="144" y="486"/>
      <point x="144" y="504"/>
      <point x="144" y="528" type="curve" smooth="yes"/>
      <point x="144" y="694" type="line"/>
      <point x="96" y="690"/>
      <point x="72" y="677"/>
      <point x="60" y="651" type="curve" smooth="yes"/>
      <point x="48" y="625"/>
      <point x="47" y="584"/>
      <point x="47" y="528" type="curve" smooth="yes"/>
      <point x="47" y="465"/>
      <point x="48" y="423"/>
      <point x="65" y="397" type="curve" smooth="yes"/>
      <point x="82" y="371"/>
      <point x="116" y="360"/>
    </contour>
    <contour>
      <point x="562" y="-8" type="curve"/>
      <point x="562" y="64" type="line"/>
      <point x="542" y="64"/>
      <point x="533" y="64"/>
      <point x="528" y="76" type="curve"/>
      <point x="525" y="82"/>
      <point x="524" y="92"/>
      <point x="524" y="105" type="curve"/>
      <point x="523" y="118"/>
      <point x="523" y="136"/>
      <point x="523" y="160" type="curve" smooth="yes"/>
      <point x="523" y="326" type="line"/>
      <point x="475" y="322"/>
      <point x="451" y="309"/>
      <point x="439" y="283" type="curve" smooth="yes"/>
      <point x="427" y="257"/>
      <point x="426" y="216"/>
      <point x="426" y="160" type="curve" smooth="yes"/>
      <point x="426" y="97"/>
      <point x="427" y="55"/>
      <point x="444" y="29" type="curve" smooth="yes"/>
      <point x="461" y="3"/>
      <point x="495" y="-8"/>
    </contour>
    <contour>
      <point x="220" y="361" type="line"/>
      <point x="268" y="365"/>
      <point x="292" y="380"/>
      <point x="304" y="406" type="curve" smooth="yes"/>
      <point x="316" y="432"/>
      <point x="317" y="472"/>
      <point x="317" y="528" type="curve" smooth="yes"/>
      <point x="317" y="591"/>
      <point x="316" y="634"/>
      <point x="299" y="660" type="curve" smooth="yes"/>
      <point x="282" y="686"/>
      <point x="248" y="696"/>
      <point x="181" y="696" type="curve"/>
      <point x="181" y="624" type="line"/>
      <point x="201" y="624"/>
      <point x="210" y="623"/>
      <point x="215" y="611" type="curve"/>
      <point x="218" y="605"/>
      <point x="219" y="596"/>
      <point x="220" y="583" type="curve"/>
      <point x="220" y="528" type="line"/>
    </contour>
    <contour>
      <point x="599" y="-7" type="line"/>
      <point x="647" y="-3"/>
      <point x="671" y="12"/>
      <point x="683" y="38" type="curve" smooth="yes"/>
      <point x="695" y="64"/>
      <point x="696" y="104"/>
      <point x="696" y="160" type="curve" smooth="yes"/>
      <point x="696" y="223"/>
      <point x="695" y="266"/>
      <point x="678" y="292" type="curve" smooth="yes"/>
      <point x="661" y="318"/>
      <point x="627" y="328"/>
      <point x="560" y="328" type="curve"/>
      <point x="560" y="256" type="line"/>
      <point x="580" y="256"/>
      <point x="589" y="255"/>
      <point x="594" y="243" type="curve"/>
      <point x="597" y="237"/>
      <point x="598" y="228"/>
      <point x="599" y="215" type="curve"/>
      <point x="599" y="160" type="line"/>
    </contour>
    <contour>
      <point x="870" y="-8" type="curve"/>
      <point x="870" y="64" type="line"/>
      <point x="850" y="64"/>
      <point x="841" y="64"/>
      <point x="836" y="76" type="curve"/>
      <point x="833" y="82"/>
      <point x="832" y="92"/>
      <point x="832" y="105" type="curve"/>
      <point x="831" y="118"/>
      <point x="831" y="136"/>
      <point x="831" y="160" type="curve" smooth="yes"/>
      <point x="831" y="326" type="line"/>
      <point x="783" y="322"/>
      <point x="759" y="309"/>
      <point x="747" y="283" type="curve" smooth="yes"/>
      <point x="735" y="257"/>
      <point x="734" y="216"/>
      <point x="734" y="160" type="curve" smooth="yes"/>
      <point x="734" y="97"/>
      <point x="735" y="55"/>
      <point x="752" y="29" type="curve" smooth="yes"/>
      <point x="769" y="3"/>
      <point x="803" y="-8"/>
    </contour>
    <contour>
      <point x="907" y="-7" type="line"/>
      <point x="955" y="-3"/>
      <point x="979" y="12"/>
      <point x="991" y="38" type="curve" smooth="yes"/>
      <point x="1003" y="64"/>
      <point x="1004" y="104"/>
      <point x="1004" y="160" type="curve" smooth="yes"/>
      <point x="1004" y="223"/>
      <point x="1003" y="266"/>
      <point x="986" y="292" type="curve" smooth="yes"/>
      <point x="969" y="318"/>
      <point x="935" y="328"/>
      <point x="868" y="328" type="curve"/>
      <point x="868" y="256" type="line"/>
      <point x="888" y="256"/>
      <point x="897" y="255"/>
      <point x="902" y="243" type="curve"/>
      <point x="905" y="237"/>
      <point x="906" y="228"/>
      <point x="907" y="215" type="curve"/>
      <point x="907" y="160" type="line"/>
    </contour>
  </outline>
</glyph>
<glyph name="zerosuperior" format="1">
  <advance width="376"/>
  <unicode hex="2070"/>
  <outline>
    <contour>
      <point x="229" y="405" type="line"/>
      <point x="336" y="409"/>
      <point x="347" y="444"/>
      <point x="347" y="599" type="curve" smooth="yes"/>
      <point x="347" y="771"/>
      <point x="333" y="793"/>
      <point x="188" y="793" type="curve" smooth="yes"/>
      <point x="187" y="793"/>
      <point x="186" y="793"/>
      <point x="185" y="793" type="curve"/>
      <point x="185" y="706" type="line"/>
      <point x="186" y="706"/>
      <point x="187" y="706"/>
      <point x="188" y="706" type="curve" smooth="yes"/>
      <point x="228" y="706"/>
      <point x="229" y="704"/>
      <point x="229" y="599" type="curve"/>
    </contour>
    <contour>
      <point x="188" y="404" type="curve" smooth="yes"/>
      <point x="189" y="404"/>
      <point x="190" y="404"/>
      <point x="192" y="404" type="curve"/>
      <point x="192" y="490" type="line"/>
      <point x="191" y="490"/>
      <point x="189" y="490"/>
      <point x="188" y="490" type="curve" smooth="yes"/>
      <point x="149" y="490"/>
      <point x="148" y="492"/>
      <point x="148" y="599" type="curve"/>
      <point x="148" y="792" type="line"/>
      <point x="41" y="787"/>
      <point x="30" y="754"/>
      <point x="30" y="599" type="curve" smooth="yes"/>
      <point x="30" y="426"/>
      <point x="43" y="404"/>
    </contour>
  </outline>
</glyph>
<glyph name="fivesuperior" format="1">
  <advance width="359"/>
  <unicode hex="2075"/>
  <outline>
    <contour>
      <point x="213" y="406" type="line"/>
      <point x="308" y="415"/>
      <point x="330" y="456"/>
      <point x="330" y="535" type="curve" smooth="yes"/>
      <point x="330" y="608"/>
      <point x="307" y="651"/>
      <point x="212" y="651" type="curve" smooth="yes"/>
      <point x="188" y="651"/>
      <point x="165" y="650"/>
      <point x="145" y="648" type="curve"/>
      <point x="145" y="788" type="line"/>
      <point x="45" y="788" type="line"/>
      <point x="45" y="562" type="line"/>
      <point x="78" y="565"/>
      <point x="123" y="567"/>
      <point x="154" y="567" type="curve" smooth="yes"/>
      <point x="204" y="567"/>
      <point x="213" y="562"/>
      <point x="213" y="529" type="curve"/>
    </contour>
    <contour>
      <point x="170" y="404" type="curve" smooth="yes"/>
      <point x="175" y="404"/>
      <point x="180" y="404"/>
      <point x="185" y="404" type="curve"/>
      <point x="185" y="491" type="line"/>
      <point x="177" y="490"/>
      <point x="167" y="490"/>
      <point x="154" y="490" type="curve" smooth="yes"/>
      <point x="126" y="490"/>
      <point x="77" y="493"/>
      <point x="41" y="496" type="curve"/>
      <point x="41" y="416" type="line"/>
      <point x="80" y="409"/>
      <point x="132" y="404"/>
    </contour>
    <contour>
      <point x="182" y="701" type="line"/>
      <point x="302" y="701" type="line"/>
      <point x="302" y="788" type="line"/>
      <point x="182" y="788" type="line"/>
    </contour>
  </outline>
</glyph>
<glyph name="sixsuperior" format="1">
  <advance width="378"/>
  <unicode hex="2076"/>
  <outline>
    <contour>
      <point x="197" y="404" type="curve" smooth="yes"/>
      <point x="199" y="404"/>
      <point x="202" y="404"/>
      <point x="204" y="404" type="curve"/>
      <point x="204" y="488" type="line"/>
      <point x="201" y="488"/>
      <point x="197" y="488"/>
      <point x="193" y="488" type="curve" smooth="yes"/>
      <point x="159" y="488"/>
      <point x="147" y="489"/>
      <point x="147" y="530" type="curve"/>
      <point x="147" y="790" type="line"/>
      <point x="92" y="783"/>
      <point x="59" y="761"/>
      <point x="44" y="718" type="curve" smooth="yes"/>
      <point x="34" y="690"/>
      <point x="30" y="650"/>
      <point x="30" y="598" type="curve" smooth="yes"/>
      <point x="30" y="535"/>
      <point x="34" y="492"/>
      <point x="43" y="470" type="curve" smooth="yes"/>
      <point x="67" y="412"/>
      <point x="112" y="404"/>
    </contour>
    <contour>
      <point x="241" y="406" type="line"/>
      <point x="330" y="416"/>
      <point x="352" y="456"/>
      <point x="352" y="537" type="curve" smooth="yes"/>
      <point x="352" y="633"/>
      <point x="307" y="651"/>
      <point x="229" y="651" type="curve" smooth="yes"/>
      <point x="210" y="651"/>
      <point x="195" y="649"/>
      <point x="184" y="646" type="curve"/>
      <point x="184" y="567" type="line"/>
      <point x="187" y="567"/>
      <point x="190" y="567"/>
      <point x="193" y="567" type="curve" smooth="yes"/>
      <point x="233" y="567"/>
      <point x="241" y="563"/>
      <point x="241" y="527" type="curve"/>
    </contour>
    <contour>
      <point x="328" y="699" type="curve"/>
      <point x="328" y="781" type="line"/>
      <point x="285" y="789"/>
      <point x="232" y="793"/>
      <point x="201" y="793" type="curve" smooth="yes"/>
      <point x="195" y="793"/>
      <point x="189" y="793"/>
      <point x="184" y="793" type="curve"/>
      <point x="184" y="704" type="line"/>
      <point x="194" y="705"/>
      <point x="206" y="706"/>
      <point x="222" y="706" type="curve" smooth="yes"/>
      <point x="242" y="706"/>
      <point x="284" y="703"/>
    </contour>
  </outline>
</glyph>
<glyph name="eightsuperior" format="1">
  <advance width="388"/>
  <unicode hex="2078"/>
  <outline>
    <contour>
      <point x="194" y="404" type="curve" smooth="yes"/>
      <point x="198" y="404"/>
      <point x="202" y="404"/>
      <point x="206" y="404" type="curve"/>
      <point x="206" y="486" type="line"/>
      <point x="202" y="486"/>
      <point x="198" y="486"/>
      <point x="194" y="486" type="curve" smooth="yes"/>
      <point x="155" y="486"/>
      <point x="146" y="490"/>
      <point x="146" y="524" type="curve" smooth="yes"/>
      <point x="146" y="560"/>
      <point x="154" y="564"/>
      <point x="194" y="564" type="curve" smooth="yes"/>
      <point x="234" y="564"/>
      <point x="242" y="560"/>
      <point x="242" y="524" type="curve" smooth="yes"/>
      <point x="242" y="406" type="line"/>
      <point x="335" y="415"/>
      <point x="359" y="452"/>
      <point x="359" y="510" type="curve" smooth="yes"/>
      <point x="359" y="571"/>
      <point x="334" y="591"/>
      <point x="289" y="601" type="curve"/>
      <point x="289" y="604" type="line"/>
      <point x="333" y="613"/>
      <point x="355" y="638"/>
      <point x="355" y="693" type="curve" smooth="yes"/>
      <point x="355" y="759"/>
      <point x="318" y="793"/>
      <point x="194" y="793" type="curve" smooth="yes"/>
      <point x="191" y="793"/>
      <point x="188" y="793"/>
      <point x="186" y="793" type="curve"/>
      <point x="186" y="711" type="line"/>
      <point x="188" y="711"/>
      <point x="191" y="711"/>
      <point x="194" y="711" type="curve" smooth="yes"/>
      <point x="234" y="711"/>
      <point x="239" y="706"/>
      <point x="239" y="673" type="curve" smooth="yes"/>
      <point x="239" y="640"/>
      <point x="233" y="636"/>
      <point x="194" y="636" type="curve" smooth="yes"/>
      <point x="154" y="636"/>
      <point x="149" y="640"/>
      <point x="149" y="673" type="curve" smooth="yes"/>
      <point x="149" y="791" type="line"/>
      <point x="60" y="784"/>
      <point x="32" y="750"/>
      <point x="32" y="693" type="curve" smooth="yes"/>
      <point x="32" y="638"/>
      <point x="54" y="613"/>
      <point x="99" y="604" type="curve"/>
      <point x="99" y="601" type="line"/>
      <point x="54" y="591"/>
      <point x="29" y="571"/>
      <point x="29" y="510" type="curve" smooth="yes"/>
      <point x="29" y="443"/>
      <point x="60" y="404"/>
    </contour>
  </outline>
</glyph>
<glyph name="nmod" format="1">
  <advance width="481"/>
  <unicode hex="207F"/>
  <outline>
    <contour>
      <point x="284" y="264" type="line"/>
      <point x="441" y="264" type="line"/>
      <point x="441" y="509" type="line" smooth="yes"/>
      <point x="441" y="554"/>
      <point x="439" y="592"/>
      <point x="423" y="619" type="curve" smooth="yes"/>
      <point x="407" y="646"/>
      <point x="379" y="661"/>
      <point x="330" y="661" type="curve" smooth="yes"/>
      <point x="303" y="661"/>
      <point x="260" y="654"/>
      <point x="236" y="639" type="curve"/>
      <point x="236" y="533" type="line"/>
      <point x="244" y="533" type="line" smooth="yes"/>
      <point x="263" y="533"/>
      <point x="273" y="532"/>
      <point x="279" y="521" type="curve" smooth="yes"/>
      <point x="282" y="515"/>
      <point x="282" y="506"/>
      <point x="283" y="493" type="curve" smooth="yes"/>
      <point x="284" y="480"/>
      <point x="284" y="462"/>
      <point x="284" y="439" type="curve" smooth="yes"/>
    </contour>
    <contour>
      <point x="50" y="264" type="line"/>
      <point x="207" y="264" type="line"/>
      <point x="207" y="656" type="line"/>
      <point x="50" y="656" type="line"/>
    </contour>
  </outline>
</glyph>
<glyph name="colonsign" format="1">
  <advance width="482"/>
  <unicode hex="20A1"/>
  <outline>
    <contour>
      <point x="73" y="-8" type="line"/>
      <point x="120" y="-8" type="line"/>
      <point x="310" y="696" type="line"/>
      <point x="262" y="696" type="line"/>
      <point x="241" y="617" type="line"/>
      <point x="68" y="607"/>
      <point x="45" y="533"/>
      <point x="45" y="333" type="curve" smooth="yes"/>
      <point x="45" y="211"/>
      <point x="54" y="136"/>
      <point x="99" y="95" type="curve"/>
      <point x="72" y="-7" type="line"/>
    </contour>
    <contour>
      <point x="159" y="-8" type="line"/>
      <point x="206" y="-8" type="line"/>
      <point x="223" y="54" type="line"/>
      <point x="247" y="51"/>
      <point x="264" y="49"/>
      <point x="296" y="49" type="curve" smooth="yes"/>
      <point x="347" y="49"/>
      <point x="400" y="55"/>
      <point x="437" y="62" type="curve"/>
      <point x="437" y="182" type="line"/>
      <point x="406" y="177"/>
      <point x="370" y="174"/>
      <point x="336" y="174" type="curve" smooth="yes"/>
      <point x="259" y="174"/>
      <point x="234" y="182"/>
      <point x="229" y="255" type="curve"/>
      <point x="159" y="-7" type="line"/>
    </contour>
    <contour>
      <point x="433" y="486" type="curve"/>
      <point x="433" y="603" type="line"/>
      <point x="414" y="608"/>
      <point x="404" y="612"/>
      <point x="375" y="615" type="curve"/>
      <point x="396" y="696" type="line"/>
      <point x="349" y="696" type="line"/>
      <point x="294" y="491" type="line"/>
      <point x="307" y="492"/>
      <point x="317" y="492"/>
      <point x="336" y="492" type="curve" smooth="yes"/>
      <point x="354" y="492"/>
      <point x="376" y="491"/>
    </contour>
  </outline>
</glyph>
<glyph name="franc" format="1">
  <advance width="576"/>
  <unicode hex="20A3"/>
  <outline>
    <contour>
      <point x="65" y="0" type="line"/>
      <point x="265" y="0" type="line"/>
      <point x="265" y="688" type="line"/>
      <point x="65" y="688" type="line"/>
    </contour>
    <contour>
      <point x="0" y="101" type="line"/>
      <point x="74" y="101" type="line"/>
      <point x="74" y="164" type="line"/>
      <point x="0" y="164" type="line"/>
    </contour>
    <contour>
      <point x="307" y="101" type="line"/>
      <point x="464" y="101" type="line"/>
      <point x="464" y="164" type="line"/>
      <point x="307" y="164" type="line"/>
    </contour>
    <contour>
      <point x="307" y="251" type="line"/>
      <point x="504" y="251" type="line"/>
      <point x="504" y="404" type="line"/>
      <point x="307" y="404" type="line"/>
    </contour>
    <contour>
      <point x="307" y="535" type="line"/>
      <point x="541" y="535" type="line"/>
      <point x="541" y="688" type="line"/>
      <point x="307" y="688" type="line"/>
    </contour>
  </outline>
</glyph>
<glyph name="lira" format="1">
  <advance width="608"/>
  <unicode hex="20A4"/>
  <outline>
    <contour>
      <point x="41" y="0" type="line"/>
      <point x="569" y="0" type="line"/>
      <point x="569" y="154" type="line"/>
      <point x="321" y="154" type="line"/>
      <point x="321" y="228" type="line"/>
      <point x="482" y="228" type="line"/>
      <point x="482" y="325" type="line"/>
      <point x="41" y="325" type="line"/>
      <point x="41" y="228" type="line"/>
      <point x="115" y="228" type="line"/>
      <point x="115" y="154" type="line"/>
      <point x="41" y="154" type="line"/>
    </contour>
    <contour>
      <point x="41" y="366" type="line"/>
      <point x="482" y="366" type="line"/>
      <point x="482" y="462" type="line"/>
      <point x="322" y="462" type="line"/>
      <point x="325" y="494"/>
      <point x="332" y="515"/>
      <point x="350" y="528" type="curve"/>
      <point x="365" y="540"/>
      <point x="394" y="542"/>
      <point x="441" y="542" type="curve" smooth="yes"/>
      <point x="464" y="542"/>
      <point x="516" y="538"/>
      <point x="558" y="533" type="curve"/>
      <point x="558" y="678" type="line"/>
      <point x="519" y="688"/>
      <point x="448" y="696"/>
      <point x="392" y="696" type="curve" smooth="yes"/>
      <point x="184" y="696"/>
      <point x="124" y="631"/>
      <point x="117" y="462" type="curve"/>
      <point x="41" y="462" type="line"/>
    </contour>
  </outline>
</glyph>
<glyph name="naira" format="1">
  <advance width="736"/>
  <unicode hex="20A6"/>
  <outline>
    <contour>
      <point x="462" y="0" type="line"/>
      <point x="661" y="0" type="line"/>
      <point x="661" y="29" type="line"/>
      <point x="275" y="688" type="line"/>
      <point x="75" y="688" type="line"/>
      <point x="75" y="660" type="line"/>
    </contour>
    <contour>
      <point x="75" y="0" type="line"/>
      <point x="265" y="0" type="line"/>
      <point x="265" y="252" type="line"/>
      <point x="225" y="321" type="line"/>
      <point x="75" y="321" type="line"/>
    </contour>
    <contour>
      <point x="10" y="225" type="line"/>
      <point x="121" y="225" type="line"/>
      <point x="121" y="321" type="line"/>
      <point x="10" y="321" type="line"/>
    </contour>
    <contour>
      <point x="10" y="366" type="line"/>
      <point x="121" y="366" type="line"/>
      <point x="121" y="462" type="line"/>
      <point x="10" y="462" type="line"/>
    </contour>
    <contour>
      <point x="75" y="366" type="line"/>
      <point x="198" y="366" type="line"/>
      <point x="75" y="577" type="line"/>
    </contour>
    <contour>
      <point x="661" y="112" type="line"/>
      <point x="661" y="321" type="line"/>
      <point x="539" y="321" type="line"/>
    </contour>
    <contour>
      <point x="615" y="225" type="line"/>
      <point x="726" y="225" type="line"/>
      <point x="726" y="321" type="line"/>
      <point x="615" y="321" type="line"/>
    </contour>
    <contour>
      <point x="615" y="366" type="line"/>
      <point x="726" y="366" type="line"/>
      <point x="726" y="462" type="line"/>
      <point x="615" y="462" type="line"/>
    </contour>
    <contour>
      <point x="512" y="366" type="line"/>
      <point x="661" y="366" type="line"/>
      <point x="661" y="688" type="line"/>
      <point x="471" y="688" type="line"/>
      <point x="471" y="437" type="line"/>
    </contour>
  </outline>
</glyph>
<glyph name="won" format="1">
  <advance width="1006"/>
  <unicode hex="20A9"/>
  <outline>
    <contour>
      <point x="398" y="0" type="line"/>
      <point x="409" y="0" type="line" smooth="yes"/>
      <point x="409" y="0"/>
      <point x="412" y="11"/>
      <point x="417" y="33" type="curve" smooth="yes"/>
      <point x="422" y="54"/>
      <point x="428" y="83"/>
      <point x="437" y="120" type="curve" smooth="yes"/>
      <point x="446" y="157"/>
      <point x="455" y="199"/>
      <point x="466" y="247" type="curve" smooth="yes"/>
      <point x="500" y="398" type="line"/>
      <point x="506" y="398" type="line"/>
      <point x="518" y="345"/>
      <point x="530" y="295"/>
      <point x="542" y="247" type="curve" smooth="yes"/>
      <point x="553" y="199"/>
      <point x="563" y="157"/>
      <point x="572" y="120" type="curve" smooth="yes"/>
      <point x="593" y="33" type="line" smooth="yes"/>
      <point x="598" y="11"/>
      <point x="601" y="0"/>
      <point x="601" y="0" type="curve" smooth="yes"/>
      <point x="772" y="0" type="line"/>
      <point x="608" y="688" type="line"/>
      <point x="403" y="688" type="line"/>
      <point x="328" y="344" type="line"/>
    </contour>
    <contour>
      <point x="5" y="225" type="line"/>
      <point x="216" y="225" type="line"/>
      <point x="216" y="321" type="line"/>
      <point x="5" y="321" type="line"/>
    </contour>
    <contour>
      <point x="178" y="0" type="curve" smooth="yes"/>
      <point x="356" y="0" type="line"/>
      <point x="290" y="321" type="line"/>
      <point x="101" y="321" type="line"/>
      <point x="109" y="286"/>
      <point x="118" y="251"/>
      <point x="126" y="217" type="curve" smooth="yes"/>
      <point x="153" y="107" type="line" smooth="yes"/>
      <point x="160" y="74"/>
      <point x="166" y="48"/>
      <point x="171" y="29" type="curve" smooth="yes"/>
      <point x="176" y="10"/>
      <point x="178" y="0"/>
    </contour>
    <contour>
      <point x="5" y="366" type="line"/>
      <point x="116" y="366" type="line"/>
      <point x="116" y="462" type="line"/>
      <point x="5" y="462" type="line"/>
    </contour>
    <contour>
      <point x="91" y="366" type="line"/>
      <point x="281" y="366" type="line"/>
      <point x="214" y="688" type="line"/>
      <point x="15" y="688" type="line"/>
    </contour>
    <contour>
      <point x="815" y="0" type="line"/>
      <point x="827" y="0" type="line" smooth="yes"/>
      <point x="827" y="0"/>
      <point x="829" y="10"/>
      <point x="834" y="29" type="curve" smooth="yes"/>
      <point x="839" y="48"/>
      <point x="845" y="74"/>
      <point x="853" y="107" type="curve" smooth="yes"/>
      <point x="860" y="139"/>
      <point x="869" y="176"/>
      <point x="879" y="217" type="curve" smooth="yes"/>
      <point x="904" y="321" type="line"/>
      <point x="739" y="321" type="line"/>
    </contour>
    <contour>
      <point x="790" y="225" type="line"/>
      <point x="1001" y="225" type="line"/>
      <point x="1001" y="321" type="line"/>
      <point x="790" y="321" type="line"/>
    </contour>
    <contour>
      <point x="890" y="366" type="line"/>
      <point x="1001" y="366" type="line"/>
      <point x="1001" y="462" type="line"/>
      <point x="890" y="462" type="line"/>
    </contour>
    <contour>
      <point x="735" y="366" type="line"/>
      <point x="914" y="366" type="line"/>
      <point x="937" y="461"/>
      <point x="962" y="569"/>
      <point x="991" y="688" type="curve"/>
      <point x="792" y="688" type="line"/>
    </contour>
  </outline>
</glyph>
<glyph name="kip" format="1">
  <advance width="683"/>
  <unicode hex="20AD"/>
  <outline>
    <contour>
      <point x="462" y="0" type="line"/>
      <point x="686" y="0" type="line"/>
      <point x="446" y="364" type="line"/>
      <point x="683" y="688" type="line"/>
      <point x="465" y="688" type="line"/>
      <point x="307" y="456" type="line"/>
      <point x="307" y="241" type="line"/>
    </contour>
    <contour>
      <point x="5" y="290" type="line"/>
      <point x="145" y="290" type="line"/>
      <point x="145" y="409" type="line"/>
      <point x="5" y="409" type="line"/>
    </contour>
    <contour>
      <point x="65" y="0" type="line"/>
      <point x="265" y="0" type="line"/>
      <point x="265" y="688" type="line"/>
      <point x="65" y="688" type="line"/>
    </contour>
    <contour>
      <point x="407" y="290" type="line"/>
      <point x="666" y="290" type="line"/>
      <point x="666" y="409" type="line"/>
      <point x="407" y="409" type="line"/>
    </contour>
  </outline>
</glyph>
<glyph name="peso" format="1">
  <advance width="704"/>
  <unicode hex="20B1"/>
  <outline>
    <contour>
      <point x="80" y="0" type="line"/>
      <point x="280" y="0" type="line"/>
      <point x="280" y="431" type="line"/>
      <point x="80" y="431" type="line"/>
    </contour>
    <contour>
      <point x="5" y="335" type="line"/>
      <point x="136" y="335" type="line"/>
      <point x="136" y="431" type="line"/>
      <point x="5" y="431" type="line"/>
    </contour>
    <contour>
      <point x="5" y="476" type="line"/>
      <point x="136" y="476" type="line"/>
      <point x="136" y="572" type="line"/>
      <point x="5" y="572" type="line"/>
    </contour>
    <contour>
      <point x="80" y="476" type="line"/>
      <point x="280" y="476" type="line"/>
      <point x="280" y="688" type="line"/>
      <point x="80" y="688" type="line"/>
    </contour>
    <contour>
      <point x="322" y="214" type="line"/>
      <point x="405" y="214" type="line" smooth="yes"/>
      <point x="509" y="214"/>
      <point x="566" y="238"/>
      <point x="598" y="279" type="curve" smooth="yes"/>
      <point x="627" y="316"/>
      <point x="634" y="367"/>
      <point x="635" y="431" type="curve"/>
      <point x="432" y="431" type="line"/>
      <point x="431" y="404"/>
      <point x="428" y="390"/>
      <point x="418" y="381" type="curve"/>
      <point x="406" y="369"/>
      <point x="385" y="367"/>
      <point x="346" y="367" type="curve" smooth="yes"/>
      <point x="322" y="367" type="line"/>
    </contour>
    <contour>
      <point x="588" y="335" type="line"/>
      <point x="699" y="335" type="line"/>
      <point x="699" y="431" type="line"/>
      <point x="588" y="431" type="line"/>
    </contour>
    <contour>
      <point x="432" y="476" type="curve"/>
      <point x="635" y="476" type="line"/>
      <point x="633" y="543"/>
      <point x="625" y="593"/>
      <point x="596" y="629" type="curve" smooth="yes"/>
      <point x="564" y="668"/>
      <point x="506" y="688"/>
      <point x="405" y="688" type="curve" smooth="yes"/>
      <point x="322" y="688" type="line"/>
      <point x="322" y="535" type="line"/>
      <point x="346" y="535" type="line" smooth="yes"/>
      <point x="385" y="535"/>
      <point x="406" y="533"/>
      <point x="418" y="522" type="curve"/>
      <point x="427" y="513"/>
      <point x="431" y="500"/>
    </contour>
    <contour>
      <point x="588" y="476" type="line"/>
      <point x="699" y="476" type="line"/>
      <point x="699" y="572" type="line"/>
      <point x="588" y="572" type="line"/>
    </contour>
  </outline>
</glyph>
<glyph name="guarani" format="1">
  <advance width="620"/>
  <unicode hex="20B2"/>
  <outline>
    <contour>
      <point x="249" y="-8" type="line"/>
      <point x="298" y="-8" type="line"/>
      <point x="298" y="222" type="line"/>
      <point x="257" y="224"/>
      <point x="251" y="240"/>
      <point x="251" y="344" type="curve" smooth="yes"/>
      <point x="251" y="433"/>
      <point x="254" y="459"/>
      <point x="297" y="468" type="curve"/>
      <point x="297" y="696" type="line"/>
      <point x="249" y="696" type="line"/>
      <point x="249" y="614" type="line"/>
      <point x="87" y="600"/>
      <point x="48" y="532"/>
      <point x="48" y="344" type="curve" smooth="yes"/>
      <point x="48" y="156"/>
      <point x="78" y="88"/>
      <point x="249" y="75" type="curve"/>
    </contour>
    <contour>
      <point x="339" y="-8" type="line"/>
      <point x="387" y="-8" type="line"/>
      <point x="387" y="74" type="line"/>
      <point x="561" y="85"/>
      <point x="568" y="149"/>
      <point x="568" y="283" type="curve" smooth="yes"/>
      <point x="568" y="393" type="line"/>
      <point x="313" y="393" type="line"/>
      <point x="313" y="289" type="line"/>
      <point x="369" y="289" type="line"/>
      <point x="369" y="273" type="line" smooth="yes"/>
      <point x="369" y="233"/>
      <point x="368" y="224"/>
      <point x="339" y="223" type="curve"/>
    </contour>
    <contour>
      <point x="541" y="458" type="curve"/>
      <point x="541" y="594" type="line"/>
      <point x="497" y="603"/>
      <point x="440" y="611"/>
      <point x="387" y="615" type="curve"/>
      <point x="387" y="696" type="line"/>
      <point x="340" y="696" type="line"/>
      <point x="340" y="471" type="line"/>
      <point x="349" y="471"/>
      <point x="360" y="471"/>
      <point x="372" y="471" type="curve" smooth="yes"/>
      <point x="405" y="471"/>
      <point x="470" y="466"/>
    </contour>
  </outline>
</glyph>
<glyph name="cedi" format="1">
  <advance width="469"/>
  <unicode hex="20B5"/>
  <outline>
    <contour>
      <point x="266" y="68" type="curve" smooth="yes"/>
      <point x="313" y="68"/>
      <point x="363" y="74"/>
      <point x="424" y="86" type="curve"/>
      <point x="424" y="219" type="line"/>
      <point x="394" y="215"/>
      <point x="350" y="211"/>
      <point x="319" y="211" type="curve" smooth="yes"/>
      <point x="241" y="211"/>
      <point x="234" y="220"/>
      <point x="234" y="404" type="curve" smooth="yes"/>
      <point x="234" y="614" type="line"/>
      <point x="91" y="606"/>
      <point x="45" y="548"/>
      <point x="45" y="341" type="curve" smooth="yes"/>
      <point x="45" y="150"/>
      <point x="75" y="68"/>
    </contour>
    <contour>
      <point x="144" y="-8" type="line"/>
      <point x="191" y="-8" type="line"/>
      <point x="237" y="163" type="line"/>
      <point x="189" y="163" type="line"/>
      <point x="143" y="-7" type="line"/>
    </contour>
    <contour>
      <point x="420" y="466" type="curve"/>
      <point x="420" y="599" type="line"/>
      <point x="378" y="609"/>
      <point x="349" y="613"/>
      <point x="311" y="614" type="curve"/>
      <point x="271" y="468" type="line"/>
      <point x="283" y="472"/>
      <point x="298" y="473"/>
      <point x="318" y="473" type="curve" smooth="yes"/>
      <point x="353" y="473"/>
      <point x="396" y="470"/>
    </contour>
    <contour>
      <point x="282" y="507" type="line"/>
      <point x="330" y="507" type="line"/>
      <point x="381" y="696" type="line"/>
      <point x="333" y="696" type="line"/>
    </contour>
  </outline>
</glyph>
<glyph name="rupeeIndian" format="1">
  <advance width="608"/>
  <unicode hex="20B9"/>
  <outline>
    <contour>
      <point x="311" y="0" type="line"/>
      <point x="521" y="0" type="line"/>
      <point x="387" y="257" type="line"/>
      <point x="446" y="267"/>
      <point x="479" y="301"/>
      <point x="491" y="336" type="curve" smooth="yes"/>
      <point x="496" y="351"/>
      <point x="500" y="369"/>
      <point x="502" y="387" type="curve"/>
      <point x="183" y="387" type="line"/>
      <point x="183" y="234" type="line"/>
    </contour>
    <contour>
      <point x="16" y="451" type="line"/>
      <point x="592" y="451" type="line"/>
      <point x="592" y="547" type="line"/>
      <point x="16" y="547" type="line"/>
    </contour>
    <contour>
      <point x="303" y="508" type="curve"/>
      <point x="504" y="508" type="line"/>
      <point x="504" y="511"/>
      <point x="504" y="515"/>
      <point x="504" y="518" type="curve" smooth="yes"/>
      <point x="504" y="553"/>
      <point x="497" y="597"/>
      <point x="469" y="631" type="curve" smooth="yes"/>
      <point x="437" y="669"/>
      <point x="382" y="688"/>
      <point x="286" y="688" type="curve" smooth="yes"/>
      <point x="183" y="688" type="line"/>
      <point x="183" y="592" type="line"/>
      <point x="217" y="592" type="line" smooth="yes"/>
      <point x="256" y="592"/>
      <point x="277" y="591"/>
      <point x="289" y="581" type="curve" smooth="yes"/>
      <point x="301" y="571"/>
      <point x="303" y="551"/>
      <point x="303" y="518" type="curve" smooth="yes"/>
      <point x="303" y="514"/>
      <point x="303" y="511"/>
    </contour>
    <contour>
      <point x="16" y="592" type="line"/>
      <point x="592" y="592" type="line"/>
      <point x="592" y="688" type="line"/>
      <point x="16" y="688" type="line"/>
    </contour>
  </outline>
</glyph>
<glyph name="liraTurkish" format="1">
  <advance width="604"/>
  <unicode hex="20BA"/>
  <outline>
    <contour>
      <point x="10" y="306" type="line"/>
      <point x="391" y="526" type="line"/>
      <point x="391" y="583" type="line"/>
      <point x="10" y="364" type="line"/>
    </contour>
    <contour>
      <point x="75" y="0" type="line"/>
      <point x="275" y="0" type="line"/>
      <point x="275" y="401" type="line"/>
      <point x="75" y="286" type="line"/>
    </contour>
    <contour>
      <point x="10" y="191" type="line"/>
      <point x="391" y="411" type="line"/>
      <point x="391" y="468" type="line"/>
      <point x="10" y="249" type="line"/>
    </contour>
    <contour>
      <point x="317" y="-2" type="line"/>
      <point x="431" y="-2"/>
      <point x="497" y="23"/>
      <point x="537" y="70" type="curve" smooth="yes"/>
      <point x="575" y="116"/>
      <point x="584" y="178"/>
      <point x="584" y="251" type="curve"/>
      <point x="411" y="251" type="line"/>
      <point x="411" y="226"/>
      <point x="411" y="203"/>
      <point x="399" y="188" type="curve"/>
      <point x="386" y="173"/>
      <point x="364" y="162"/>
      <point x="317" y="162" type="curve"/>
    </contour>
    <contour>
      <point x="75" y="344" type="line"/>
      <point x="275" y="459" type="line"/>
      <point x="275" y="688" type="line"/>
      <point x="75" y="688" type="line"/>
    </contour>
  </outline>
</glyph>
<glyph name="manat" format="1">
  <advance width="698"/>
  <unicode hex="20BC"/>
  <outline>
    <contour>
      <point x="447" y="0" type="line"/>
      <point x="651" y="0" type="line"/>
      <point x="651" y="306" type="line" smooth="yes"/>
      <point x="651" y="415"/>
      <point x="645" y="493"/>
      <point x="604" y="544" type="curve" smooth="yes"/>
      <point x="563" y="595"/>
      <point x="488" y="618"/>
      <point x="349" y="618" type="curve"/>
      <point x="349" y="465" type="line"/>
      <point x="398" y="465"/>
      <point x="423" y="459"/>
      <point x="435" y="435" type="curve" smooth="yes"/>
      <point x="447" y="410"/>
      <point x="447" y="365"/>
      <point x="447" y="286" type="curve" smooth="yes"/>
    </contour>
    <contour>
      <point x="47" y="0" type="line"/>
      <point x="251" y="0" type="line"/>
      <point x="251" y="613" type="line"/>
      <point x="159" y="602"/>
      <point x="108" y="573"/>
      <point x="80" y="523" type="curve" smooth="yes"/>
      <point x="52" y="473"/>
      <point x="47" y="401"/>
      <point x="47" y="306" type="curve" smooth="yes"/>
    </contour>
    <contour>
      <point x="323" y="151" type="line"/>
      <point x="371" y="151" type="line"/>
      <point x="371" y="696" type="line"/>
      <point x="323" y="696" type="line"/>
    </contour>
  </outline>
</glyph>
<glyph name="ruble" format="1">
  <advance width="645"/>
  <unicode hex="20BD"/>
  <outline>
    <contour>
      <point x="307" y="214" type="line"/>
      <point x="390" y="214" type="line" smooth="yes"/>
      <point x="494" y="214"/>
      <point x="551" y="238"/>
      <point x="583" y="279" type="curve" smooth="yes"/>
      <point x="615" y="320"/>
      <point x="620" y="379"/>
      <point x="620" y="451" type="curve" smooth="yes"/>
      <point x="620" y="530"/>
      <point x="613" y="589"/>
      <point x="581" y="629" type="curve" smooth="yes"/>
      <point x="549" y="668"/>
      <point x="491" y="688"/>
      <point x="390" y="688" type="curve" smooth="yes"/>
      <point x="307" y="688" type="line"/>
      <point x="307" y="535" type="line"/>
      <point x="331" y="535" type="line" smooth="yes"/>
      <point x="370" y="535"/>
      <point x="391" y="533"/>
      <point x="403" y="522" type="curve"/>
      <point x="415" y="510"/>
      <point x="417" y="490"/>
      <point x="417" y="451" type="curve" smooth="yes"/>
      <point x="417" y="412"/>
      <point x="415" y="392"/>
      <point x="403" y="381" type="curve"/>
      <point x="391" y="369"/>
      <point x="370" y="367"/>
      <point x="331" y="367" type="curve" smooth="yes"/>
      <point x="307" y="367" type="line"/>
    </contour>
    <contour>
      <point x="0" y="101" type="line"/>
      <point x="74" y="101" type="line"/>
      <point x="74" y="164" type="line"/>
      <point x="0" y="164" type="line"/>
    </contour>
    <contour>
      <point x="65" y="0" type="line"/>
      <point x="265" y="0" type="line"/>
      <point x="265" y="164" type="line"/>
      <point x="65" y="164" type="line"/>
    </contour>
    <contour>
      <point x="0" y="214" type="line"/>
      <point x="74" y="214" type="line"/>
      <point x="74" y="277" type="line"/>
      <point x="0" y="277" type="line"/>
    </contour>
    <contour>
      <point x="307" y="101" type="line"/>
      <point x="464" y="101" type="line"/>
      <point x="464" y="164" type="line"/>
      <point x="307" y="164" type="line"/>
    </contour>
    <contour>
      <point x="65" y="214" type="line"/>
      <point x="265" y="214" type="line"/>
      <point x="265" y="688" type="line"/>
      <point x="65" y="688" type="line"/>
    </contour>
  </outline>
</glyph>
<glyph name="literSign" format="1">
  <advance width="631"/>
  <unicode hex="2113"/>
  <outline>
    <contour>
      <point x="271" y="-9" type="curve" smooth="yes"/>
      <point x="313" y="-9"/>
      <point x="422" y="-3"/>
      <point x="490" y="7" type="curve"/>
      <point x="482" y="128" type="line"/>
      <point x="350" y="128" type="line" smooth="yes"/>
      <point x="293" y="128"/>
      <point x="301" y="172"/>
      <point x="301" y="230" type="curve" smooth="yes"/>
      <point x="302" y="754" type="line"/>
      <point x="152" y="749"/>
      <point x="118" y="675"/>
      <point x="118" y="577" type="curve" smooth="yes"/>
      <point x="118" y="139" type="line" smooth="yes"/>
      <point x="118" y="57"/>
      <point x="166" y="-9"/>
    </contour>
    <contour>
      <point x="68" y="109" type="line"/>
      <point x="118" y="131"/>
      <point x="207" y="171"/>
      <point x="282" y="208" type="curve"/>
      <point x="282" y="370" type="line"/>
      <point x="210" y="329"/>
      <point x="85" y="265"/>
      <point x="25" y="237" type="curve"/>
    </contour>
    <contour>
      <point x="342" y="238" type="line"/>
      <point x="357" y="246"/>
      <point x="370" y="254"/>
      <point x="381" y="260" type="curve" smooth="yes"/>
      <point x="522" y="342"/>
      <point x="576" y="444"/>
      <point x="576" y="572" type="curve" smooth="yes"/>
      <point x="576" y="713"/>
      <point x="494" y="755"/>
      <point x="343" y="756" type="curve"/>
      <point x="343" y="616" type="line"/>
      <point x="345" y="616"/>
      <point x="348" y="616"/>
      <point x="351" y="616" type="curve" smooth="yes"/>
      <point x="395" y="616"/>
      <point x="395" y="585"/>
      <point x="395" y="521" type="curve" smooth="yes"/>
      <point x="395" y="474"/>
      <point x="384" y="440"/>
      <point x="342" y="408" type="curve"/>
    </contour>
    <contour>
      <point x="343" y="616" type="line"/>
      <point x="343" y="756" type="line"/>
    </contour>
  </outline>
</glyph>
<glyph name="numero" format="1">
  <advance width="1118"/>
  <unicode hex="2116"/>
  <outline>
    <contour>
      <point x="432" y="0" type="line"/>
      <point x="631" y="0" type="line"/>
      <point x="631" y="29" type="line"/>
      <point x="265" y="688" type="line"/>
      <point x="65" y="688" type="line"/>
      <point x="65" y="660" type="line"/>
    </contour>
    <contour>
      <point x="65" y="0" type="line"/>
      <point x="255" y="0" type="line"/>
      <point x="255" y="232" type="line"/>
      <point x="65" y="577" type="line"/>
    </contour>
    <contour>
      <point x="631" y="112" type="line"/>
      <point x="631" y="688" type="line"/>
      <point x="441" y="688" type="line"/>
      <point x="441" y="457" type="line"/>
    </contour>
    <contour>
      <point x="728" y="1" type="line"/>
      <point x="1063" y="1" type="line"/>
      <point x="1063" y="130" type="line"/>
      <point x="728" y="130" type="line"/>
    </contour>
    <component base="ordmasculine" xOffset="673" yOffset="-133"/>
  </outline>
</glyph>
<glyph name="partialdiff" format="1">
  <advance width="572"/>
  <unicode hex="2202"/>
  <note>
    partialdiff
  </note>
  <outline>
    <contour>
      <point x="342" y="-6" type="line"/>
      <point x="431" y="-1"/>
      <point x="479" y="19"/>
      <point x="504" y="60" type="curve" smooth="yes"/>
      <point x="528" y="101"/>
      <point x="530" y="163"/>
      <point x="530" y="254" type="curve" smooth="yes"/>
      <point x="530" y="391"/>
      <point x="511" y="490"/>
      <point x="479" y="566" type="curve" smooth="yes"/>
      <point x="446" y="642"/>
      <point x="400" y="696"/>
      <point x="345" y="743" type="curve"/>
      <point x="150" y="743" type="line"/>
      <point x="150" y="739" type="line"/>
      <point x="217" y="682"/>
      <point x="277" y="615"/>
      <point x="313" y="511" type="curve"/>
      <point x="311" y="508" type="line"/>
      <point x="299" y="511"/>
      <point x="285" y="513"/>
      <point x="272" y="514" type="curve"/>
      <point x="272" y="377" type="line"/>
      <point x="286" y="377" type="line" smooth="yes"/>
      <point x="300" y="377"/>
      <point x="311" y="376"/>
      <point x="319" y="374" type="curve" smooth="yes"/>
      <point x="334" y="370"/>
      <point x="340" y="354"/>
      <point x="341" y="322" type="curve" smooth="yes"/>
      <point x="342" y="305"/>
      <point x="342" y="283"/>
      <point x="342" y="254" type="curve" smooth="yes"/>
    </contour>
    <contour>
      <point x="286" y="-8" type="curve" smooth="yes"/>
      <point x="300" y="-8" type="line"/>
      <point x="300" y="133" type="line"/>
      <point x="286" y="133" type="line" smooth="yes"/>
      <point x="272" y="133"/>
      <point x="261" y="134"/>
      <point x="254" y="136" type="curve" smooth="yes"/>
      <point x="238" y="140"/>
      <point x="232" y="155"/>
      <point x="231" y="187" type="curve" smooth="yes"/>
      <point x="230" y="203"/>
      <point x="230" y="225"/>
      <point x="230" y="254" type="curve" smooth="yes"/>
      <point x="230" y="518" type="line"/>
      <point x="216" y="518" type="line" smooth="yes"/>
      <point x="136" y="518"/>
      <point x="93" y="495"/>
      <point x="70" y="451" type="curve" smooth="yes"/>
      <point x="46" y="407"/>
      <point x="42" y="341"/>
      <point x="42" y="254" type="curve" smooth="yes"/>
      <point x="42" y="155"/>
      <point x="45" y="90"/>
      <point x="77" y="49" type="curve" smooth="yes"/>
      <point x="109" y="8"/>
      <point x="170" y="-8"/>
    </contour>
  </outline>
</glyph>
<glyph name="emptyset" format="1">
  <advance width="681"/>
  <unicode hex="2205"/>
  <outline>
    <contour>
      <point x="339" y="72" type="curve" smooth="yes"/>
      <point x="363" y="72" type="line"/>
      <point x="363" y="199" type="line"/>
      <point x="342" y="199"/>
      <point x="323" y="200"/>
      <point x="312" y="202" type="curve"/>
      <point x="289" y="206"/>
      <point x="282" y="226"/>
      <point x="280" y="270" type="curve" smooth="yes"/>
      <point x="279" y="293"/>
      <point x="278" y="303"/>
      <point x="278" y="344" type="curve" smooth="yes"/>
      <point x="278" y="612" type="line"/>
      <point x="195" y="603"/>
      <point x="132" y="581"/>
      <point x="111" y="535" type="curve" smooth="yes"/>
      <point x="90" y="489"/>
      <point x="89" y="421"/>
      <point x="89" y="344" type="curve" smooth="yes"/>
      <point x="89" y="270"/>
      <point x="89" y="233"/>
      <point x="99" y="190" type="curve" smooth="yes"/>
      <point x="109" y="147"/>
      <point x="128" y="117"/>
      <point x="165" y="99" type="curve" smooth="yes"/>
      <point x="202" y="81"/>
      <point x="257" y="72"/>
    </contour>
    <contour>
      <point x="130" y="0" type="line"/>
      <point x="231" y="103" type="line"/>
      <point x="127" y="182" type="line"/>
      <point x="38" y="93" type="line"/>
    </contour>
    <contour>
      <point x="400" y="76" type="line"/>
      <point x="483" y="83"/>
      <point x="545" y="107"/>
      <point x="567" y="153" type="curve" smooth="yes"/>
      <point x="588" y="198"/>
      <point x="589" y="267"/>
      <point x="589" y="344" type="curve" smooth="yes"/>
      <point x="589" y="434"/>
      <point x="588" y="509"/>
      <point x="557" y="553" type="curve" smooth="yes"/>
      <point x="525" y="598"/>
      <point x="462" y="615"/>
      <point x="339" y="615" type="curve" smooth="yes"/>
      <point x="315" y="615" type="line"/>
      <point x="315" y="489" type="line"/>
      <point x="336" y="489"/>
      <point x="355" y="488"/>
      <point x="366" y="486" type="curve" smooth="yes"/>
      <point x="389" y="482"/>
      <point x="399" y="463"/>
      <point x="399" y="418" type="curve" smooth="yes"/>
      <point x="399" y="396"/>
      <point x="400" y="384"/>
      <point x="400" y="344" type="curve" smooth="yes"/>
    </contour>
    <contour>
      <point x="558" y="510" type="line"/>
      <point x="644" y="596" type="line"/>
      <point x="552" y="689" type="line"/>
      <point x="458" y="595" type="line"/>
    </contour>
  </outline>
</glyph>
<glyph name="product" format="1">
  <advance width="716"/>
  <unicode hex="220F"/>
  <note>
    product
  </note>
  <outline>
    <contour>
      <point x="451" y="-189" type="line"/>
      <point x="651" y="-189" type="line"/>
      <point x="651" y="495" type="line"/>
      <point x="451" y="495" type="line"/>
    </contour>
    <contour>
      <point x="65" y="-189" type="line"/>
      <point x="265" y="-189" type="line"/>
      <point x="265" y="495" type="line"/>
      <point x="65" y="495" type="line"/>
    </contour>
    <contour>
      <point x="65" y="535" type="line"/>
      <point x="651" y="535" type="line"/>
      <point x="651" y="688" type="line"/>
      <point x="65" y="688" type="line"/>
    </contour>
  </outline>
</glyph>
<glyph name="summation" format="1">
  <advance width="716"/>
  <unicode hex="2211"/>
  <note>
    summation
  </note>
  <outline>
    <contour>
      <point x="65" y="-189" type="line"/>
      <point x="162" y="-189" type="line"/>
      <point x="565" y="249" type="line"/>
      <point x="340" y="494" type="line"/>
      <point x="106" y="494" type="line"/>
      <point x="331" y="249" type="line"/>
      <point x="65" y="-40" type="line"/>
    </contour>
    <contour>
      <point x="219" y="-189" type="line"/>
      <point x="651" y="-189" type="line"/>
      <point x="651" y="-36" type="line"/>
      <point x="360" y="-36" type="line"/>
    </contour>
    <contour>
      <point x="69" y="534" type="line"/>
      <point x="651" y="535" type="line"/>
      <point x="651" y="688" type="line"/>
      <point x="65" y="688" type="line"/>
      <point x="65" y="539" type="line"/>
    </contour>
  </outline>
</glyph>
<glyph name="minus" format="1">
  <advance width="540"/>
  <unicode hex="2212"/>
  <note>
    minus
  </note>
  <outline>
    <contour>
      <point x="70" y="186" type="line"/>
      <point x="470" y="186" type="line"/>
      <point x="470" y="320" type="line"/>
      <point x="70" y="320" type="line"/>
    </contour>
  </outline>
</glyph>
<glyph name="radical" format="1">
  <advance width="774"/>
  <unicode hex="221A"/>
  <note>
    radical
  </note>
  <outline>
    <contour>
      <point x="503" y="-93" type="line"/>
      <point x="727" y="770" type="line"/>
      <point x="563" y="770" type="line"/>
      <point x="398" y="119" type="line"/>
    </contour>
    <contour>
      <point x="281" y="-106" type="line"/>
      <point x="462" y="-106" type="line"/>
      <point x="232" y="358" type="line"/>
      <point x="31" y="267" type="line"/>
      <point x="65" y="180" type="line"/>
      <point x="126" y="206" type="line"/>
    </contour>
  </outline>
</glyph>
<glyph name="infinity" format="1">
  <advance width="1037"/>
  <unicode hex="221E"/>
  <note>
    infinity
  </note>
  <outline>
    <contour>
      <point x="284" y="33" type="curve" smooth="yes"/>
      <point x="349" y="33"/>
      <point x="399" y="48"/>
      <point x="436" y="70" type="curve" smooth="yes"/>
      <point x="473" y="92"/>
      <point x="500" y="123"/>
      <point x="519" y="156" type="curve"/>
      <point x="538" y="123"/>
      <point x="565" y="92"/>
      <point x="603" y="70" type="curve" smooth="yes"/>
      <point x="641" y="48"/>
      <point x="690" y="33"/>
      <point x="755" y="33" type="curve" smooth="yes"/>
      <point x="826" y="33"/>
      <point x="877" y="44"/>
      <point x="913" y="65" type="curve" smooth="yes"/>
      <point x="948" y="86"/>
      <point x="969" y="118"/>
      <point x="980" y="159" type="curve"/>
      <point x="745" y="159" type="line" smooth="yes"/>
      <point x="694" y="159"/>
      <point x="661" y="172"/>
      <point x="637" y="190" type="curve" smooth="yes"/>
      <point x="613" y="208"/>
      <point x="600" y="232"/>
      <point x="589" y="256" type="curve"/>
      <point x="600" y="280"/>
      <point x="613" y="305"/>
      <point x="637" y="323" type="curve" smooth="yes"/>
      <point x="661" y="341"/>
      <point x="694" y="353"/>
      <point x="745" y="353" type="curve" smooth="yes"/>
      <point x="789" y="353"/>
      <point x="818" y="347"/>
      <point x="835" y="332" type="curve"/>
      <point x="851" y="316"/>
      <point x="857" y="292"/>
      <point x="857" y="256" type="curve" smooth="yes"/>
      <point x="857" y="231"/>
      <point x="854" y="212"/>
      <point x="847" y="199" type="curve"/>
      <point x="988" y="199" type="line"/>
      <point x="990" y="216"/>
      <point x="991" y="235"/>
      <point x="991" y="256" type="curve" smooth="yes"/>
      <point x="991" y="327"/>
      <point x="980" y="383"/>
      <point x="945" y="421" type="curve" smooth="yes"/>
      <point x="909" y="459"/>
      <point x="851" y="479"/>
      <point x="755" y="479" type="curve" smooth="yes"/>
      <point x="690" y="479"/>
      <point x="641" y="465"/>
      <point x="603" y="442" type="curve" smooth="yes"/>
      <point x="565" y="419"/>
      <point x="538" y="389"/>
      <point x="519" y="356" type="curve"/>
      <point x="500" y="389"/>
      <point x="473" y="419"/>
      <point x="436" y="442" type="curve" smooth="yes"/>
      <point x="399" y="465"/>
      <point x="349" y="479"/>
      <point x="284" y="479" type="curve" smooth="yes"/>
      <point x="213" y="479"/>
      <point x="162" y="467"/>
      <point x="126" y="446" type="curve" smooth="yes"/>
      <point x="89" y="425"/>
      <point x="68" y="393"/>
      <point x="57" y="353" type="curve"/>
      <point x="294" y="353" type="line" smooth="yes"/>
      <point x="345" y="353"/>
      <point x="378" y="341"/>
      <point x="402" y="323" type="curve" smooth="yes"/>
      <point x="425" y="305"/>
      <point x="438" y="280"/>
      <point x="450" y="256" type="curve"/>
      <point x="438" y="232"/>
      <point x="425" y="208"/>
      <point x="402" y="190" type="curve" smooth="yes"/>
      <point x="378" y="172"/>
      <point x="345" y="159"/>
      <point x="294" y="159" type="curve" smooth="yes"/>
      <point x="250" y="159"/>
      <point x="221" y="165"/>
      <point x="204" y="181" type="curve" smooth="yes"/>
      <point x="187" y="196"/>
      <point x="180" y="220"/>
      <point x="180" y="256" type="curve" smooth="yes"/>
      <point x="180" y="280"/>
      <point x="183" y="299"/>
      <point x="190" y="313" type="curve"/>
      <point x="49" y="313" type="line"/>
      <point x="47" y="295"/>
      <point x="46" y="276"/>
      <point x="46" y="256" type="curve" smooth="yes"/>
      <point x="46" y="184"/>
      <point x="58" y="129"/>
      <point x="94" y="91" type="curve" smooth="yes"/>
      <point x="129" y="53"/>
      <point x="188" y="33"/>
    </contour>
  </outline>
</glyph>
<glyph name="integral" format="1">
  <advance width="469"/>
  <unicode hex="222B"/>
  <note>
    integral
  </note>
  <outline>
    <contour>
      <point x="40" y="-190" type="line"/>
      <point x="156" y="-190"/>
      <point x="234" y="-189"/>
      <point x="283" y="-168" type="curve" smooth="yes"/>
      <point x="331" y="-148"/>
      <point x="350" y="-108"/>
      <point x="350" y="-28" type="curve" smooth="yes"/>
      <point x="350" y="-10"/>
      <point x="349" y="10"/>
      <point x="347" y="32" type="curve" smooth="yes"/>
      <point x="307" y="508" type="line"/>
      <point x="306" y="511"/>
      <point x="306" y="515"/>
      <point x="306" y="518" type="curve" smooth="yes"/>
      <point x="306" y="526" type="line" smooth="yes"/>
      <point x="306" y="546"/>
      <point x="312" y="557"/>
      <point x="330" y="562" type="curve" smooth="yes"/>
      <point x="348" y="567"/>
      <point x="378" y="568"/>
      <point x="429" y="568" type="curve"/>
      <point x="429" y="696" type="line"/>
      <point x="312" y="696"/>
      <point x="234" y="695"/>
      <point x="186" y="675" type="curve" smooth="yes"/>
      <point x="138" y="654"/>
      <point x="119" y="614"/>
      <point x="119" y="534" type="curve" smooth="yes"/>
      <point x="119" y="516"/>
      <point x="120" y="496"/>
      <point x="122" y="474" type="curve" smooth="yes"/>
      <point x="162" y="-2" type="line"/>
      <point x="162" y="-3"/>
      <point x="162" y="-6"/>
      <point x="163" y="-10" type="curve"/>
      <point x="163" y="-21" type="line" smooth="yes"/>
      <point x="163" y="-41"/>
      <point x="158" y="-52"/>
      <point x="140" y="-56" type="curve"/>
      <point x="122" y="-61"/>
      <point x="91" y="-62"/>
      <point x="40" y="-62" type="curve"/>
    </contour>
  </outline>
</glyph>
